<?xml version="1.0" encoding="UTF-8"?>
<svg width="249px" height="198px" viewBox="0 0 249 198" version="1.1" xmlns="http://www.w3.org/2000/svg" xmlns:xlink="http://www.w3.org/1999/xlink">
    <title>Group</title>
    <defs>
        <path d="M8,1.09090906 C13.4545455,1.09090906 13.8181821,2.54545452 13.8181821,2.54545452 L13.8181821,7.38181818 C13.8188124,10.0093101 12.4013979,12.4326092 10.1109091,13.72 L8,14.9090909 L5.8890909,13.72 C3.59860206,12.4326092 2.18118759,10.0093101 2.18181795,7.38181818 L2.18181795,2.54545452 C2.18181795,2.54545452 2.18181795,1.09090906 8,1.09090906 M8,-3.33333337e-08 C5.41599999,-3.33333337e-08 3.53927271,0.283636331 2.42109089,0.843636334 C1.18690906,1.45818179 1.09090906,2.30181816 1.09090906,2.54545452 L1.09090906,7.38181818 C1.09294698,10.4031808 2.72207684,13.1892652 5.35418181,14.6727273 L7.46509091,15.8581819 C7.79662752,16.0472841 8.20337248,16.0472841 8.53490909,15.8581819 L10.6458182,14.6727273 C13.2779232,13.1892652 14.907053,10.4031808 14.9090916,7.38181818 L14.9090916,2.54545452 C14.9090916,2.45595748 14.8981964,2.36679318 14.8763637,2.27999998 C14.6636364,1.42909088 13.4869091,-3.33333337e-08 8,-3.33333337e-08 L8,-3.33333337e-08 Z M7.63636363,10 C7.49169424,9.99961172 7.35303144,9.94210783 7.25054545,9.84000001 L4.7050909,7.29454545 C4.50482991,7.07962927 4.51073898,6.7447202 4.71845686,6.53700232 C4.92617473,6.32928445 5.2610838,6.32337537 5.47599999,6.52363636 L7.636,8.68363637 L11.2505455,5.0690909 C11.3865241,4.92316131 11.5913131,4.86309149 11.7845738,4.91244687 C11.9778344,4.96180224 12.1287432,5.11271106 12.1780986,5.30597169 C12.227454,5.49923232 12.1673841,5.70402139 12.0214546,5.83999999 L8.02145455,9.84000001 C7.9191474,9.94193094 7.78078085,9.99942034 7.63636363,10 L7.63636363,10 Z" id="path-1"></path>
        <rect id="path-3" x="0" y="0" width="237" height="60" rx="8"></rect>
        <filter x="-3.0%" y="-8.3%" width="105.9%" height="123.3%" filterUnits="objectBoundingBox" id="filter-4">
            <feOffset dx="0" dy="2" in="SourceAlpha" result="shadowOffsetOuter1"></feOffset>
            <feGaussianBlur stdDeviation="2" in="shadowOffsetOuter1" result="shadowBlurOuter1"></feGaussianBlur>
            <feComposite in="shadowBlurOuter1" in2="SourceAlpha" operator="out" result="shadowBlurOuter1"></feComposite>
            <feColorMatrix values="0 0 0 0 0   0 0 0 0 0   0 0 0 0 0  0 0 0 0.1 0" type="matrix" in="shadowBlurOuter1"></feColorMatrix>
        </filter>
        <rect id="path-5" x="0" y="0" width="233" height="60" rx="8"></rect>
        <filter x="-3.0%" y="-8.3%" width="106.0%" height="123.3%" filterUnits="objectBoundingBox" id="filter-6">
            <feOffset dx="0" dy="2" in="SourceAlpha" result="shadowOffsetOuter1"></feOffset>
            <feGaussianBlur stdDeviation="2" in="shadowOffsetOuter1" result="shadowBlurOuter1"></feGaussianBlur>
            <feComposite in="shadowBlurOuter1" in2="SourceAlpha" operator="out" result="shadowBlurOuter1"></feComposite>
            <feColorMatrix values="0 0 0 0 0   0 0 0 0 0   0 0 0 0 0  0 0 0 0.1 0" type="matrix" in="shadowBlurOuter1"></feColorMatrix>
        </filter>
    </defs>
    <g id="Login" stroke="none" stroke-width="1" fill="none" fill-rule="evenodd">
        <g id="login-onboarding-2" transform="translate(-43.000000, -213.000000)">
            <g id="Group" transform="translate(47.000000, 213.000000)">
                <g id="a-tag-rewards" transform="translate(0.000000, 5.000000)">
                    <path d="M97.5,0.5 C101.365993,0.5 104.865993,2.06700338 107.399495,4.60050506 C109.932997,7.13400675 111.5,10.6340068 111.5,14.5 L111.5,14.5 L111.5,17.5 C111.5,21.3659932 109.932997,24.8659932 107.399495,27.3994949 C104.865993,29.9329966 101.365993,31.5 97.5,31.5 L97.5,31.5 L14.5,31.5 C10.6340068,31.5 7.13400675,29.9329966 4.60050506,27.3994949 C2.06700338,24.8659932 0.5,21.3659932 0.5,17.5 L0.5,17.5 L0.5,14.5 C0.5,10.6340068 2.06700338,7.13400675 4.60050506,4.60050506 C7.13400675,2.06700338 10.6340068,0.5 14.5,0.5 L14.5,0.5 Z" id="Bg" stroke="#EE750F" fill="#F9D5B7"></path>
                    <g id="Star" transform="translate(15.000000, 8.000000)">
                        <mask id="mask-2" fill="white">
                            <use xlink:href="#path-1"></use>
                        </mask>
                        <g id="Security-check" fill-rule="nonzero"></g>
                        <g id="Group" mask="url(#mask-2)" fill="#282828">
                            <g id="🎨-color">
                                <rect id="color-source" x="0" y="0" width="16" height="16"></rect>
                            </g>
                        </g>
                    </g>
                    <text id="Rewards" font-family="HelveticaNeue-Medium, Helvetica Neue" font-size="12" font-weight="400" line-spacing="16" fill="#282828">
                        <tspan x="39" y="20">#Stay Safe</tspan>
                    </text>
                </g>
                <text id="Safety-measures-for" font-family="HelveticaNeue, Helvetica Neue" font-size="12" font-weight="normal" line-spacing="14" fill="#696969">
                    <tspan x="134" y="11">Safety measures for </tspan>
                    <tspan x="134" y="25">your safety while </tspan>
                    <tspan x="134" y="39">visiting to Salon</tspan>
                </text>
                <g id="m-card-measures" transform="translate(0.000000, 56.000000)">
                    <g id="Rectangle">
                        <use fill="black" fill-opacity="1" filter="url(#filter-4)" xlink:href="#path-3"></use>
                        <rect stroke="#D3D3D4" stroke-width="1" stroke-linejoin="square" fill="#FFFFFF" fill-rule="evenodd" x="0.5" y="0.5" width="236" height="59" rx="8"></rect>
                    </g>
                    <g id="icon" transform="translate(16.000000, 10.000000)">
                        <circle id="Oval" fill-opacity="0.5" fill="#F9D5B7" cx="20" cy="20" r="20"></circle>
                        <g id="Group" transform="translate(8.000000, 8.000000)" fill-rule="nonzero">
                            <g id="icon-mop">
                                <path d="M2.79454191,9.2288499 L2.79454191,11.6241715 L1.19766082,11.6241715 C0.757240267,11.6228562 0.400535624,11.2661516 0.399220273,10.825731 L0.399220273,10.0272904 C0.400535624,9.58686988 0.757240267,9.23016525 1.19766082,9.2288499 L2.79454191,9.2288499 Z" id="Shape" fill="#FF9801"></path>
                                <path d="M13.9727096,10.0272904 L13.9727096,10.825731 C13.9713942,11.2661516 13.6146896,11.6228562 13.174269,11.6241715 L7.58518519,11.6241715 L7.58518519,9.2288499 L13.174269,9.2288499 C13.6146896,9.23016525 13.9713942,9.58686988 13.9727096,10.0272904 Z" id="Shape" fill="#EE750F"></path>
                                <path d="M13.174269,9.2288499 L11.9766082,9.2288499 C12.4170288,9.23016525 12.7737334,9.58686988 12.7750487,10.0272904 L12.7750487,10.825731 C12.7737334,11.2661516 12.4170288,11.6228562 11.9766082,11.6241715 L13.174269,11.6241715 C13.6146896,11.6228562 13.9713942,11.2661516 13.9727096,10.825731 L13.9727096,10.0272904 C13.9713942,9.58686988 13.6146896,9.23016525 13.174269,9.2288499 Z" id="Shape" fill="#F57C00"></path>
                                <path d="M12.3758881,8.82962963 C12.3770474,8.96446117 12.3595818,9.0988116 12.3239298,9.2288499 L7.58518519,9.2288499 L7.58518519,16.0155945 C7.58192467,16.4552035 7.22635355,16.8107746 6.78674464,16.8140351 C6.34632408,16.8127197 5.98961944,16.4560151 5.98830409,16.0155945 L5.98830409,13.2210526 C5.98504358,12.7814437 5.62947246,12.4258726 5.18986355,12.4226121 C4.74944298,12.4239274 4.39273835,12.7806321 4.391423,13.2210526 L4.391423,14.4187135 C4.38816249,14.8583224 4.03259136,15.2138935 3.59298246,15.217154 C3.1525619,15.2158386 2.79585726,14.859134 2.79454191,14.4187135 L2.79454191,9.2288499 L2.13982066,9.2288499 C1.69096607,8.83654249 1.49866119,8.22648477 1.64140174,7.64769234 C1.78414229,7.06889991 2.23804673,6.61820897 2.81783868,6.47958416 C3.39763063,6.34095935 4.0063067,6.53759366 4.3954152,6.98922417 C4.98713075,6.00482195 6.12129766,5.4831902 7.2537918,5.67458523 C8.38628594,5.86598029 9.28604499,6.73135183 9.52140351,7.85553216 C9.93709561,7.31382834 10.6519876,7.09761204 11.2982145,7.31814263 C11.9444414,7.53867323 12.3780146,8.14681326 12.3758881,8.82962963 Z" id="Shape" fill="#F9D5B7"></path>
                                <path d="M10.7789474,7.23274854 C10.5744739,7.23327303 10.3720956,7.27396572 10.1833107,7.35251462 C10.7841877,7.59709121 11.1773803,8.18088455 11.1781676,8.82962963 C11.1793866,8.96446117 11.161921,9.0988116 11.126269,9.2288499 L12.3239298,9.2288499 C12.3595818,9.0988116 12.3770474,8.96446117 12.3758285,8.82962963 C12.3758285,7.94769656 11.6608804,7.23274854 10.7789474,7.23274854 Z" id="Shape" fill="#EE750F"></path>
                                <path d="M10.7789474,20.0077973 C10.5793372,21.6046784 10.9785575,22.502924 11.7769981,23.0019493 C11.4747215,23.3808947 11.0161683,23.601353 10.5314308,23.6007808 L3.84049903,23.6007808 C3.02039626,23.6007808 2.33361261,22.9795787 2.25160234,22.1635867 L1.19766082,11.6241715 L2.79454191,11.6241715 L2.79454191,14.4187135 C2.79585726,14.859134 3.1525619,15.2158386 3.59298246,15.217154 C4.03259136,15.2138935 4.38816249,14.8583224 4.391423,14.4187135 L4.391423,13.2210526 C4.39273835,12.7806321 4.74944298,12.4239274 5.18986355,12.4226121 C5.62947246,12.4258726 5.98504358,12.7814437 5.98830409,13.2210526 L5.98830409,16.0155945 C5.98961944,16.4560151 6.34632408,16.8127197 6.78674464,16.8140351 C7.22635355,16.8107746 7.58192467,16.4552035 7.58518519,16.0155945 L7.58518519,11.6241715 L13.174269,11.6241715 L12.7471033,15.8958285 C11.6543653,17.0111113 10.9622076,18.4572013 10.7789474,20.0077973 Z" id="Shape" fill="#E8E8E8"></path>
                                <path d="M12.7471033,15.8958285 L13.174269,11.6241715 L11.9766082,11.6241715 L11.5494425,15.8958285 C10.4567045,17.0111113 9.76454682,18.4572013 9.58128655,20.0077973 C9.38167641,21.6046784 9.78089669,22.502924 10.5793372,23.0019493 C10.2770607,23.3808947 9.81850747,23.601353 9.33376998,23.600782 L10.5314308,23.600782 C11.0161683,23.601353 11.4747215,23.3808947 11.7769981,23.0019493 C10.9785575,22.502924 10.5793372,21.6046784 10.7789474,20.0077973 C10.9622076,18.4572013 11.6543653,17.0111113 12.7471033,15.8958285 Z" id="Shape" fill="#FFA561"></path>
                                <path d="M21.0668538,23.6007821 L15.1703704,23.6007821 C13.7730994,23.6007821 12.5754386,23.5009747 11.7769981,23.0019493 C10.9785575,22.502924 10.5793372,21.6046784 10.7789474,20.0077973 C10.9622076,18.4572013 11.6543653,17.0111113 12.7471033,15.8958285 C13.7738662,14.8675167 14.9452958,13.9946604 16.2243119,13.3048889 C16.2322963,13.3088811 16.2402807,13.3088811 16.2482651,13.3128733 L19.1625731,14.2430565 L19.1625731,18.0116959 C19.1625731,19.9878363 20.5598441,21.9599844 21.3782456,22.9500507 C21.4753924,23.0698008 21.4948884,23.2347913 21.4283278,23.3738857 C21.3617673,23.5129802 21.2210527,23.6013055 21.0668538,23.6007821 L21.0668538,23.6007821 Z" id="Shape" fill="#F9D5B7"></path>
                                <path d="M21.3782456,22.9500507 C20.5598441,21.9599844 19.1625731,19.9878363 19.1625731,18.0116959 L19.1625731,14.2430565 L16.2482651,13.3128733 C16.2402807,13.3088811 16.2322963,13.3088811 16.2243119,13.3048889 C16.0824556,13.386596 15.9421962,13.4693676 15.8035337,13.5532039 L17.9649123,14.2430565 L17.9649123,18.0116959 C17.9649123,19.9878363 19.3621832,21.9599844 20.1805848,22.9500507 C20.2777316,23.0698008 20.2972276,23.2347913 20.230667,23.3738857 C20.1641065,23.5129802 20.0233919,23.6013055 19.869193,23.6007821 L21.0668538,23.6007821 C21.2210527,23.6013055 21.3617673,23.5129802 21.4283278,23.3738857 C21.4948884,23.2347913 21.4753924,23.0698008 21.3782456,22.9500507 Z" id="Shape" fill="#FFA561"></path>
                                <path d="M20.0328733,13.2649669 L19.7893489,14.0234854 C19.7583488,14.1245947 19.6880444,14.2090199 19.5942169,14.2578102 C19.5003895,14.3066005 19.3908992,14.3156684 19.2903236,14.2829786 L19.1625731,14.2430565 L16.2482651,13.3128733 C16.2402807,13.3088811 16.2322963,13.3088811 16.2243119,13.3048889 C16.0281605,13.2271453 15.9253644,13.0110991 15.9887719,12.8098558 L16.2322963,12.0513372 C16.2632964,11.950228 16.3336008,11.8658027 16.4274283,11.8170124 C16.5212558,11.7682221 16.630746,11.7591542 16.7313216,11.7918441 L19.7733801,12.7619493 C19.874655,12.7940121 19.9589751,12.865116 20.0076773,12.9595233 C20.0563794,13.0539306 20.0654471,13.1638551 20.0328733,13.2649669 Z" id="Shape" fill="#EE750F"></path>
                                <path d="M19.3945201,12.6405864 L22.7878924,2.00775361 C22.9889695,1.37761273 22.6411486,0.703776712 22.0110097,0.502693177 C21.3808689,0.301616082 20.7070329,0.649437008 20.5059493,1.27957583 L17.112577,11.9128078 L19.3945201,12.6405864 Z" id="Shape" fill="#9B9B9B"></path>
                                <path d="M22.0098121,0.502693177 C21.6890425,0.400959787 21.3401931,0.439833662 21.0496873,0.609684211 C21.5344454,0.891712674 21.7585777,1.47236619 21.5890339,2.00695517 L18.3074433,12.2932647 L19.3945201,12.6397879 L22.7878924,2.00695517 C22.9883511,1.37670975 22.6400177,0.703277048 22.0098121,0.502693177 Z" id="Shape" fill="#827E7E"></path>
                                <circle id="Oval" fill="#FF9801" cx="9.98050682" cy="14.0194932" r="1"></circle>
                                <circle id="Oval" fill="#EE750F" cx="6.78674464" cy="19.2093567" r="1"></circle>
                                <circle id="Oval" fill="#EE750F" cx="2.39532164" cy="3.63976608" r="1"></circle>
                                <circle id="Oval" fill="#EE750F" cx="13.174269" cy="4.43820663" r="1"></circle>
                                <g id="Group" fill="#4A4A4A">
                                    <path d="M6.78674464,18.0116959 C6.12529485,18.0116959 5.58908382,18.5479069 5.58908382,19.2093567 C5.58908382,19.8708065 6.12529485,20.4070175 6.78674464,20.4070175 C7.44819443,20.4070175 7.98440546,19.8708065 7.98440546,19.2093567 C7.98440546,18.5479069 7.44819443,18.0116959 6.78674464,18.0116959 Z M6.78674464,19.608577 C6.56626139,19.608577 6.38752437,19.42984 6.38752437,19.2093567 C6.38752437,18.9888735 6.56626139,18.8101365 6.78674464,18.8101365 C7.00722789,18.8101365 7.18596491,18.9888735 7.18596491,19.2093567 C7.18596491,19.42984 7.00722789,19.608577 6.78674464,19.608577 Z" id="Shape"></path>
                                    <path d="M23.5539961,23.2015595 L21.8597053,23.2015595 C21.8628973,23.0173529 21.8006558,22.8379839 21.6840483,22.6953481 C20.8915961,21.7380179 19.5617934,19.856892 19.5617934,18.0116959 L19.5617934,14.6774082 C19.8470224,14.6253028 20.0808312,14.4212181 20.1710035,14.1456468 L20.4145279,13.3851322 C20.4788156,13.1832731 20.460246,12.9641399 20.3629075,12.7759772 C20.2655691,12.5878145 20.0974421,12.4460489 19.8955415,12.3818916 L23.1671517,2.12911657 C23.4352593,1.28885483 22.9714368,0.390343914 22.131175,0.122236257 C21.2909133,-0.145871399 20.3924024,0.31795113 20.1242947,1.15821287 L16.853483,11.4109879 C16.4332604,11.278767 15.9851173,11.5105959 15.8502425,11.9299743 L15.6079158,12.6884928 C15.5554332,12.8547551 15.559363,13.0337006 15.619094,13.1974986 C14.7842408,13.6827042 13.9922505,14.2381659 13.2517177,14.8578558 L13.5419509,11.9575205 C14.0343744,11.7996081 14.3693314,11.3428485 14.3719298,10.825731 L14.3719298,10.0272904 C14.3719298,9.36584066 13.8357188,8.82962963 13.174269,8.82962963 L12.7750487,8.82962963 C12.7820346,8.2281684 12.5143175,7.65636097 12.0479023,7.27654352 C11.5814872,6.89672611 10.9673068,6.75037503 10.3797271,6.87903938 L10.3797271,4.03898635 C10.3797271,2.71608674 9.30730507,1.64366472 7.98440546,1.64366472 C6.66150585,1.64366472 5.58908382,2.71608674 5.58908382,4.03898635 L5.58908382,5.47298558 C5.09840825,5.67025752 4.66496937,5.98730748 4.3283462,6.39518441 C3.9961166,6.16146265 3.59996649,6.0357317 3.19376218,6.03508772 C2.52002924,6.0338463 1.89130064,6.37315886 1.52253932,6.93701406 C1.15377801,7.5008693 1.09493612,8.21288776 1.36613177,8.82962963 L1.19766082,8.82962963 C0.536211013,8.82962963 2.65934123e-15,9.36584066 2.65934123e-15,10.0272904 L2.65934123e-15,10.825731 C0.00173580575,11.3435854 0.336858306,11.8013766 0.829978947,11.9595166 L1.85437817,22.2035088 C1.95277742,23.2255716 2.81371945,24.0043132 3.84049903,24.0000178 L10.5314308,24.0000178 C11.0197802,24.0000178 11.4908891,23.819443 11.8544468,23.4933895 C12.6868211,23.8958035 13.8058355,24.0000178 15.1703704,24.0000178 L23.5539961,24.0000178 C23.7744794,24.0000178 23.9532164,23.821263 23.9532164,23.6007797 C23.9532164,23.3802965 23.7744794,23.2015595 23.5539961,23.2015595 Z M20.8848094,1.40093879 C20.9825453,1.09246312 21.2568021,0.873480136 21.5792596,0.846448293 C21.9017171,0.819416453 22.2086049,0.989681676 22.3563353,1.27757973 C22.4541444,1.46550424 22.4725501,1.68479121 22.4074355,1.88639064 L19.1354261,12.1391657 L17.6143969,11.6537138 L20.8848094,1.40093879 Z M16.6107571,12.1715025 L19.6532148,13.1412086 L19.4104889,13.9017232 L16.3680312,12.9320172 L16.6107571,12.1715025 Z M13.174269,9.62807018 C13.3947523,9.62807018 13.5734893,9.8068072 13.5734893,10.0272904 L13.5734893,10.825731 C13.5734893,11.0462142 13.3947523,11.2249513 13.174269,11.2249513 L10.3797271,11.2249513 L10.3797271,9.62807018 L13.174269,9.62807018 Z M7.98440546,9.62807018 L9.58128655,9.62807018 L9.58128655,11.2249513 L7.98440546,11.2249513 L7.98440546,9.62807018 Z M10.7789474,7.63196881 C11.4403972,7.63196881 11.9766082,8.16817984 11.9766082,8.82962963 L10.3797271,8.82962963 L10.3797271,7.71181287 C10.5070394,7.66182538 10.6422023,7.63479278 10.7789474,7.63196881 Z M6.38752437,4.03898635 C6.38752437,3.15705328 7.10247238,2.44210526 7.98440546,2.44210526 C8.86633853,2.44210526 9.58128655,3.15705328 9.58128655,4.03898635 L9.58128655,6.90219415 C8.9607172,5.74529316 7.68923289,5.09286276 6.38752437,5.26339493 L6.38752437,4.03898635 Z M1.99608482,8.03118908 C1.99347595,7.53095235 2.30355437,7.08232577 2.77243293,6.90797965 C3.24131149,6.73363357 3.76916666,6.87068601 4.0940039,7.25111267 C4.17768087,7.34736248 4.30230857,7.39783949 4.42938031,7.38694765 C4.55645208,7.3760558 4.67067179,7.30510613 4.73674854,7.19602027 C5.24355129,6.35212906 6.21544151,5.90469843 7.18611254,6.06840273 C8.15678362,6.232107 8.92817085,6.9735424 9.13016764,7.9369731 C9.16198594,8.0893659 9.27948856,8.20936193 9.43117973,8.24437271 C9.48058236,8.25493472 9.53157205,8.25574837 9.58128655,8.24676803 L9.58128655,8.82962963 L7.98440546,8.82962963 L7.98440546,8.43040936 C7.98440546,8.20992611 7.80566843,8.03118908 7.58518519,8.03118908 C7.36470194,8.03118908 7.18596491,8.20992611 7.18596491,8.43040936 L7.18596491,16.0155945 C7.18612276,16.1231223 7.14192772,16.2259553 7.06380351,16.2998394 C6.99098721,16.3743333 6.89091015,16.4158638 6.78674464,16.4148342 C6.56626139,16.4148342 6.38752437,16.2360778 6.38752437,16.0155945 L6.38752437,13.2210526 C6.38424844,12.5609645 5.84995167,12.0266677 5.18986355,12.0233918 C4.52841376,12.0233918 3.99220273,12.5596028 3.99220273,13.2210526 L3.99220273,14.4187135 C3.99236058,14.5262412 3.94816553,14.6290742 3.87004133,14.7029583 C3.79722501,14.7774522 3.69714798,14.8189827 3.59298246,14.8179337 C3.37249919,14.8179337 3.19376218,14.6391967 3.19376218,14.4187135 L3.19376218,8.43040936 C3.19376218,8.20992611 3.01502518,8.03118908 2.79454191,8.03118908 C2.57405864,8.03118908 2.39532164,8.20992611 2.39532164,8.43040936 L2.39532164,8.82962963 L2.31228382,8.82962963 C2.11122265,8.61208979 1.99848722,8.32740434 1.99608482,8.03118908 Z M0.798440546,10.0272904 C0.798440546,9.8068072 0.97717755,9.62807018 1.19766082,9.62807018 L2.39532164,9.62807018 L2.39532164,11.2249513 L1.19766082,11.2249513 C0.97717755,11.2249513 0.798440546,11.0462142 0.798440546,10.825731 L0.798440546,10.0272904 Z M10.5314308,23.2015721 L3.84049903,23.2015721 C3.22434466,23.2043737 2.70764951,22.7370113 2.64882651,22.1236647 L1.63879922,12.0233918 L2.39532164,12.0233918 L2.39532164,14.4187135 C2.39532164,15.0801632 2.93153265,15.6163743 3.59298246,15.6163743 C4.25289025,15.6126662 4.78693524,15.0786212 4.79064327,14.4187135 L4.79064327,13.2210526 C4.79064327,13.0005694 4.9693803,12.8218324 5.18986355,12.8218324 C5.29752998,12.8215644 5.40052829,12.8657685 5.4745076,12.9439938 C5.54854356,13.0170871 5.58986917,13.1170173 5.58908382,13.2210526 L5.58908382,16.0155945 C5.58908382,16.6770443 6.12529485,17.2132554 6.78674464,17.2132554 C7.44665244,17.2095473 7.98069742,16.6755023 7.98440546,16.0155945 L7.98440546,12.0233918 L9.58128655,12.0233918 L9.58128655,12.8952889 C9.03134198,13.0897237 8.70145613,13.6520773 8.80009404,14.2269812 C8.89873194,14.801885 9.39720253,15.2221151 9.98050682,15.2221151 C10.5638111,15.2221151 11.0622817,14.801885 11.1609196,14.2269812 C11.2595575,13.6520773 10.9296717,13.0897237 10.3797271,12.8952889 L10.3797271,12.0233918 L12.7351267,12.0233918 L12.365848,15.7141832 C11.2688312,16.8807578 10.5745667,18.3682076 10.384917,19.958294 C10.2224343,21.2585544 10.424839,22.211094 11.0077006,22.8698074 C11.0548086,22.9233029 11.1106994,22.9656203 11.1617996,23.0143251 C10.9735324,23.1349214 10.7550041,23.1998294 10.5314308,23.2015721 Z M10.3797271,14.0194932 C10.3797271,14.2399764 10.2009901,14.4187135 9.98050682,14.4187135 C9.76002357,14.4187135 9.58128655,14.2399764 9.58128655,14.0194932 C9.58128655,13.7990099 9.76002357,13.6202729 9.98050682,13.6202729 C10.2009901,13.6202729 10.3797271,13.7990099 10.3797271,14.0194932 Z M20.3602339,23.2015595 L18.4950768,23.2015595 C18.3842663,23.1249994 18.2693886,23.0545002 18.1509489,22.9903719 C17.4411353,22.5975392 16.3680312,22.0038986 16.3680312,20.0077973 C16.3680312,17.4388148 17.4399376,16.3070253 17.4487205,16.2978433 C17.6000139,16.1411977 17.5978502,15.8922016 17.4438574,15.7382089 C17.2898647,15.5842161 17.0408686,15.5820524 16.884223,15.7333458 C16.8303283,15.7868413 15.5695906,17.0815127 15.5695906,20.0077973 C15.5695906,21.7531883 16.3117411,22.6725926 16.9980008,23.2015595 L15.2813536,23.2015595 C14.496378,22.8064945 13.9124331,22.1010995 13.670899,21.2561591 C13.3068101,19.766269 14.2956788,18.2476351 14.3056593,18.2324647 C14.4263889,18.0489547 14.3761859,17.8023867 14.1933144,17.680692 C14.0104429,17.5589973 13.7636138,17.6079007 13.6409575,17.7901287 C13.5922526,17.8635852 12.4496842,19.6061817 12.8940164,21.4398004 C13.055585,22.0957286 13.4019759,22.6915209 13.8920671,23.1564476 C12.9247563,23.0766035 12.0740179,22.8718035 11.6061318,22.3420382 C11.1849544,21.8629739 11.0444288,21.1176296 11.17697,20.0576998 C11.5694035,16.9254175 13.8417653,15.1624608 16.2742144,13.740039 L18.7633528,14.5344873 L18.7633528,18.0116959 C18.7633528,20.1072031 20.2077318,22.1635867 21.067253,23.2015595 L20.3602339,23.2015595 Z" id="Shape"></path>
                                    <path d="M3.59298246,3.63976608 C3.59298246,2.97831628 3.05677144,2.44210526 2.39532164,2.44210526 C1.73387183,2.44210526 1.19766082,2.97831628 1.19766082,3.63976608 C1.19766082,4.30121587 1.73387183,4.8374269 2.39532164,4.8374269 C2.71296104,4.8374269 3.01759075,4.71124515 3.24219572,4.48664015 C3.4668007,4.26203519 3.59298246,3.95740549 3.59298246,3.63976608 Z M1.99610136,3.63976608 C1.99610136,3.41928281 2.17483837,3.24054581 2.39532164,3.24054581 C2.61580491,3.24054581 2.79454191,3.41928281 2.79454191,3.63976608 C2.79454191,3.86024933 2.61580491,4.03898635 2.39532164,4.03898635 C2.17483837,4.03898635 1.99610136,3.86024933 1.99610136,3.63976608 Z" id="Shape"></path>
                                    <path d="M13.174269,5.63586745 C13.8357188,5.63586745 14.3719298,5.09965641 14.3719298,4.43820663 C14.3719298,3.77675684 13.8357188,3.24054581 13.174269,3.24054581 C12.5128192,3.24054581 11.9766082,3.77675684 11.9766082,4.43820663 C11.9766082,5.09965641 12.5128192,5.63586745 13.174269,5.63586745 Z M13.174269,4.03898635 C13.3947523,4.03898635 13.5734893,4.21772338 13.5734893,4.43820663 C13.5734893,4.65868988 13.3947523,4.8374269 13.174269,4.8374269 C12.9537858,4.8374269 12.7750487,4.65868988 12.7750487,4.43820663 C12.7750487,4.21772338 12.9537858,4.03898635 13.174269,4.03898635 Z" id="Shape"></path>
                                    <circle id="Oval" cx="11.5773879" cy="1.64366472" r="1"></circle>
                                    <circle id="Oval" cx="4.79064327" cy="1.64366472" r="1"></circle>
                                </g>
                            </g>
                        </g>
                    </g>
                    <g id="Group-4" transform="translate(64.000000, 12.000000)" font-family="HelveticaNeue, Helvetica Neue" font-weight="normal" line-spacing="16">
                        <text id="SALON-SAFETY-MEASURE" font-size="12" fill="#696969">
                            <tspan x="0" y="11">SALON SAFETY MEASURES</tspan>
                        </text>
                        <text id="Well-Sanitized-Ambie" font-size="14" fill="#282828">
                            <tspan x="0" y="33">Well Sanitized Ambience</tspan>
                        </text>
                    </g>
                </g>
                <g id="Group-6" transform="translate(0.000000, 132.000000)">
                    <g id="m-card-measures">
                        <g id="Rectangle">
                            <use fill="black" fill-opacity="1" filter="url(#filter-6)" xlink:href="#path-5"></use>
                            <rect stroke="#D3D3D4" stroke-width="1" stroke-linejoin="square" fill="#FFFFFF" fill-rule="evenodd" x="0.5" y="0.5" width="232" height="59" rx="8"></rect>
                        </g>
                        <g id="icon" transform="translate(16.000000, 10.000000)" fill="#F9D5B7" fill-opacity="0.5">
                            <circle id="Oval" cx="20" cy="20" r="20"></circle>
                        </g>
                        <g id="Group-4" transform="translate(64.000000, 12.000000)" font-family="HelveticaNeue, Helvetica Neue" font-weight="normal" line-spacing="16">
                            <text id="SALON-SAFETY-MEASURE" font-size="12" fill="#696969">
                                <tspan x="0" y="11">SALON SAFETY MEASURES</tspan>
                            </text>
                            <text id="Daily-Temperature-ch" font-size="14" fill="#282828">
                                <tspan x="0" y="33">Daily Temperature checks</tspan>
                            </text>
                        </g>
                    </g>
                    <g id="Group" transform="translate(28.000000, 18.000000)" fill-rule="nonzero">
                        <g id="thermometer">
                            <g id="Group" transform="translate(0.387097, 0.387097)">
                                <path d="M4.64516129,21.6774194 L10.0645161,21.6774194 C9.83612903,22.5870968 9.01935484,23.2258065 8.08258065,23.2258065 L3.53032258,23.2258065 C2.59354839,23.2258065 1.77677419,22.5870968 1.5483871,21.6774194 L4.64516129,21.6774194 Z" id="Path" fill="#FFA561"></path>
                                <path d="M7.74193548,3.09677419 L7.74193548,7.74193548 C7.74193548,8.16774194 7.39354839,8.51612903 6.96774194,8.51612903 L6.19354839,8.51612903 L6.19354839,3.09677419 C6.19354839,1.38580645 4.80774194,0 3.09677419,0 L4.64516129,0 C5.43096774,0 6.14709677,0.294193548 6.69290323,0.774193548 C7.33548387,1.33935484 7.74193548,2.1716129 7.74193548,3.09677419 Z" id="Path" fill="#FFA561"></path>
                                <path d="M6.19354839,3.09677419 L6.19354839,8.51612903 L1.5483871,8.51612903 L0.774193548,8.51612903 C0.348387097,8.51612903 0,8.16774194 0,7.74193548 L0,3.09677419 C0,2.24129032 0.348387097,1.46709677 0.905806452,0.905806452 C1.46709677,0.348387097 2.24129032,0 3.09677419,0 C4.80774194,0 6.19354839,1.38580645 6.19354839,3.09677419 Z" id="Path" fill="#E6E9ED"></path>
                                <path d="M4.64516129,2.70967742 L4.64516129,5.03225806 C4.64516129,5.24516129 4.47096774,5.41935484 4.25806452,5.41935484 L1.93548387,5.41935484 C1.72258065,5.41935484 1.5483871,5.24516129 1.5483871,5.03225806 L1.5483871,2.70967742 C1.5483871,2.49677419 1.72258065,2.32258065 1.93548387,2.32258065 L4.25806452,2.32258065 C4.47096774,2.32258065 4.64516129,2.49677419 4.64516129,2.70967742 Z" id="Path" fill="#EE750F"></path>
                                <path d="M17.0322581,0.774193548 L17.0322581,7.77677419 L12.8516129,8.91870968 C11.2064516,9.36774194 10.0645161,10.8619355 10.0645161,12.5651613 C10.0645161,12.7045161 10.0722581,12.843871 10.0877419,12.9832258 L10.8270968,19.6219355 C10.8348387,19.7032258 10.8387097,19.7806452 10.8387097,19.8619355 C10.8387097,20.2877419 10.7109677,20.7058065 10.4748387,21.0619355 L10.0645161,21.6774194 L4.64516129,21.6774194 C4.89677419,18.6425806 6,15.7393548 7.82709677,13.3045161 L8.28387097,12.6967742 C8.43483871,12.4954839 8.51612903,12.2516129 8.51612903,12 C8.51612903,11.6787097 8.38451613,11.3883871 8.17548387,11.1793548 C7.96645161,10.9703226 7.67612903,10.8387097 7.35483871,10.8387097 C7.09935484,10.8387097 6.84774194,10.8967742 6.62322581,11.0129032 L4.37419355,12.1354839 C4.04129032,12.3019355 3.67741935,12.3870968 3.30967742,12.3870968 C2.67870968,12.3870968 2.07096774,12.1354839 1.62580645,11.6903226 L1.49032258,11.5548387 C1.52903226,10.5445161 1.5483871,9.53032258 1.5483871,8.51612903 L6.19354839,8.51612903 L6.96774194,8.51612903 C7.39354839,8.51612903 7.74193548,8.16774194 7.74193548,7.74193548 L7.74193548,3.09677419 C7.74193548,2.1716129 7.33548387,1.33935484 6.69290323,0.774193548 L17.0322581,0.774193548 Z" id="Path" fill="#FFFFFF"></path>
                                <path d="M1.09935484,17.0322581 C1.29290323,15.2090323 1.42064516,13.3858065 1.49032258,11.5548387 L1.62580645,11.6903226 C2.07096774,12.1354839 2.67870968,12.3870968 3.30967742,12.3870968 C3.67741935,12.3870968 4.04129032,12.3019355 4.37419355,12.1354839 L6.62322581,11.0129032 C6.84774194,10.8967742 7.09935484,10.8387097 7.35483871,10.8387097 C7.67612903,10.8387097 7.96645161,10.9703226 8.17548387,11.1793548 C8.38451613,11.3883871 8.51612903,11.6787097 8.51612903,12 C8.51612903,12.2516129 8.43483871,12.4954839 8.28387097,12.6967742 L7.82709677,13.3045161 C6,15.7393548 4.89677419,18.6425806 4.64516129,21.6774194 L1.5483871,21.6774194 L1.13032258,21.0503226 C0.944516129,20.7754839 0.828387097,20.4580645 0.789677419,20.1290323 C0.778064516,20.043871 0.774193548,19.9587097 0.774193548,19.8735484 C0.774193548,19.7845161 0.778064516,19.6993548 0.789677419,19.6103226 L0.921290323,18.5806452 L0.92516129,18.5419355 C0.987096774,18.0387097 1.04516129,17.5354839 1.09935484,17.0322581 L1.09935484,17.0322581 Z" id="Path" fill="#F9D5B7"></path>
                                <path d="M18.5806452,1.5483871 L18.5806452,6.76258065 C18.5806452,7.11096774 18.3483871,7.41677419 18.0116129,7.50967742 L17.0322581,7.77677419 L17.0322581,0.774193548 L17.8064516,0.774193548 C18.2322581,0.774193548 18.5806452,1.12258065 18.5806452,1.5483871 Z" id="Path" fill="#FFA561"></path>
                                <path d="M15.483871,3.09677419 L15.483871,4.40516129 C15.483871,4.77290323 15.2283871,5.08645161 14.8722581,5.16387097 L10.1380645,6.17806452 C10.0877419,6.18967742 10.0412903,6.19354839 9.99096774,6.19354839 C9.60387097,6.19354839 9.29032258,5.88 9.29032258,5.49290323 L9.29032258,3.09677419 C9.29032258,2.67096774 9.63870968,2.32258065 10.0645161,2.32258065 L14.7096774,2.32258065 C15.1354839,2.32258065 15.483871,2.67096774 15.483871,3.09677419 Z" id="Path" fill="#F9D5B7"></path>
                            </g>
                            <path d="M2.32258065,6.19354839 L4.64516129,6.19354839 C5.07212903,6.19354839 5.41935484,5.84632258 5.41935484,5.41935484 L5.41935484,3.09677419 C5.41935484,2.66980645 5.07212903,2.32258065 4.64516129,2.32258065 L2.32258065,2.32258065 C1.8956129,2.32258065 1.5483871,2.66980645 1.5483871,3.09677419 L1.5483871,5.41935484 C1.5483871,5.84632258 1.8956129,6.19354839 2.32258065,6.19354839 Z M2.32258065,3.09677419 L4.64516129,3.09677419 L4.64554839,5.41935484 L2.32258065,5.41935484 L2.32258065,3.09677419 Z" id="Shape" fill="#4A4A4A"></path>
                            <polygon id="Path" fill="#4A4A4A" points="3.09677419 6.96774194 3.87096774 6.96774194 3.87096774 7.74193548 3.09677419 7.74193548"></polygon>
                            <polygon id="Path" fill="#4A4A4A" points="4.64516129 6.96774194 5.41935484 6.96774194 5.41935484 7.74193548 4.64516129 7.74193548"></polygon>
                            <polygon id="Path" fill="#4A4A4A" points="1.5483871 6.96774194 2.32258065 6.96774194 2.32258065 7.74193548 1.5483871 7.74193548"></polygon>
                            <path d="M1.16129032,9.29032258 L1.54219355,9.29032258 C1.52670968,12.4869677 1.32309677,15.7107097 0.927096774,18.8806452 L0.793548387,19.9498065 C0.780774194,20.0527742 0.774193548,20.1569032 0.774193548,20.2610323 C0.774193548,20.7576774 0.919741935,21.2388387 1.19535484,21.6522581 L1.58825806,22.2414194 C1.88825806,23.2796129 2.83083871,24 3.91858065,24 L8.46851613,24 C9.55625806,24 10.4988387,23.2796129 10.7988387,22.2414194 L11.1847742,21.6623226 C11.4650323,21.2423226 11.6129032,20.7534194 11.6129032,20.2486452 C11.6129032,20.1545806 11.607871,20.0605161 11.5970323,19.9672258 L10.8592258,13.3269677 C10.8456774,13.2023226 10.8387097,13.0772903 10.8387097,12.951871 C10.8387097,11.4259355 11.8668387,10.08 13.3389677,9.67819355 L18.4989677,8.27070968 C19.0025806,8.13329032 19.3544516,7.67264516 19.3544516,7.15006452 L19.3544516,1.93548387 C19.3544516,1.29522581 18.8334194,0.774193548 18.1931613,0.774193548 L7.21703226,0.774193548 C6.61896774,0.291096774 5.85909677,-1.375244e-15 5.03225806,-1.375244e-15 L3.48387097,-1.375244e-15 C1.56309677,-1.375244e-15 0,1.56309677 0,3.48387097 L0,8.12903226 C0,8.76929032 0.521032258,9.29032258 1.16129032,9.29032258 Z M2.14258065,21.6774194 L1.83948387,21.2229677 C1.77212903,21.1223226 1.72064516,21.0143226 1.67612903,20.9032258 L3.09677419,20.9032258 L3.09677419,20.1290323 L1.55651613,20.1290323 C1.55845161,20.1015484 1.55845161,20.0736774 1.56154839,20.0461935 L1.64825806,19.3548387 L3.87096774,19.3548387 L3.87096774,18.5806452 L1.73883871,18.5806452 C1.76980645,18.3232258 1.79496774,18.0646452 1.82322581,17.8064516 L4.64516129,17.8064516 L4.64516129,17.0322581 L1.9076129,17.0322581 C2.05122581,15.6042581 2.15380645,14.1700645 2.22193548,12.7343226 C2.65935484,13.0110968 3.16567742,13.1612903 3.696,13.1612903 C4.12374194,13.1612903 4.55187097,13.0602581 4.93393548,12.8690323 L7.18141935,11.7452903 C7.35483871,11.6585806 7.5483871,11.6129032 7.74193548,11.6129032 C8.16890323,11.6129032 8.51612903,11.960129 8.51612903,12.3870968 C8.51612903,12.5535484 8.46116129,12.7184516 8.36129032,12.8516129 L7.90683871,13.4581935 C6.10490323,15.860129 5.00167742,18.696 4.68851613,21.6774194 L2.14258065,21.6774194 Z M8.46851613,23.2258065 L3.91858065,23.2258065 C3.33677419,23.2258065 2.81535484,22.9230968 2.51845161,22.4516129 L9.86864516,22.4516129 C9.57174194,22.9230968 9.05032258,23.2258065 8.46851613,23.2258065 Z M13.1353548,8.93148387 C11.3272258,9.42464516 10.0645161,11.0779355 10.0645161,12.951871 C10.0645161,13.1055484 10.0730323,13.2592258 10.0900645,13.412129 L10.827871,20.0531613 C10.8352258,20.1181935 10.8387097,20.1832258 10.8387097,20.2486452 C10.8387097,20.600129 10.7357419,20.9407742 10.5406452,21.2330323 L10.2445161,21.6774194 L5.46774194,21.6774194 C5.77780645,18.8651613 6.82451613,16.1907097 8.52580645,13.9227097 L8.98064516,13.316129 C9.1803871,13.0498065 9.29032258,12.72 9.29032258,12.3870968 C9.29032258,11.5331613 8.59587097,10.8387097 7.74193548,10.8387097 C7.42916129,10.8387097 7.1156129,10.9126452 6.83535484,11.0527742 L4.58748387,12.1765161 C4.31225806,12.3143226 4.00412903,12.3870968 3.696,12.3870968 C3.16335484,12.3870968 2.66283871,12.1796129 2.28580645,11.8029677 L2.26606452,11.7832258 C2.29587097,10.9509677 2.31212903,10.119871 2.3163871,9.28993548 L7.35483871,9.28993548 C7.99509677,9.28993548 8.51612903,8.76890323 8.51612903,8.12864516 L8.51612903,3.48387097 C8.51612903,2.76812903 8.29858065,2.10232258 7.92696774,1.5483871 L17.0322581,1.5483871 L17.0322581,7.86851613 L13.1353548,8.93148387 Z M18.5806452,1.93548387 L18.5806452,7.15045161 C18.5806452,7.32464516 18.4633548,7.47832258 18.2953548,7.524 L17.8064516,7.65754839 L17.8064516,1.5483871 L18.1935484,1.5483871 C18.4068387,1.5483871 18.5806452,1.72219355 18.5806452,1.93548387 Z M7.74193548,3.48387097 L7.74193548,8.12903226 C7.74193548,8.34232258 7.56812903,8.51612903 7.35483871,8.51612903 L6.96774194,8.51612903 L6.96774194,3.48387097 C6.96774194,2.45225806 6.51716129,1.5243871 5.80258065,0.885677419 C6.92245161,1.21819355 7.74193548,2.25716129 7.74193548,3.48387097 Z M0.774193548,3.48387097 C0.774193548,1.98967742 1.98967742,0.774193548 3.48387097,0.774193548 C4.97806452,0.774193548 6.19354839,1.98967742 6.19354839,3.48387097 L6.19354839,8.51612903 L1.16129032,8.51612903 C0.948,8.51612903 0.774193548,8.34232258 0.774193548,8.12903226 L0.774193548,3.48387097 Z" id="Shape" fill="#4A4A4A"></path>
                            <path d="M15.0967742,2.32258065 L10.4516129,2.32258065 C9.81135484,2.32258065 9.29032258,2.8436129 9.29032258,3.48387097 L9.29032258,5.8803871 C9.29032258,6.48 9.77806452,6.96774194 10.3776774,6.96774194 C10.4531613,6.96774194 10.5298065,6.9596129 10.6052903,6.94374194 L15.339871,5.92877419 C15.8717419,5.81496774 16.2580645,5.33767742 16.2580645,4.79341935 L16.2580645,3.48387097 C16.2580645,2.8436129 15.7370323,2.32258065 15.0967742,2.32258065 Z M15.483871,4.79341935 C15.483871,4.97458065 15.3549677,5.13367742 15.1776774,5.172 L10.443871,6.18619355 C10.2456774,6.2283871 10.0645161,6.07509677 10.0645161,5.8803871 L10.0645161,3.48387097 C10.0645161,3.27058065 10.2383226,3.09677419 10.4516129,3.09677419 L15.0967742,3.09677419 C15.3100645,3.09677419 15.483871,3.27058065 15.483871,3.48387097 L15.483871,4.79341935 Z" id="Shape" fill="#4A4A4A"></path>
                            <polygon id="Path" fill="#4A4A4A" points="10.8387097 3.87096774 11.6129032 3.87096774 11.6129032 4.64516129 10.8387097 4.64516129"></polygon>
                            <polygon id="Path" fill="#4A4A4A" points="12.3870968 3.87096774 13.1612903 3.87096774 13.1612903 4.64516129 12.3870968 4.64516129"></polygon>
                            <polygon id="Path" fill="#4A4A4A" points="13.9354839 3.87096774 14.7096774 3.87096774 14.7096774 4.64516129 13.9354839 4.64516129"></polygon>
                        </g>
                    </g>
                </g>
            </g>
        </g>
    </g>
</svg>