<?xml version="1.0" encoding="UTF-8"?>
<svg width="224px" height="289px" viewBox="0 0 224 289" version="1.1" xmlns="http://www.w3.org/2000/svg" xmlns:xlink="http://www.w3.org/1999/xlink">
    <title>27F94370-1447-421F-8535-BBB4BFADC7ED</title>
    <defs>
        <rect id="path-1" x="0" y="0" width="203" height="269" rx="31"></rect>
        <filter x="-9.6%" y="-3.9%" width="119.2%" height="114.5%" filterUnits="objectBoundingBox" id="filter-2">
            <feOffset dx="0" dy="9" in="SourceAlpha" result="shadowOffsetOuter1"></feOffset>
            <feGaussianBlur stdDeviation="5" in="shadowOffsetOuter1" result="shadowBlurOuter1"></feGaussianBlur>
            <feColorMatrix values="0 0 0 0 0   0 0 0 0 0   0 0 0 0 0  0 0 0 0.1 0" type="matrix" in="shadowBlurOuter1"></feColorMatrix>
        </filter>
    </defs>
    <g id="Login" stroke="none" stroke-width="1" fill="none" fill-rule="evenodd">
        <g id="login-onboarding-2-copy" transform="translate(-76.000000, -173.000000)">
            <g id="Group-7-Copy" transform="translate(86.000000, 174.000000)">
                <g id="Group-5" transform="translate(0.942169, 0.000000)">
                    <g id="Rectangle">
                        <use fill="black" fill-opacity="1" filter="url(#filter-2)" xlink:href="#path-1"></use>
                        <use fill="#FFFFFF" fill-rule="evenodd" xlink:href="#path-1"></use>
                    </g>
                    <path d="M47.865776,58.4547284 L47.865776,55.1920885 L50.1285493,55.1920885 C50.7319556,55.1920885 51.224208,55.1067518 51.6053067,54.9360785 C51.9864053,54.7654051 52.2801689,54.5490865 52.4865973,54.2871227 C52.6930258,54.025159 52.8339529,53.7413649 52.9093787,53.4357404 C52.9848044,53.130116 53.0225173,52.8463219 53.0225173,52.5843581 C53.0225173,52.3223944 52.9848044,52.0366157 52.9093787,51.7270221 C52.8339529,51.4174286 52.6930258,51.1316499 52.4865973,50.8696861 C52.2801689,50.6077223 51.9864053,50.3894192 51.6053067,50.2147767 C51.224208,50.0401341 50.7319556,49.9528129 50.1285493,49.9528129 L50.1285493,49.9528129 L46.3771093,49.9528129 L46.3771093,58.4547284 L47.865776,58.4547284 Z M50.045184,53.9775292 L47.865776,53.9775292 L47.865776,51.1673722 L50.0690027,51.1673722 C50.2674916,51.1673722 50.4540711,51.187218 50.6287413,51.2269095 C50.8034116,51.2666009 50.9582329,51.3400302 51.0932053,51.4471972 C51.2281778,51.5543642 51.3353618,51.6992381 51.4147573,51.8818189 C51.4941529,52.0643997 51.5338507,52.2946103 51.5338507,52.5724507 C51.5338507,52.8423528 51.4881982,53.0666097 51.3968933,53.2452213 C51.3055884,53.423833 51.1864951,53.5667223 51.0396133,53.6738893 C50.8927316,53.7810563 50.7319556,53.8584547 50.5572853,53.9060845 C50.3826151,53.9537143 50.2119147,53.9775292 50.045184,53.9775292 L50.045184,53.9775292 Z M59.084368,58.6214326 C59.1399449,58.6214326 59.2074311,58.6174634 59.2868267,58.6095252 C59.3662222,58.6015869 59.4456178,58.5896794 59.5250133,58.5738028 C59.6044089,58.5579262 59.6818196,58.5400651 59.7572453,58.5202193 C59.8326711,58.5003736 59.8942027,58.4825124 59.94184,58.4666358 L59.94184,58.4666358 L59.94184,57.5259477 C59.870384,57.5418243 59.8068676,57.5497626 59.7512907,57.5497626 L59.7512907,57.5497626 L59.6083787,57.5497626 C59.4813458,57.5497626 59.3959956,57.5140402 59.352328,57.4425956 C59.3086604,57.3711509 59.2868267,57.2520765 59.2868267,57.0853722 L59.2868267,57.0853722 L59.2868267,53.917992 C59.2868267,53.5925218 59.2153707,53.316666 59.0724587,53.0904245 C58.9295467,52.8641831 58.7409822,52.6796177 58.5067653,52.5367284 C58.2725484,52.393839 58.0085582,52.2906412 57.7147947,52.2271348 C57.4210311,52.1636284 57.1232978,52.1318753 56.8215947,52.1318753 C56.4801938,52.1318753 56.1467324,52.1636284 55.8212107,52.2271348 C55.4956889,52.2906412 55.2039102,52.4017773 54.9458747,52.5605433 C54.6878391,52.7193092 54.475456,52.929674 54.3087253,53.1916378 C54.1419947,53.4536016 54.04672,53.7830409 54.0229013,54.1799557 L54.0229013,54.1799557 L55.3805653,54.1799557 C55.4123236,53.8465473 55.5512658,53.6004601 55.797392,53.4416942 C56.0435182,53.2829282 56.3571307,53.2035453 56.7382293,53.2035453 C56.8732018,53.2035453 57.0161138,53.2134681 57.1669653,53.2333139 C57.3178169,53.2531596 57.4547742,53.2928511 57.5778373,53.3523883 C57.7009004,53.4119256 57.8041147,53.4972622 57.88748,53.6083984 C57.9708453,53.7195345 58.012528,53.8624239 58.012528,54.0370664 C58.012528,54.2355238 57.9629058,54.3843669 57.8636613,54.4835956 C57.7644169,54.5828243 57.6294444,54.6562535 57.458744,54.7038833 C57.2880436,54.7515131 57.0915396,54.7852508 56.869232,54.8050966 C56.6469244,54.8249423 56.4127076,54.8586801 56.1665813,54.9063099 C55.8807573,54.938063 55.5969182,54.9837082 55.315064,55.0432455 C55.0332098,55.1027827 54.779144,55.2000268 54.5528667,55.3349779 C54.3265893,55.4699289 54.1439796,55.6564789 54.0050373,55.8946278 C53.8660951,56.1327767 53.796624,56.4423702 53.796624,56.8234085 C53.796624,57.1250637 53.8541858,57.3890121 53.9693093,57.6152535 C54.0844329,57.841495 54.2392542,58.0280449 54.4337733,58.1749034 C54.6282924,58.3217619 54.8525849,58.4328981 55.1066507,58.5083119 C55.3607164,58.5837257 55.6266916,58.6214326 55.904576,58.6214326 C56.2697956,58.6214326 56.6489093,58.5618954 57.0419173,58.4428209 C57.4349253,58.3237465 57.7664018,58.1332274 58.0363467,57.8712636 C58.0919236,58.149104 58.2110169,58.3435922 58.3936267,58.4547284 C58.5762364,58.5658645 58.8064836,58.6214326 59.084368,58.6214326 Z M56.404768,57.5497626 C56.2856747,57.5497626 56.1526871,57.5378551 56.0058053,57.5140402 C55.8589236,57.4902254 55.7239511,57.4485493 55.600888,57.3890121 C55.4778249,57.3294748 55.3726258,57.2481073 55.2852907,57.1449095 C55.1979556,57.0417116 55.154288,56.9146989 55.154288,56.7638712 C55.154288,56.5892287 55.1840613,56.4403856 55.243608,56.3173421 C55.3031547,56.1942985 55.3845351,56.0950698 55.4877493,56.0196559 C55.5909636,55.9442421 55.7100569,55.8847049 55.8450293,55.8410443 C55.9800018,55.7973836 56.118944,55.7636459 56.261856,55.739831 C56.5635591,55.6842629 56.8652622,55.6425869 57.1669653,55.6148028 C57.4686684,55.5870188 57.7227342,55.5056512 57.9291627,55.3707002 L57.9291627,55.3707002 L57.9291627,56.382833 C57.9291627,56.597167 57.8775556,56.7777632 57.7743413,56.9246217 C57.6711271,57.0714802 57.5421093,57.1925392 57.387288,57.2877988 C57.2324667,57.3830584 57.0677209,57.4505339 56.8930507,57.4902254 C56.7183804,57.5299168 56.5556196,57.5497626 56.404768,57.5497626 Z M61.5972373,60.8957545 C61.9545173,60.8957545 62.2482809,60.8382019 62.478528,60.7230966 C62.7087751,60.6079913 62.9013093,60.4531945 63.0561307,60.2587062 C63.210952,60.064218 63.3419547,59.8399611 63.4491387,59.5859356 C63.5563227,59.3319101 63.6654916,59.0659772 63.7766453,58.7881368 L63.7766453,58.7881368 L66.1704213,52.2985795 L64.7532107,52.2985795 L63.193088,56.8948531 L63.1692693,56.8948531 L61.5615093,52.2985795 L60.0728427,52.2985795 L62.407072,58.4309135 L62.2522507,58.9072113 C62.2125529,59.0421623 62.1688853,59.1612368 62.121248,59.2644346 C62.0736107,59.3676325 62.0160489,59.4569383 61.9485627,59.5323521 C61.8810764,59.6077659 61.7957262,59.6653186 61.692512,59.7050101 C61.5892978,59.7447015 61.4582951,59.7645473 61.299504,59.7645473 C61.1883502,59.7645473 61.0811662,59.7546244 60.977952,59.7347787 C60.8747378,59.7149329 60.7675538,59.6970718 60.6564,59.6811952 L60.6564,59.6811952 L60.6564,60.8243099 C60.9660427,60.8719396 61.2796551,60.8957545 61.5972373,60.8957545 Z M68.2902827,58.4547284 L68.2902827,54.7991429 C68.2902827,54.5451174 68.3279956,54.3188759 68.4034213,54.1204185 C68.4788471,53.9219611 68.5780916,53.7552569 68.7011547,53.6203058 C68.8242178,53.4853548 68.9671298,53.3821569 69.1298907,53.3107123 C69.2926516,53.2392676 69.4613671,53.2035453 69.6360373,53.2035453 C70.0488942,53.2035453 70.3327333,53.3126968 70.4875547,53.531 C70.642376,53.7493032 70.7197867,54.0727887 70.7197867,54.5014567 L70.7197867,54.5014567 L70.7197867,58.4547284 L72.0774507,58.4547284 L72.0774507,54.8467726 C72.0774507,54.3228451 72.1806649,53.917992 72.3870933,53.6322133 C72.5935218,53.3464346 72.9269831,53.2035453 73.3874773,53.2035453 C73.6494827,53.2035453 73.8559111,53.2432368 74.0067627,53.3226197 C74.1576142,53.4020027 74.2707529,53.5151234 74.3461787,53.6619819 C74.4216044,53.8088404 74.4672569,53.9834829 74.483136,54.1859095 C74.4990151,54.388336 74.5069547,54.6125929 74.5069547,54.8586801 L74.5069547,54.8586801 L74.5069547,58.4547284 L75.8646187,58.4547284 L75.8646187,54.2037706 C75.8646187,53.4575708 75.6839938,52.9257049 75.322744,52.608173 C74.9614942,52.2906412 74.4553476,52.1318753 73.804304,52.1318753 C73.3517493,52.1318753 72.9746204,52.2231657 72.6729173,52.4057465 C72.3712142,52.5883273 72.1052391,52.8383836 71.874992,53.1559155 C71.7400196,52.8066304 71.5117573,52.5486358 71.1902053,52.3819316 C70.8686533,52.2152274 70.5212978,52.1318753 70.1481387,52.1318753 C69.9020124,52.1318753 69.6836747,52.1576747 69.4931253,52.2092736 C69.302576,52.2608726 69.1338604,52.3303327 68.9869787,52.4176539 C68.8400969,52.5049752 68.7071093,52.6121422 68.588016,52.7391549 C68.4689227,52.8661677 68.3577689,53.0050879 68.2545547,53.1559155 L68.2545547,53.1559155 L68.2188267,53.1559155 L68.2188267,52.2985795 L66.9326187,52.2985795 L66.9326187,58.4547284 L68.2902827,58.4547284 Z M80.0090667,58.6214326 C80.342528,58.6214326 80.6620951,58.5757874 80.967768,58.484497 C81.2734409,58.3932066 81.5493404,58.2582555 81.7954667,58.0796439 C82.0415929,57.9010322 82.2519911,57.6807445 82.4266613,57.4187807 C82.6013316,57.1568169 82.7243947,56.8591308 82.7958507,56.5257223 L82.7958507,56.5257223 L81.5096427,56.5257223 C81.3905493,56.8670691 81.2099244,57.1230791 80.967768,57.2937525 C80.7256116,57.4644259 80.4060444,57.5497626 80.0090667,57.5497626 C79.7232427,57.5497626 79.4771164,57.5001482 79.270688,57.4009195 C79.0642596,57.3016908 78.8935591,57.1687243 78.7585867,57.0020201 C78.6236142,56.8353159 78.5223849,56.6408276 78.4548987,56.4185553 C78.3874124,56.196283 78.3536693,55.9660724 78.3536693,55.7279235 L78.3536693,55.7279235 L82.879216,55.7279235 C82.9347929,55.2675023 82.9050196,54.8209732 82.789896,54.388336 C82.6747724,53.9556989 82.4901778,53.5726761 82.236112,53.2392676 C81.9820462,52.9058592 81.6624791,52.6379416 81.2774107,52.4355151 C80.8923422,52.2330885 80.4576516,52.1318753 79.9733387,52.1318753 C79.5128444,52.1318753 79.0999876,52.2191965 78.734768,52.393839 C78.3695484,52.5684816 78.0579209,52.8046459 77.7998853,53.102332 C77.5418498,53.4000181 77.3433609,53.745334 77.2044187,54.1382797 C77.0654764,54.5312254 76.9960053,54.9460013 76.9960053,55.3826076 C76.9960053,55.8589054 77.0615067,56.2955117 77.1925093,56.6924266 C77.323512,57.0893414 77.5180311,57.4306881 77.7760667,57.7164668 C78.0341022,58.0022455 78.3496996,58.2245178 78.7228587,58.3832837 C79.0960178,58.5420496 79.5247538,58.6214326 80.0090667,58.6214326 Z M81.521552,54.8348652 L78.3536693,54.8348652 C78.3616089,54.6046546 78.4072613,54.3903206 78.4906267,54.1918632 C78.573992,53.9934058 78.6851458,53.8207478 78.824088,53.6738893 C78.9630302,53.5270309 79.1297609,53.4119256 79.32428,53.3285734 C79.5187991,53.2452213 79.735152,53.2035453 79.9733387,53.2035453 C80.2035858,53.2035453 80.4119991,53.2491905 80.5985787,53.3404809 C80.7851582,53.4317713 80.9439493,53.5508457 81.074952,53.6977042 C81.2059547,53.8445627 81.3091689,54.0172207 81.3845947,54.2156781 C81.4600204,54.4141355 81.5056729,54.6205312 81.521552,54.8348652 L81.521552,54.8348652 Z M85.272992,58.4547284 L85.272992,54.8229577 C85.272992,54.6006854 85.30872,54.3903206 85.380176,54.1918632 C85.451632,53.9934058 85.5508764,53.8207478 85.6779093,53.6738893 C85.8049422,53.5270309 85.9597636,53.4119256 86.1423733,53.3285734 C86.3249831,53.2452213 86.5314116,53.2035453 86.7616587,53.2035453 C87.166576,53.2035453 87.4643093,53.3126968 87.6548587,53.531 C87.845408,53.7493032 87.9486222,54.1005728 87.9645013,54.5848089 L87.9645013,54.5848089 L87.9645013,58.4547284 L89.3221653,58.4547284 L89.3221653,54.2275855 C89.3221653,53.5290154 89.1276462,53.0050879 88.738608,52.6558028 C88.3495698,52.3065178 87.8176196,52.1318753 87.1427573,52.1318753 C86.73784,52.1318753 86.3686507,52.2291194 86.0351893,52.4236076 C85.701728,52.6180959 85.4317831,52.8860134 85.2253547,53.2273602 L85.2253547,53.2273602 L85.201536,53.2035453 L85.201536,52.2985795 L83.915328,52.2985795 L83.915328,58.4547284 L85.272992,58.4547284 Z M92.8592373,58.5142656 C93.0100889,58.5142656 93.1569707,58.5063273 93.2998827,58.4904507 C93.4427947,58.4745741 93.5896764,58.4586975 93.740528,58.4428209 L93.740528,58.4428209 L93.740528,57.3949658 C93.6452533,57.4187807 93.5499787,57.4326727 93.454704,57.4366419 C93.3594293,57.440611 93.2641547,57.4425956 93.16888,57.4425956 C93.0180284,57.4425956 92.8989351,57.4247344 92.8116,57.3890121 C92.7242649,57.3532897 92.6587636,57.2997062 92.615096,57.2282616 C92.5714284,57.1568169 92.54364,57.0694956 92.5317307,56.9662978 C92.5198213,56.8630999 92.5138667,56.7400563 92.5138667,56.597167 L92.5138667,56.597167 L92.5138667,53.3107123 L93.740528,53.3107123 L93.740528,52.2985795 L92.5138667,52.2985795 L92.5138667,50.4529256 L91.1562027,50.4529256 L91.1562027,52.2985795 L90.132,52.2985795 L90.132,53.3107123 L91.1562027,53.3107123 L91.1562027,56.9424829 C91.1641422,57.1965084 91.1899458,57.4227498 91.2336133,57.6212072 C91.2772809,57.8196647 91.3606462,57.9843843 91.4837093,58.1153662 C91.6067724,58.2463481 91.7774729,58.3455768 91.9958107,58.4130523 C92.2141484,58.4805278 92.5019573,58.5142656 92.8592373,58.5142656 Z M101.255317,58.6571549 C101.676114,58.6571549 102.088971,58.6075406 102.493888,58.5083119 C102.898805,58.4090832 103.260055,58.2523018 103.577637,58.0379678 C103.89522,57.8236338 104.15127,57.547778 104.345789,57.2104004 C104.540308,56.8730228 104.637568,56.4661851 104.637568,55.9898873 C104.637568,55.767615 104.603825,55.5453427 104.536339,55.3230704 C104.468852,55.1007981 104.365638,54.8924178 104.226696,54.6979296 C104.087754,54.5034413 103.915068,54.3307834 103.70864,54.1799557 C103.502212,54.0291281 103.260055,53.9100537 102.982171,53.8227324 C102.871017,53.7909792 102.686422,53.7413649 102.428387,53.6738893 C102.170351,53.6064138 101.906361,53.5369537 101.636416,53.4655091 C101.366471,53.3940644 101.12233,53.3285734 100.903992,53.2690362 C100.685654,53.209499 100.560606,53.1757612 100.528848,53.1678229 C100.227145,53.0805017 99.9830036,52.9515044 99.796424,52.780831 C99.6098444,52.6101576 99.5165547,52.3739933 99.5165547,52.072338 C99.5165547,51.858004 99.5661769,51.6793924 99.6654213,51.536503 C99.7646658,51.3936137 99.8897138,51.280493 100.040565,51.1971408 C100.191417,51.1137887 100.358148,51.0542515 100.540757,51.0185292 C100.723367,50.9828068 100.902007,50.9649457 101.076677,50.9649457 C101.592748,50.9649457 102.017515,51.0780664 102.350976,51.3043078 C102.684437,51.5305493 102.871017,51.9175412 102.910715,52.4652837 L102.910715,52.4652837 L104.399381,52.4652837 C104.399381,52.0207391 104.312046,51.629778 104.137376,51.2924004 C103.962706,50.9550228 103.726504,50.6712287 103.428771,50.4410181 C103.131037,50.2108075 102.785667,50.0381496 102.392659,49.9230443 C101.999651,49.807939 101.580839,49.7503863 101.136224,49.7503863 C100.755125,49.7503863 100.377996,49.8000007 100.004837,49.8992294 C99.6316782,49.9984581 99.2982169,50.1512703 99.0044533,50.357666 C98.7106898,50.5640617 98.474488,50.8240409 98.295848,51.1376036 C98.117208,51.4511663 98.027888,51.8222817 98.027888,52.2509497 C98.027888,52.473222 98.0576613,52.6915252 98.117208,52.9058592 C98.1767547,53.1201932 98.277984,53.3226197 98.420896,53.5131388 C98.563808,53.7036579 98.7563422,53.8763159 98.9984987,54.0311127 C99.2406551,54.1859095 99.5443431,54.3109376 99.9095627,54.4061972 C100.49709,54.5649631 100.991327,54.6939604 101.392275,54.7931891 C101.793222,54.8924178 102.144548,54.9976003 102.446251,55.1087364 C102.620921,55.1722428 102.781697,55.2813944 102.928579,55.4361911 C103.07546,55.5909879 103.148901,55.8311214 103.148901,56.1565915 C103.148901,56.3153575 103.117143,56.4721388 103.053627,56.6269356 C102.99011,56.7817324 102.886896,56.918668 102.743984,57.0377425 C102.601072,57.1568169 102.414492,57.254061 102.184245,57.3294748 C101.953998,57.4048887 101.676114,57.4425956 101.350592,57.4425956 C101.048889,57.4425956 100.76902,57.4088578 100.510984,57.3413823 C100.252948,57.2739068 100.024686,57.1667398 99.8261973,57.0198813 C99.6277084,56.8730228 99.4728871,56.6844883 99.3617333,56.4542777 C99.2505796,56.2240671 99.1950027,55.9462267 99.1950027,55.6207565 L99.1950027,55.6207565 L97.706336,55.6207565 C97.7142756,56.1446841 97.81352,56.5991516 98.0040693,56.984159 C98.1946187,57.3691663 98.4486844,57.6847136 98.7662667,57.9308008 C99.0838489,58.176888 99.457008,58.3594688 99.885744,58.4785433 C100.31448,58.5976177 100.771004,58.6571549 101.255317,58.6571549 Z M108.043637,58.6214326 C108.385038,58.6214326 108.720484,58.5281576 109.049976,58.3416076 C109.379468,58.1550577 109.627579,57.9069859 109.794309,57.5973924 L109.794309,57.5973924 L109.818128,57.5973924 L109.818128,58.4547284 L111.151973,58.4547284 L111.151973,52.2985795 L109.794309,52.2985795 L109.794309,55.8708129 C109.794309,56.1089618 109.768506,56.3312341 109.716899,56.5376298 C109.665292,56.7440255 109.579941,56.9206526 109.460848,57.0675111 C109.341755,57.2143696 109.186933,57.3314594 108.996384,57.4187807 C108.805835,57.5061019 108.567648,57.5497626 108.281824,57.5497626 C107.908665,57.5497626 107.618871,57.4386264 107.412443,57.2163541 C107.206014,56.9940818 107.1028,56.6130436 107.1028,56.0732394 L107.1028,56.0732394 L107.1028,52.2985795 L105.745136,52.2985795 L105.745136,56.2042213 C105.745136,57.0139276 105.925761,57.6192227 106.287011,58.0201066 C106.64826,58.4209906 107.233803,58.6214326 108.043637,58.6214326 Z M115.272603,58.6214326 C116.066558,58.6214326 116.703708,58.4090832 117.184051,57.9843843 C117.664394,57.5596854 117.968082,56.946452 118.095115,56.1446841 L118.095115,56.1446841 L116.737451,56.1446841 C116.673934,56.5892287 116.513158,56.9345446 116.255123,57.1806318 C115.997087,57.426719 115.66958,57.5497626 115.272603,57.5497626 C114.978839,57.5497626 114.728743,57.4882408 114.522315,57.3651972 C114.315886,57.2421536 114.147171,57.0814031 114.016168,56.8829457 C113.885165,56.6844883 113.789891,56.4582468 113.730344,56.2042213 C113.670797,55.9501958 113.641024,55.6961704 113.641024,55.4421449 C113.641024,54.9737854 113.696601,54.5947317 113.807755,54.3049839 C113.918908,54.0152361 114.057851,53.7889946 114.224581,53.6262596 C114.391312,53.4635245 114.573922,53.3523883 114.772411,53.2928511 C114.9709,53.2333139 115.157479,53.2035453 115.332149,53.2035453 C115.713248,53.2035453 116.028845,53.3007894 116.278941,53.4952777 C116.529037,53.6897659 116.681874,53.9775292 116.737451,54.3585674 L116.737451,54.3585674 L118.095115,54.3585674 C118.063356,53.9775292 117.968082,53.6480899 117.809291,53.3702495 C117.6505,53.0924091 117.446056,52.8621985 117.19596,52.6796177 C116.945864,52.4970369 116.66004,52.3601013 116.338488,52.2688109 C116.016936,52.1775205 115.67752,52.1318753 115.32024,52.1318753 C114.812108,52.1318753 114.369478,52.2172119 113.992349,52.3878853 C113.61522,52.5585587 113.299623,52.7927384 113.045557,53.0904245 C112.791492,53.3881107 112.600942,53.7393803 112.473909,54.1442334 C112.346876,54.5490865 112.28336,54.9817237 112.28336,55.4421449 C112.28336,55.8946278 112.348861,56.3153575 112.479864,56.704334 C112.610867,57.0933105 112.803401,57.4287036 113.057467,57.7105131 C113.311532,57.9923226 113.62316,58.2145949 113.992349,58.37733 C114.361539,58.5400651 114.78829,58.6214326 115.272603,58.6214326 Z M121.894192,58.6214326 C122.688148,58.6214326 123.325297,58.4090832 123.80564,57.9843843 C124.285983,57.5596854 124.589671,56.946452 124.716704,56.1446841 L124.716704,56.1446841 L123.35904,56.1446841 C123.295524,56.5892287 123.134748,56.9345446 122.876712,57.1806318 C122.618676,57.426719 122.29117,57.5497626 121.894192,57.5497626 C121.600428,57.5497626 121.350332,57.4882408 121.143904,57.3651972 C120.937476,57.2421536 120.76876,57.0814031 120.637757,56.8829457 C120.506755,56.6844883 120.41148,56.4582468 120.351933,56.2042213 C120.292387,55.9501958 120.262613,55.6961704 120.262613,55.4421449 C120.262613,54.9737854 120.31819,54.5947317 120.429344,54.3049839 C120.540498,54.0152361 120.67944,53.7889946 120.846171,53.6262596 C121.012901,53.4635245 121.195511,53.3523883 121.394,53.2928511 C121.592489,53.2333139 121.779068,53.2035453 121.953739,53.2035453 C122.334837,53.2035453 122.650435,53.3007894 122.900531,53.4952777 C123.150627,53.6897659 123.303463,53.9775292 123.35904,54.3585674 L123.35904,54.3585674 L124.716704,54.3585674 C124.684946,53.9775292 124.589671,53.6480899 124.43088,53.3702495 C124.272089,53.0924091 124.067645,52.8621985 123.817549,52.6796177 C123.567453,52.4970369 123.281629,52.3601013 122.960077,52.2688109 C122.638525,52.1775205 122.299109,52.1318753 121.941829,52.1318753 C121.433698,52.1318753 120.991068,52.2172119 120.613939,52.3878853 C120.23681,52.5585587 119.921212,52.7927384 119.667147,53.0904245 C119.413081,53.3881107 119.222532,53.7393803 119.095499,54.1442334 C118.968466,54.5490865 118.904949,54.9817237 118.904949,55.4421449 C118.904949,55.8946278 118.970451,56.3153575 119.101453,56.704334 C119.232456,57.0933105 119.42499,57.4287036 119.679056,57.7105131 C119.933122,57.9923226 120.244749,58.2145949 120.613939,58.37733 C120.983128,58.5400651 121.409879,58.6214326 121.894192,58.6214326 Z M128.5396,58.6214326 C128.873061,58.6214326 129.192628,58.5757874 129.498301,58.484497 C129.803974,58.3932066 130.079874,58.2582555 130.326,58.0796439 C130.572126,57.9010322 130.782524,57.6807445 130.957195,57.4187807 C131.131865,57.1568169 131.254928,56.8591308 131.326384,56.5257223 L131.326384,56.5257223 L130.040176,56.5257223 C129.921083,56.8670691 129.740458,57.1230791 129.498301,57.2937525 C129.256145,57.4644259 128.936578,57.5497626 128.5396,57.5497626 C128.253776,57.5497626 128.00765,57.5001482 127.801221,57.4009195 C127.594793,57.3016908 127.424092,57.1687243 127.28912,57.0020201 C127.154148,56.8353159 127.052918,56.6408276 126.985432,56.4185553 C126.917946,56.196283 126.884203,55.9660724 126.884203,55.7279235 L126.884203,55.7279235 L131.409749,55.7279235 C131.465326,55.2675023 131.435553,54.8209732 131.320429,54.388336 C131.205306,53.9556989 131.020711,53.5726761 130.766645,53.2392676 C130.51258,52.9058592 130.193012,52.6379416 129.807944,52.4355151 C129.422876,52.2330885 128.988185,52.1318753 128.503872,52.1318753 C128.043378,52.1318753 127.630521,52.2191965 127.265301,52.393839 C126.900082,52.5684816 126.588454,52.8046459 126.330419,53.102332 C126.072383,53.4000181 125.873894,53.745334 125.734952,54.1382797 C125.59601,54.5312254 125.526539,54.9460013 125.526539,55.3826076 C125.526539,55.8589054 125.59204,56.2955117 125.723043,56.6924266 C125.854045,57.0893414 126.048564,57.4306881 126.3066,57.7164668 C126.564636,58.0022455 126.880233,58.2245178 127.253392,58.3832837 C127.626551,58.5420496 128.055287,58.6214326 128.5396,58.6214326 Z M130.052085,54.8348652 L126.884203,54.8348652 C126.892142,54.6046546 126.937795,54.3903206 127.02116,54.1918632 C127.104525,53.9934058 127.215679,53.8207478 127.354621,53.6738893 C127.493564,53.5270309 127.660294,53.4119256 127.854813,53.3285734 C128.049332,53.2452213 128.265685,53.2035453 128.503872,53.2035453 C128.734119,53.2035453 128.942532,53.2491905 129.129112,53.3404809 C129.315692,53.4317713 129.474483,53.5508457 129.605485,53.6977042 C129.736488,53.8445627 129.839702,54.0172207 129.915128,54.2156781 C129.990554,54.4141355 130.036206,54.6205312 130.052085,54.8348652 L130.052085,54.8348652 Z M134.839637,58.6214326 C135.15722,58.6214326 135.478772,58.5857103 135.804293,58.5142656 C136.129815,58.4428209 136.425564,58.3277156 136.691539,58.1689497 C136.957514,58.0101838 137.173867,57.8037881 137.340597,57.5497626 C137.507328,57.2957371 137.590693,56.9861435 137.590693,56.6209819 C137.590693,56.3193266 137.533132,56.0653011 137.418008,55.8589054 C137.302884,55.6525097 137.152033,55.4818364 136.965453,55.3468853 C136.778874,55.2119343 136.566491,55.1047673 136.328304,55.0253843 C136.090117,54.9460013 135.847961,54.8785258 135.601835,54.8229577 C135.347769,54.7673897 135.101643,54.7157907 134.863456,54.668161 C134.625269,54.6205312 134.412886,54.5629785 134.226307,54.495503 C134.039727,54.4280275 133.888876,54.3426908 133.773752,54.239493 C133.658628,54.1362951 133.601067,54.0013441 133.601067,53.8346398 C133.601067,53.6996888 133.640764,53.5905372 133.72016,53.5071851 C133.799556,53.423833 133.896815,53.3603266 134.011939,53.316666 C134.127062,53.2730054 134.250125,53.2432368 134.381128,53.2273602 C134.512131,53.2114836 134.625269,53.2035453 134.720544,53.2035453 C135.022247,53.2035453 135.290207,53.2591133 135.524424,53.3702495 C135.758641,53.4813856 135.907508,53.6996888 135.971024,54.025159 L135.971024,54.025159 L137.388235,54.025159 C137.348537,53.6838122 137.251277,53.3920798 137.096456,53.1499618 C136.941635,52.9078437 136.747116,52.7113709 136.512899,52.5605433 C136.278682,52.4097156 136.016676,52.3005641 135.726883,52.2330885 C135.437089,52.165613 135.133401,52.1318753 134.815819,52.1318753 C134.537934,52.1318753 134.246156,52.1596593 133.940483,52.2152274 C133.63481,52.2707954 133.356925,52.3680396 133.106829,52.5069598 C132.856733,52.6458799 132.650305,52.8284608 132.487544,53.0547022 C132.324783,53.2809437 132.243403,53.5607686 132.243403,53.8941771 C132.243403,54.2037706 132.29898,54.4637498 132.410133,54.6741147 C132.521287,54.8844795 132.670154,55.0571375 132.856733,55.1920885 C133.043313,55.3270396 133.253711,55.4342066 133.487928,55.5135895 C133.722145,55.5929725 133.966286,55.660448 134.220352,55.7160161 C134.466478,55.7715842 134.708635,55.8231831 134.946821,55.8708129 C135.185008,55.9184427 135.397391,55.9759953 135.583971,56.0434708 C135.77055,56.1109463 135.923387,56.2002522 136.04248,56.3113883 C136.161573,56.4225245 136.22509,56.5654138 136.233029,56.7400563 C136.240969,56.9146989 136.199286,57.0556036 136.107981,57.1627706 C136.016676,57.2699376 135.899568,57.3513052 135.756656,57.4068732 C135.613744,57.4624413 135.460908,57.5001482 135.298147,57.519994 C135.135386,57.5398397 134.990489,57.5497626 134.863456,57.5497626 C134.498236,57.5497626 134.184624,57.4703796 133.922619,57.3116137 C133.660613,57.1528478 133.509762,56.8750074 133.470064,56.4780926 L133.470064,56.4780926 L132.1124,56.4780926 C132.12034,56.8432542 132.19378,57.1588015 132.332723,57.4247344 C132.471665,57.6906673 132.662214,57.9129396 132.904371,58.0915513 C133.146527,58.270163 133.432351,58.4031294 133.761843,58.4904507 C134.091334,58.577772 134.450599,58.6214326 134.839637,58.6214326 Z M141.020581,58.6214326 C141.338164,58.6214326 141.659716,58.5857103 141.985237,58.5142656 C142.310759,58.4428209 142.606508,58.3277156 142.872483,58.1689497 C143.138458,58.0101838 143.354811,57.8037881 143.521541,57.5497626 C143.688272,57.2957371 143.771637,56.9861435 143.771637,56.6209819 C143.771637,56.3193266 143.714076,56.0653011 143.598952,55.8589054 C143.483828,55.6525097 143.332977,55.4818364 143.146397,55.3468853 C142.959818,55.2119343 142.747435,55.1047673 142.509248,55.0253843 C142.271061,54.9460013 142.028905,54.8785258 141.782779,54.8229577 C141.528713,54.7673897 141.282587,54.7157907 141.0444,54.668161 C140.806213,54.6205312 140.59383,54.5629785 140.407251,54.495503 C140.220671,54.4280275 140.06982,54.3426908 139.954696,54.239493 C139.839572,54.1362951 139.782011,54.0013441 139.782011,53.8346398 C139.782011,53.6996888 139.821708,53.5905372 139.901104,53.5071851 C139.9805,53.423833 140.077759,53.3603266 140.192883,53.316666 C140.308006,53.2730054 140.431069,53.2432368 140.562072,53.2273602 C140.693075,53.2114836 140.806213,53.2035453 140.901488,53.2035453 C141.203191,53.2035453 141.471151,53.2591133 141.705368,53.3702495 C141.939585,53.4813856 142.088452,53.6996888 142.151968,54.025159 L142.151968,54.025159 L143.569179,54.025159 C143.529481,53.6838122 143.432221,53.3920798 143.2774,53.1499618 C143.122579,52.9078437 142.92806,52.7113709 142.693843,52.5605433 C142.459626,52.4097156 142.19762,52.3005641 141.907827,52.2330885 C141.618033,52.165613 141.314345,52.1318753 140.996763,52.1318753 C140.718878,52.1318753 140.4271,52.1596593 140.121427,52.2152274 C139.815754,52.2707954 139.537869,52.3680396 139.287773,52.5069598 C139.037677,52.6458799 138.831249,52.8284608 138.668488,53.0547022 C138.505727,53.2809437 138.424347,53.5607686 138.424347,53.8941771 C138.424347,54.2037706 138.479924,54.4637498 138.591077,54.6741147 C138.702231,54.8844795 138.851098,55.0571375 139.037677,55.1920885 C139.224257,55.3270396 139.434655,55.4342066 139.668872,55.5135895 C139.903089,55.5929725 140.14723,55.660448 140.401296,55.7160161 C140.647422,55.7715842 140.889579,55.8231831 141.127765,55.8708129 C141.365952,55.9184427 141.578335,55.9759953 141.764915,56.0434708 C141.951494,56.1109463 142.104331,56.2002522 142.223424,56.3113883 C142.342517,56.4225245 142.406034,56.5654138 142.413973,56.7400563 C142.421913,56.9146989 142.38023,57.0556036 142.288925,57.1627706 C142.19762,57.2699376 142.080512,57.3513052 141.9376,57.4068732 C141.794688,57.4624413 141.641852,57.5001482 141.479091,57.519994 C141.31633,57.5398397 141.171433,57.5497626 141.0444,57.5497626 C140.67918,57.5497626 140.365568,57.4703796 140.103563,57.3116137 C139.841557,57.1528478 139.690706,56.8750074 139.651008,56.4780926 L139.651008,56.4780926 L138.293344,56.4780926 C138.301284,56.8432542 138.374724,57.1588015 138.513667,57.4247344 C138.652609,57.6906673 138.843158,57.9129396 139.085315,58.0915513 C139.327471,58.270163 139.613295,58.4031294 139.942787,58.4904507 C140.272278,58.577772 140.631543,58.6214326 141.020581,58.6214326 Z M146.570331,58.4547284 L146.570331,53.3107123 L147.725536,53.3107123 L147.725536,52.2985795 L146.570331,52.2985795 L146.570331,51.6674849 C146.570331,51.4134594 146.635832,51.242786 146.766835,51.1554648 C146.897837,51.0681435 147.054644,51.0244829 147.237253,51.0244829 C147.372226,51.0244829 147.489334,51.0304366 147.588579,51.0423441 C147.687823,51.0542515 147.781113,51.0721127 147.868448,51.0959276 L147.868448,51.0959276 L147.868448,50.036165 C147.669959,49.9805969 147.352377,49.9528129 146.915701,49.9528129 C146.693394,49.9528129 146.481011,49.9746432 146.278552,50.0183038 C146.076093,50.0619645 145.895468,50.1492857 145.736677,50.2802676 C145.577886,50.4112495 145.450853,50.5977995 145.355579,50.8399175 C145.260304,51.0820355 145.212667,51.3975828 145.212667,51.7865594 L145.212667,51.7865594 L145.212667,52.2985795 L144.200373,52.2985795 L144.200373,53.3107123 L145.212667,53.3107123 L145.212667,58.4547284 L146.570331,58.4547284 Z M150.857691,58.6214326 C151.199092,58.6214326 151.534538,58.5281576 151.864029,58.3416076 C152.193521,58.1550577 152.441632,57.9069859 152.608363,57.5973924 L152.608363,57.5973924 L152.632181,57.5973924 L152.632181,58.4547284 L153.966027,58.4547284 L153.966027,52.2985795 L152.608363,52.2985795 L152.608363,55.8708129 C152.608363,56.1089618 152.582559,56.3312341 152.530952,56.5376298 C152.479345,56.7440255 152.393995,56.9206526 152.274901,57.0675111 C152.155808,57.2143696 152.000987,57.3314594 151.810437,57.4187807 C151.619888,57.5061019 151.381701,57.5497626 151.095877,57.5497626 C150.722718,57.5497626 150.432924,57.4386264 150.226496,57.2163541 C150.020068,56.9940818 149.916853,56.6130436 149.916853,56.0732394 L149.916853,56.0732394 L149.916853,52.2985795 L148.559189,52.2985795 L148.559189,56.2042213 C148.559189,57.0139276 148.739814,57.6192227 149.101064,58.0201066 C149.462314,58.4209906 150.047856,58.6214326 150.857691,58.6214326 Z M156.788539,58.4547284 L156.788539,49.9528129 L155.430875,49.9528129 L155.430875,58.4547284 L156.788539,58.4547284 Z" id="PaymentSuccessful" fill="#232D4C" fill-rule="nonzero"></path>
                    <g id="interface-(2)" transform="translate(63.606667, 81.728370)" fill="#60BCA5" fill-rule="nonzero">
                        <path d="M37.6226667,0 C17.0275789,0 0.270666667,16.7542549 0.270666667,37.3460765 C0.270666667,57.9378981 17.0275789,74.6921529 37.6226667,74.6921529 C58.2177544,74.6921529 74.9746667,57.9378981 74.9746667,37.3460765 C74.9746667,16.7542549 58.2177544,0 37.6226667,0 Z M58.4985965,27.5181616 L34.6270175,51.1987564 C33.222807,52.6027443 30.9760702,52.6963435 29.4782456,51.2923556 L16.8403509,39.7796554 C15.3425263,38.3756675 15.2489123,36.0356878 16.5595088,34.5381008 C17.9637193,33.0405138 20.3040702,32.9469146 21.8018947,34.3509024 L31.8185965,43.5236229 L53.1625965,22.1830078 C54.6604211,20.6854208 57.0007719,20.6854208 58.4985965,22.1830078 C59.9964211,23.6805948 59.9964211,26.0205746 58.4985965,27.5181616 Z" id="Shape"></path>
                    </g>
                </g>
                <g id="a-button-floating-white" transform="translate(74.942169, 219.000000)">
                    <g id="button-floating-white">
                        <rect id="Bg" fill="#2EABB4" opacity="0.2" x="0" y="0" width="56" height="21" rx="9"></rect>
                        <path d="M14.5326282,13.783875 C14.8826282,13.783875 15.2030128,13.72875 15.4937821,13.6185 C15.7845513,13.50825 16.0376282,13.3520625 16.2530128,13.1499375 C16.4683974,12.9478125 16.639359,12.707625 16.7658974,12.429375 C16.8924359,12.151125 16.9664744,11.844 16.9880128,11.508 L16.9880128,11.508 L16.0026282,11.508 C15.9810897,11.71275 15.9353205,11.904375 15.8653205,12.082875 C15.7953205,12.261375 15.6983974,12.4175625 15.5745513,12.5514375 C15.4507051,12.6853125 15.3026282,12.7903125 15.1303205,12.8664375 C14.9580128,12.9425625 14.7587821,12.980625 14.5326282,12.980625 C14.2257051,12.980625 13.9605128,12.92025 13.7370513,12.7995 C13.5135897,12.67875 13.331859,12.5173125 13.191859,12.3151875 C13.051859,12.1130625 12.9482051,11.883375 12.8808974,11.626125 C12.8135897,11.368875 12.7799359,11.106375 12.7799359,10.838625 C12.7799359,10.570875 12.8135897,10.308375 12.8808974,10.051125 C12.9482051,9.793875 13.051859,9.5641875 13.191859,9.3620625 C13.331859,9.1599375 13.5135897,8.9985 13.7370513,8.87775 C13.9605128,8.757 14.2257051,8.696625 14.5326282,8.696625 C14.7426282,8.696625 14.9270513,8.7241875 15.0858974,8.7793125 C15.2447436,8.8344375 15.3833974,8.911875 15.501859,9.011625 C15.6203205,9.111375 15.7172436,9.2295 15.7926282,9.366 C15.8680128,9.5025 15.9272436,9.652125 15.9703205,9.814875 L15.9703205,9.814875 L16.9799359,9.814875 C16.9476282,9.510375 16.8641667,9.24 16.7295513,9.00375 C16.5949359,8.7675 16.4185897,8.5666875 16.2005128,8.4013125 C15.9824359,8.2359375 15.7307051,8.1099375 15.4453205,8.0233125 C15.1599359,7.9366875 14.8557051,7.893375 14.5326282,7.893375 C14.101859,7.893375 13.7155128,7.972125 13.3735897,8.129625 C13.0316667,8.287125 12.7422436,8.49975 12.5053205,8.7675 C12.2683974,9.03525 12.0866667,9.347625 11.9601282,9.704625 C11.8335897,10.061625 11.7703205,10.439625 11.7703205,10.838625 C11.7703205,11.242875 11.8335897,11.6235 11.9601282,11.9805 C12.0866667,12.3375 12.2683974,12.649875 12.5053205,12.917625 C12.7422436,13.185375 13.0316667,13.3966875 13.3735897,13.5515625 C13.7155128,13.7064375 14.101859,13.783875 14.5326282,13.783875 Z M19.6937821,13.76025 C20.0276282,13.76025 20.3251282,13.7064375 20.5862821,13.5988125 C20.8474359,13.4911875 21.0682051,13.342875 21.2485897,13.153875 C21.4289744,12.964875 21.5662821,12.739125 21.6605128,12.476625 C21.7547436,12.214125 21.801859,11.925375 21.801859,11.610375 C21.801859,11.300625 21.7547436,11.0145 21.6605128,10.752 C21.5662821,10.4895 21.4289744,10.26375 21.2485897,10.07475 C21.0682051,9.88575 20.8474359,9.7374375 20.5862821,9.6298125 C20.3251282,9.5221875 20.0276282,9.468375 19.6937821,9.468375 C19.3599359,9.468375 19.0624359,9.5221875 18.8012821,9.6298125 C18.5401282,9.7374375 18.319359,9.88575 18.1389744,10.07475 C17.9585897,10.26375 17.8212821,10.4895 17.7270513,10.752 C17.6328205,11.0145 17.5857051,11.300625 17.5857051,11.610375 C17.5857051,11.925375 17.6328205,12.214125 17.7270513,12.476625 C17.8212821,12.739125 17.9585897,12.964875 18.1389744,13.153875 C18.319359,13.342875 18.5401282,13.4911875 18.8012821,13.5988125 C19.0624359,13.7064375 19.3599359,13.76025 19.6937821,13.76025 Z M19.6937821,13.0515 C19.4891667,13.0515 19.3114744,13.0095 19.1607051,12.9255 C19.0099359,12.8415 18.8860897,12.73125 18.7891667,12.59475 C18.6922436,12.45825 18.6208974,12.3046875 18.5751282,12.1340625 C18.529359,11.9634375 18.5064744,11.788875 18.5064744,11.610375 C18.5064744,11.437125 18.529359,11.263875 18.5751282,11.090625 C18.6208974,10.917375 18.6922436,10.7638125 18.7891667,10.6299375 C18.8860897,10.4960625 19.0099359,10.387125 19.1607051,10.303125 C19.3114744,10.219125 19.4891667,10.177125 19.6937821,10.177125 C19.8983974,10.177125 20.0760897,10.219125 20.226859,10.303125 C20.3776282,10.387125 20.5014744,10.4960625 20.5983974,10.6299375 C20.6953205,10.7638125 20.7666667,10.917375 20.8124359,11.090625 C20.8582051,11.263875 20.8810897,11.437125 20.8810897,11.610375 C20.8810897,11.788875 20.8582051,11.9634375 20.8124359,12.1340625 C20.7666667,12.3046875 20.6953205,12.45825 20.5983974,12.59475 C20.5014744,12.73125 20.3776282,12.8415 20.226859,12.9255 C20.0760897,13.0095 19.8983974,13.0515 19.6937821,13.0515 Z M23.4899359,13.65 L23.4899359,11.248125 C23.4899359,11.101125 23.5141667,10.962 23.5626282,10.83075 C23.6110897,10.6995 23.6783974,10.5853125 23.7645513,10.4881875 C23.8507051,10.3910625 23.9557051,10.3149375 24.0795513,10.2598125 C24.2033974,10.2046875 24.3433974,10.177125 24.4995513,10.177125 C24.7741667,10.177125 24.9760897,10.2493125 25.1053205,10.3936875 C25.2345513,10.5380625 25.3045513,10.770375 25.3153205,11.090625 L25.3153205,11.090625 L25.3153205,13.65 L26.2360897,13.65 L26.2360897,10.854375 C26.2360897,10.392375 26.1041667,10.045875 25.8403205,9.814875 C25.5764744,9.583875 25.2157051,9.468375 24.7580128,9.468375 C24.4833974,9.468375 24.2330128,9.5326875 24.006859,9.6613125 C23.7807051,9.7899375 23.5976282,9.967125 23.4576282,10.192875 L23.4576282,10.192875 L23.4414744,10.177125 L23.4414744,9.578625 L22.5691667,9.578625 L22.5691667,13.65 L23.4899359,13.65 Z M28.6349359,13.689375 C28.7372436,13.689375 28.836859,13.684125 28.9337821,13.673625 C29.0307051,13.663125 29.1303205,13.652625 29.2326282,13.642125 L29.2326282,13.642125 L29.2326282,12.949125 C29.1680128,12.964875 29.1033974,12.9740625 29.0387821,12.9766875 C28.9741667,12.9793125 28.9095513,12.980625 28.8449359,12.980625 C28.7426282,12.980625 28.661859,12.9688125 28.6026282,12.9451875 C28.5433974,12.9215625 28.4989744,12.886125 28.469359,12.838875 C28.4397436,12.791625 28.4208974,12.733875 28.4128205,12.665625 C28.4047436,12.597375 28.4007051,12.516 28.4007051,12.4215 L28.4007051,12.4215 L28.4007051,10.248 L29.2326282,10.248 L29.2326282,9.578625 L28.4007051,9.578625 L28.4007051,8.358 L27.4799359,8.358 L27.4799359,9.578625 L26.7853205,9.578625 L26.7853205,10.248 L27.4799359,10.248 L27.4799359,12.649875 C27.4853205,12.817875 27.5028205,12.9675 27.5324359,13.09875 C27.5620513,13.23 27.6185897,13.3389375 27.7020513,13.4255625 C27.7855128,13.5121875 27.9012821,13.5778125 28.049359,13.6224375 C28.1974359,13.6670625 28.3926282,13.689375 28.6349359,13.689375 Z M30.8399359,8.87775 L30.8399359,8.02725 L29.9191667,8.02725 L29.9191667,8.87775 L30.8399359,8.87775 Z M30.8399359,13.65 L30.8399359,9.578625 L29.9191667,9.578625 L29.9191667,13.65 L30.8399359,13.65 Z M32.7622436,13.65 L32.7622436,11.248125 C32.7622436,11.101125 32.7864744,10.962 32.8349359,10.83075 C32.8833974,10.6995 32.9507051,10.5853125 33.036859,10.4881875 C33.1230128,10.3910625 33.2280128,10.3149375 33.351859,10.2598125 C33.4757051,10.2046875 33.6157051,10.177125 33.771859,10.177125 C34.0464744,10.177125 34.2483974,10.2493125 34.3776282,10.3936875 C34.506859,10.5380625 34.576859,10.770375 34.5876282,11.090625 L34.5876282,11.090625 L34.5876282,13.65 L35.5083974,13.65 L35.5083974,10.854375 C35.5083974,10.392375 35.3764744,10.045875 35.1126282,9.814875 C34.8487821,9.583875 34.4880128,9.468375 34.0303205,9.468375 C33.7557051,9.468375 33.5053205,9.5326875 33.2791667,9.6613125 C33.0530128,9.7899375 32.8699359,9.967125 32.7299359,10.192875 L32.7299359,10.192875 L32.7137821,10.177125 L32.7137821,9.578625 L31.8414744,9.578625 L31.8414744,13.65 L32.7622436,13.65 Z M38.0364744,13.76025 C38.2680128,13.76025 38.4955128,13.6985625 38.7189744,13.5751875 C38.9424359,13.4518125 39.1107051,13.28775 39.2237821,13.083 L39.2237821,13.083 L39.2399359,13.083 L39.2399359,13.65 L40.1445513,13.65 L40.1445513,9.578625 L39.2237821,9.578625 L39.2237821,11.941125 C39.2237821,12.098625 39.2062821,12.245625 39.1712821,12.382125 C39.1362821,12.518625 39.0783974,12.6354375 38.9976282,12.7325625 C38.916859,12.8296875 38.811859,12.907125 38.6826282,12.964875 C38.5533974,13.022625 38.391859,13.0515 38.1980128,13.0515 C37.9449359,13.0515 37.7483974,12.978 37.6083974,12.831 C37.4683974,12.684 37.3983974,12.432 37.3983974,12.075 L37.3983974,12.075 L37.3983974,9.578625 L36.4776282,9.578625 L36.4776282,12.161625 C36.4776282,12.697125 36.6001282,13.0974375 36.8451282,13.3625625 C37.0901282,13.6276875 37.4872436,13.76025 38.0364744,13.76025 Z M42.9553205,13.76025 C43.1814744,13.76025 43.3982051,13.7300625 43.6055128,13.6696875 C43.8128205,13.6093125 43.9999359,13.5200625 44.166859,13.4019375 C44.3337821,13.2838125 44.4764744,13.138125 44.5949359,12.964875 C44.7133974,12.791625 44.796859,12.59475 44.8453205,12.37425 L44.8453205,12.37425 L43.9730128,12.37425 C43.8922436,12.6 43.7697436,12.7693125 43.6055128,12.8821875 C43.4412821,12.9950625 43.2245513,13.0515 42.9553205,13.0515 C42.7614744,13.0515 42.5945513,13.0186875 42.4545513,12.9530625 C42.3145513,12.8874375 42.1987821,12.7995 42.1072436,12.68925 C42.0157051,12.579 41.9470513,12.450375 41.9012821,12.303375 C41.8555128,12.156375 41.8326282,12.004125 41.8326282,11.846625 L41.8326282,11.846625 L44.901859,11.846625 C44.9395513,11.542125 44.919359,11.2468125 44.8412821,10.9606875 C44.7632051,10.6745625 44.6380128,10.42125 44.4657051,10.20075 C44.2933974,9.98025 44.0766667,9.8030625 43.8155128,9.6691875 C43.554359,9.5353125 43.2595513,9.468375 42.9310897,9.468375 C42.6187821,9.468375 42.3387821,9.526125 42.0910897,9.641625 C41.8433974,9.757125 41.6320513,9.9133125 41.4570513,10.1101875 C41.2820513,10.3070625 41.1474359,10.5354375 41.0532051,10.7953125 C40.9589744,11.0551875 40.911859,11.3295 40.911859,11.61825 C40.911859,11.93325 40.9562821,12.222 41.0451282,12.4845 C41.1339744,12.747 41.2658974,12.97275 41.4408974,13.16175 C41.6158974,13.35075 41.8299359,13.49775 42.0830128,13.60275 C42.3360897,13.70775 42.626859,13.76025 42.9553205,13.76025 Z M43.9810897,11.256 L41.8326282,11.256 C41.8380128,11.10375 41.8689744,10.962 41.9255128,10.83075 C41.9820513,10.6995 42.0574359,10.5853125 42.1516667,10.4881875 C42.2458974,10.3910625 42.3589744,10.3149375 42.4908974,10.2598125 C42.6228205,10.2046875 42.7695513,10.177125 42.9310897,10.177125 C43.0872436,10.177125 43.2285897,10.2073125 43.3551282,10.2676875 C43.4816667,10.3280625 43.589359,10.4068125 43.6782051,10.5039375 C43.7670513,10.6010625 43.8370513,10.71525 43.8882051,10.8465 C43.939359,10.97775 43.9703205,11.11425 43.9810897,11.256 L43.9810897,11.256 Z" id="Continue" fill="#4A4A4A" fill-rule="nonzero"></path>
                    </g>
                </g>
                <rect id="Rectangle" fill="#EBEBEB" x="30.9421687" y="176" width="120" height="8" rx="4"></rect>
                <rect id="Rectangle-Copy" fill="#EBEBEB" x="30.9421687" y="190" width="93" height="8" rx="4"></rect>
            </g>
        </g>
    </g>
</svg>