<?xml version="1.0" encoding="UTF-8"?>
<svg width="311px" height="160px" viewBox="0 0 311 160" version="1.1" xmlns="http://www.w3.org/2000/svg" xmlns:xlink="http://www.w3.org/1999/xlink">
    <title>90072E15-812A-4F68-8AB1-42BA33625351</title>
    <defs>
        <path d="M99.449062,0.0647036408 C102.059685,0.0647036408 104.513534,1.32131646 106.036966,3.43950933 L113.756367,14.1632864 C114.581133,15.3075192 115.092352,16.645863 115.238901,18.0489103 L124.952055,110.071109 C125.228113,112.686499 124.219308,115.271239 122.246004,117.008021 L78.1176131,155.833611 C76.6384872,157.1379 74.7299377,157.856451 72.7566338,157.856451 L52.2431347,157.856451 C50.2698308,157.856451 48.3646895,157.1379 46.8821555,155.833611 L2.75376429,117.008021 C0.780460425,115.271239 -0.228344316,112.686499 0.0477137377,110.071109 L9.76086749,18.0489103 C9.91082495,16.645863 10.4186354,15.3075192 11.2434015,14.1632864 L18.9628026,3.43950933 C20.4862341,1.32131646 22.9400835,0.0647036408 25.5507066,0.0647036408" id="path-1"></path>
        <filter x="-16.4%" y="-38.7%" width="132.9%" height="177.4%" filterUnits="objectBoundingBox" id="filter-3">
            <feOffset dx="0" dy="2" in="SourceAlpha" result="shadowOffsetOuter1"></feOffset>
            <feGaussianBlur stdDeviation="2" in="shadowOffsetOuter1" result="shadowBlurOuter1"></feGaussianBlur>
            <feColorMatrix values="0 0 0 0 0.180392157   0 0 0 0 0.670588235   0 0 0 0 0.705882353  0 0 0 0.124836101 0" type="matrix" in="shadowBlurOuter1" result="shadowMatrixOuter1"></feColorMatrix>
            <feMerge>
                <feMergeNode in="shadowMatrixOuter1"></feMergeNode>
                <feMergeNode in="SourceGraphic"></feMergeNode>
            </feMerge>
        </filter>
        <path d="M10.2503568,1.45007643 C17.9210546,1.45007643 18.4324348,3.38351172 18.4324348,3.38351172 L18.4324348,9.81218408 C18.4333212,13.3047429 16.4400189,16.5258812 13.2189168,18.2371284 L10.2503568,19.8177117 L7.28179672,18.2371284 C4.06069464,16.5258812 2.06739233,13.3047429 2.06827879,9.81218408 L2.06827879,3.38351172 C2.06827879,3.38351172 2.06827879,1.45007643 10.2503568,1.45007643 M10.2503568,-4.4307896e-08 C6.61649153,-4.4307896e-08 3.97726009,0.377019838 2.40476703,1.12139243 C0.669143803,1.93826884 0.534139521,3.05966131 0.534139521,3.38351172 L0.534139521,9.81218408 C0.537005428,13.8282903 2.82804196,17.5316562 6.52955695,19.5035285 L9.49811702,21.0792783 C9.96435516,21.33064 10.5363584,21.33064 11.0025966,21.0792783 L13.9711566,19.5035285 C17.6726716,17.5316562 19.9637081,13.8282903 19.966575,9.81218408 L19.966575,3.38351172 C19.966575,3.26454897 19.9512532,3.14602849 19.9205499,3.03065978 C19.6213926,1.89960013 17.9665674,-4.4307896e-08 10.2503568,-4.4307896e-08 L10.2503568,-4.4307896e-08 Z M9.73897693,13.2923676 C9.53552914,13.2918515 9.34052839,13.2154152 9.1964029,13.0796897 L5.61674391,9.69617796 C5.33511796,9.41050347 5.34342787,8.96533002 5.63554039,8.68922379 C5.92765292,8.41311755 6.39863373,8.40526299 6.7008692,8.67145726 L9.73846555,11.5426087 L14.8215813,6.73802196 C15.0128073,6.54404699 15.300801,6.46419998 15.5725824,6.52980496 C15.8443638,6.59540993 16.0565861,6.79600349 16.1259943,7.05289262 C16.1954025,7.30978176 16.1109266,7.58199491 15.9057066,7.76274267 L10.2805282,13.0796897 C10.1366542,13.2151801 9.94207008,13.2915971 9.73897693,13.2923676 L9.73897693,13.2923676 Z" id="path-4"></path>
        <filter x="-7.1%" y="-24.0%" width="114.8%" height="148.0%" filterUnits="objectBoundingBox" id="filter-6">
            <feOffset dx="0" dy="2" in="SourceAlpha" result="shadowOffsetOuter1"></feOffset>
            <feGaussianBlur stdDeviation="2" in="shadowOffsetOuter1" result="shadowBlurOuter1"></feGaussianBlur>
            <feColorMatrix values="0 0 0 0 0   0 0 0 0 0   0 0 0 0 0  0 0 0 0.1 0" type="matrix" in="shadowBlurOuter1" result="shadowMatrixOuter1"></feColorMatrix>
            <feMerge>
                <feMergeNode in="shadowMatrixOuter1"></feMergeNode>
                <feMergeNode in="SourceGraphic"></feMergeNode>
            </feMerge>
        </filter>
    </defs>
    <g id="Login" stroke="none" stroke-width="1" fill="none" fill-rule="evenodd">
        <g id="login-onboarding-1" transform="translate(-37.000000, -229.000000)">
            <g id="safe" transform="translate(37.000000, 229.000000)">
                <g id="Group-2" transform="translate(0.000000, 0.054920)">
                    <g id="shutterstock_1681138138-2">
                        <g id="shutterstock_1681138138">
                            <g id="Group-428" transform="translate(0.004031, 0.000284)" fill="#3DD4BA">
                                <path d="M72.7566338,157.982064 L52.2431347,157.982064 C50.2698308,157.982064 48.3646895,157.263513 46.8821555,155.959224 L2.75376429,117.133634 C0.780460425,115.396852 -0.228344316,112.812112 0.0477137377,110.196723 L9.76086749,18.1745237 C9.91082495,16.7714763 10.4186354,15.4331326 11.2434015,14.2888998 L18.9628026,3.56512269 C20.4862341,1.44692982 22.9400835,0.190317002 25.5507066,0.190317002 L99.449062,0.190317002 C102.059685,0.190317002 104.513534,1.44692982 106.036966,3.56512269 L113.756367,14.2888998 C114.581133,15.4331326 115.092352,16.7714763 115.238901,18.1745237 L124.952055,110.196723 C125.228113,112.812112 124.219308,115.396852 122.246004,117.133634 L78.1176131,155.959224 C76.6384872,157.263513 74.7299377,157.982064 72.7566338,157.982064" id="Fill-427"></path>
                            </g>
                            <g id="Group-435" transform="translate(0.004031, 0.125897)">
                                <mask id="mask-2" fill="white">
                                    <use xlink:href="#path-1"></use>
                                </mask>
                                <g id="Clip-430"></g>
                                <polyline id="Fill-429" fill="#29BAA1" mask="url(#mask-2)" points="19.7773443 1.59034738 31.8932256 18.3996722 22.1289499 31.3369949 9.61431816 14.7660519 19.7773443 1.59034738"></polyline>
                                <polyline id="Fill-431" fill="#29BAA1" mask="url(#mask-2)" points="-5.94376847 107.874591 13.4791309 100.631189 23.3899559 113.456131 4.09315707 121.149054 -5.94376847 107.874591"></polyline>
                                <polyline id="Fill-432" fill="#29BAA1" mask="url(#mask-2)" points="71.8262159 141.122046 78.4345686 161.115471 44.3056136 161.224446 52.4033165 140.900692 71.8262159 141.122046"></polyline>
                                <polyline id="Fill-433" fill="#29BAA1" mask="url(#mask-2)" points="105.409871 1.59034738 93.2905817 18.3996722 103.054857 31.3369949 115.572897 14.7660519 105.409871 1.59034738"></polyline>
                                <polyline id="Fill-434" fill="#29BAA1" mask="url(#mask-2)" points="131.130984 107.874591 111.708084 100.631189 101.797259 113.456131 121.094058 121.149054 131.130984 107.874591"></polyline>
                            </g>
                            <g id="Group-453" transform="translate(6.138654, 6.688976)">
                                <path d="M63.8341649,134.776916 L48.8963568,134.776916 C46.9230529,134.776916 45.0179116,134.058365 43.5353776,132.754076 L9.78472436,103.058511 C7.81142049,101.321729 6.80261575,98.7369885 7.07867381,96.1250046 L14.6208525,24.6819688 C14.7674018,23.2823269 15.2786205,21.9439831 16.1033865,20.7997503 L21.4336926,13.3928862 C22.9571241,11.2746933 25.4109735,10.0180805 28.0215966,10.0180805 L84.7089251,10.0180805 C87.3195482,10.0180805 89.7733976,11.2746933 91.2968291,13.3928862 L96.6305433,20.7997503 C97.4519012,21.9439831 97.9631198,23.2823269 98.1130773,24.6819688 L105.651848,96.1250046 C105.927906,98.7369885 104.919101,101.321729 102.945797,103.058511 L69.1951441,132.754076 C67.7160182,134.058365 65.8074687,134.776916 63.8341649,134.776916" id="Fill-436" fill="#F2FFFE"></path>
                                <path d="M13.6768021,7.78410216 L12.5793861,7.78410216 C12.1192894,7.78410216 11.696682,8.02929491 11.4649296,8.42773312 L10.9162216,9.377855 C10.6878773,9.77288776 10.6878773,10.2632732 10.9162216,10.658306 L11.4649296,11.6084279 C11.696682,12.0068661 12.1192894,12.2520588 12.5793861,12.2520588 L13.6768021,12.2520588 C14.1334907,12.2520588 14.5595063,12.0068661 14.7878506,11.6084279 L15.3365586,10.658306 C15.5649029,10.2632732 15.5649029,9.77288776 15.3365586,9.377855 L14.7878506,8.42773312 C14.5595063,8.02929491 14.1334907,7.78410216 13.6768021,7.78410216" id="Fill-440" fill="#DBFCFF"></path>
                                <path d="M56.9156729,0.06053072 L55.8148488,0.06053072 C55.3581602,0.06053072 54.9355528,0.305723464 54.7038003,0.700756219 L54.1550923,1.6508781 C53.926748,2.04931631 53.926748,2.53629635 54.1550923,2.93473456 L54.7038003,3.88485644 C54.9355528,4.28329465 55.3581602,4.52508194 55.8148488,4.52508194 L56.9156729,4.52508194 C57.3723615,4.52508194 57.798377,4.28329465 58.0267213,3.88485644 L58.5754293,2.93473456 C58.8037736,2.53629635 58.8037736,2.04931631 58.5754293,1.6508781 L58.0267213,0.700756219 C57.798377,0.305723464 57.3723615,0.06053072 56.9156729,0.06053072" id="Fill-441" fill="#DBFCFF"></path>
                                <path d="M7.58307618,40.1359226 L6.48566021,40.1359226 C6.02556345,40.1359226 5.60295606,40.3811153 5.37120362,40.7795535 L4.82249564,41.7296754 C4.59415132,42.1247082 4.59415132,42.6150937 4.82249564,43.0101264 L5.37120362,43.9602483 C5.60295606,44.3586865 6.02556345,44.6038793 6.48566021,44.6038793 L7.58307618,44.6038793 C8.03976481,44.6038793 8.46578033,44.3586865 8.69412464,43.9602483 L9.24283263,43.0101264 C9.47117694,42.6150937 9.47117694,42.1247082 9.24283263,41.7296754 L8.69412464,40.7795535 C8.46578033,40.3811153 8.03976481,40.1359226 7.58307618,40.1359226" id="Fill-442" fill="#DBFCFF"></path>
                                <path d="M3.08435233,72.3992012 L1.98693636,72.3992012 C1.52683961,72.3992012 1.10423222,72.6409885 0.8758879,73.0394267 L0.327179916,73.9895486 C0.0954274755,74.3879868 0.0954274755,74.8749668 0.327179916,75.273405 L0.8758879,76.2235269 C1.10423222,76.6185597 1.52683961,76.8637524 1.98693636,76.8637524 L3.08435233,76.8637524 C3.54444909,76.8637524 3.96705648,76.6185597 4.1954008,76.2235269 L4.74410878,75.273405 C4.97586122,74.8749668 4.97586122,74.3879868 4.74410878,73.9895486 L4.1954008,73.0394267 C3.96705648,72.6409885 3.54444909,72.3992012 3.08435233,72.3992012" id="Fill-443" fill="#DBFCFF"></path>
                                <path d="M105.334892,40.1359226 L106.435716,40.1359226 C106.892405,40.1359226 107.315012,40.3811153 107.546765,40.7795535 L108.095473,41.7296754 C108.323817,42.1247082 108.323817,42.6150937 108.095473,43.0101264 L107.546765,43.9602483 C107.315012,44.3586865 106.892405,44.6038793 106.435716,44.6038793 L105.334892,44.6038793 C104.878204,44.6038793 104.452188,44.3586865 104.223844,43.9602483 L103.675136,43.0101264 C103.446792,42.6150937 103.446792,42.1247082 103.675136,41.7296754 L104.223844,40.7795535 C104.452188,40.3811153 104.878204,40.1359226 105.334892,40.1359226" id="Fill-444" fill="#DBFCFF"></path>
                                <path d="M109.833616,72.3992012 L110.931032,72.3992012 C111.391129,72.3992012 111.813736,72.6409885 112.045489,73.0394267 L112.594197,73.9895486 C112.822541,74.3879868 112.822541,74.8749668 112.594197,75.273405 L112.045489,76.2235269 C111.813736,76.6185597 111.391129,76.8637524 110.931032,76.8637524 L109.833616,76.8637524 C109.376928,76.8637524 108.950912,76.6185597 108.722568,76.2235269 L108.17386,75.273405 C107.945515,74.8749668 107.945515,74.3879868 108.17386,73.9895486 L108.722568,73.0394267 C108.950912,72.6409885 109.376928,72.3992012 109.833616,72.3992012" id="Fill-445" fill="#DBFCFF"></path>
                                <path d="M12.4192043,111.868422 L11.3183802,111.868422 C10.8616916,111.868422 10.4390842,112.113615 10.2073318,112.512053 L9.65862377,113.462175 C9.43027945,113.857208 9.43027945,114.347593 9.65862377,114.742626 L10.2073318,115.692748 C10.4390842,116.091186 10.8616916,116.336379 11.3183802,116.336379 L12.4192043,116.336379 C12.8758929,116.336379 13.3019085,116.091186 13.5302528,115.692748 L14.0789608,114.742626 C14.3073051,114.347593 14.3073051,113.857208 14.0789608,113.462175 L13.5302528,112.512053 C13.3019085,112.113615 12.8758929,111.868422 12.4192043,111.868422" id="Fill-446" fill="#DBFCFF"></path>
                                <path d="M30.2334691,128.786721 L29.1360531,128.786721 C28.6793645,128.786721 28.253349,129.031914 28.0250047,129.426947 L27.4762967,130.377069 C27.2479524,130.775507 27.2479524,131.262487 27.4762967,131.660925 L28.0250047,132.611047 C28.253349,133.009485 28.6793645,133.251273 29.1360531,133.251273 L30.2334691,133.251273 C30.6935659,133.251273 31.1161733,133.009485 31.3479257,132.611047 L31.8966337,131.660925 C32.124978,131.262487 32.124978,130.775507 31.8966337,130.377069 L31.3479257,129.426947 C31.1161733,129.031914 30.6935659,128.786721 30.2334691,128.786721" id="Fill-447" fill="#DBFCFF"></path>
                                <path d="M99.1627795,111.868422 L100.260196,111.868422 C100.720292,111.868422 101.1429,112.113615 101.374652,112.512053 L101.92336,113.462175 C102.151704,113.857208 102.151704,114.347593 101.92336,114.742626 L101.374652,115.692748 C101.1429,116.091186 100.720292,116.336379 100.260196,116.336379 L99.1627795,116.336379 C98.7060909,116.336379 98.2800754,116.091186 98.0517311,115.692748 L97.5030231,114.742626 C97.2746788,114.347593 97.2746788,113.857208 97.5030231,113.462175 L98.0517311,112.512053 C98.2800754,112.113615 98.7060909,111.868422 99.1627795,111.868422" id="Fill-448" fill="#DBFCFF"></path>
                                <path d="M81.3451066,128.786721 L82.4459307,128.786721 C82.9026193,128.786721 83.3252267,129.031914 83.5569792,129.426947 L84.1056872,130.377069 C84.3340315,130.775507 84.3340315,131.262487 84.1056872,131.660925 L83.5569792,132.611047 C83.3252267,133.009485 82.9026193,133.251273 82.4459307,133.251273 L81.3451066,133.251273 C80.888418,133.251273 80.4624025,133.009485 80.2340581,132.611047 L79.6853502,131.660925 C79.4570058,131.262487 79.4570058,130.775507 79.6853502,130.377069 L80.2340581,129.426947 C80.4624025,129.031914 80.888418,128.786721 81.3451066,128.786721" id="Fill-449" fill="#DBFCFF"></path>
                                <path d="M100.549886,7.78410216 L99.4524701,7.78410216 C98.9923733,7.78410216 98.5697659,8.02929491 98.3414216,8.42773312 L97.7927136,9.377855 C97.5609612,9.77288776 97.5609612,10.2632732 97.7927136,10.658306 L98.3414216,11.6084279 C98.5697659,12.0068661 98.9923733,12.2520588 99.4524701,12.2520588 L100.549886,12.2520588 C101.009983,12.2520588 101.43259,12.0068661 101.660935,11.6084279 L102.209643,10.658306 C102.441395,10.2632732 102.441395,9.77288776 102.209643,9.377855 L101.660935,8.42773312 C101.43259,8.02929491 101.009983,7.78410216 100.549886,7.78410216" id="Fill-450" fill="#DBFCFF"></path>
                            </g>
                        </g>
                    </g>
                    <g id="Rating" filter="url(#filter-3)" transform="translate(24.970455, 57.726854)">
                        <rect id="Rectangle" fill="#2EABB4" x="0" y="0.2350371" width="72.9752873" height="30.3825545" rx="10"></rect>
                        <g id="Icons/icon-Security-check" transform="translate(7.081274, 4.488595)">
                            <mask id="mask-5" fill="white">
                                <use xlink:href="#path-4"></use>
                            </mask>
                            <g id="Security-check" fill-rule="nonzero"></g>
                            <g id="🎨-color" mask="url(#mask-5)" fill="#282828">
                                <g transform="translate(-1.000000, 0.000000)" id="color-source">
                                    <rect x="0" y="0" width="22.5007136" height="21.2677882"></rect>
                                </g>
                            </g>
                        </g>
                        <path d="M45.8111722,21.5028253 L45.8111722,18.3728651 L47.6523948,18.3728651 L47.6523948,16.9587264 L45.8111722,16.9587264 L45.8111722,8.13450128 L44.5069728,8.13450128 L38.3120258,16.8267401 L38.3120258,18.3728651 L44.27682,18.3728651 L44.27682,21.5028253 L45.8111722,21.5028253 Z M44.27682,16.9587264 L39.7121222,16.9587264 L44.2384612,10.4159783 L44.27682,10.4159783 L44.27682,16.9587264 Z M52.1595544,21.5028253 L52.1595544,19.4099001 L50.0306407,19.4099001 L50.0306407,21.5028253 L52.1595544,21.5028253 Z M63.1109931,21.5028253 L63.1109931,20.0886866 L56.1296907,20.0886866 C56.2064083,19.6738726 56.3694332,19.3061966 56.6187654,18.9856585 C56.8680976,18.6651204 57.168575,18.36658 57.5201973,18.0900373 C57.8718197,17.8134947 58.2586043,17.5526647 58.6805512,17.3075473 C59.102498,17.0624299 59.5244449,16.81417 59.9463917,16.5627676 C60.3683386,16.2987951 60.7774992,16.0222524 61.1738735,15.7331396 C61.5702478,15.4440268 61.9218702,15.1203462 62.2287406,14.7620977 C62.5356111,14.4038493 62.7817467,13.9984629 62.9671476,13.5459385 C63.1525485,13.0934141 63.245249,12.5717541 63.245249,11.9809584 C63.245249,11.3524523 63.1333691,10.799367 62.9096094,10.3217024 C62.6858497,9.84403777 62.3821758,9.44493642 61.9985878,9.12439833 C61.6149997,8.80386023 61.1642838,8.55874287 60.6464399,8.38904623 C60.1285961,8.21934959 59.57559,8.13450128 58.9874216,8.13450128 C58.2713906,8.13450128 57.6320772,8.25391743 57.0694814,8.49274973 C56.5068856,8.73158204 56.0369902,9.06154772 55.6597953,9.48264678 C55.2826004,9.90374585 55.004499,10.4034082 54.8254913,10.9816337 C54.6464835,11.5598593 54.5761591,12.1883654 54.6145179,12.8671519 L56.2447671,12.8671519 C56.2319808,12.4649081 56.2735362,12.0658067 56.3694332,11.6698479 C56.4653302,11.2738891 56.621962,10.9187831 56.8393285,10.6045301 C57.0566951,10.2902771 57.3347964,10.0357321 57.6736326,9.84089524 C58.0124687,9.64605836 58.4184327,9.54863992 58.8915246,9.54863992 C59.2495401,9.54863992 59.5883762,9.60520547 59.9080329,9.71833656 C60.2276896,9.83146765 60.505791,9.99487923 60.7423369,10.2085713 C60.9788829,10.4222634 61.1674804,10.6768083 61.3081293,10.9722062 C61.4487783,11.267604 61.5191027,11.5975697 61.5191027,11.9621032 C61.5191027,12.4271977 61.4455817,12.8357266 61.2985396,13.18769 C61.1514975,13.5396534 60.934131,13.8664766 60.6464399,14.1681595 C60.3587489,14.4698424 59.9975368,14.7683828 59.5628037,15.0637806 C59.1280706,15.3591785 58.623013,15.6828591 58.0476309,16.0348225 C57.574539,16.3113652 57.1206264,16.606763 56.6858933,16.9210161 C56.2511602,17.2352691 55.861179,17.5998026 55.5159498,18.0146166 C55.1707205,18.4294306 54.8862261,18.9165228 54.6624664,19.4758932 C54.4387067,20.0352636 54.2948612,20.7109076 54.2309298,21.5028253 L63.1109931,21.5028253 Z" id="4.2" fill="#FFFFFF" fill-rule="nonzero"></path>
                    </g>
                </g>
                <g id="a-icon-gb-safe" filter="url(#filter-6)" transform="translate(132.000000, 52.054920)">
                    <g>
                        <g id="Group" transform="translate(21.865539, 9.375000)">
                            <path d="M4,0 L142.811475,0 C145.020614,-4.05812251e-16 146.811475,1.790861 146.811475,4 L146.811475,33.5 C146.811475,35.709139 145.020614,37.5 142.811475,37.5 L4,37.5 C1.790861,37.5 2.705415e-16,35.709139 0,33.5 L0,4 C-7.1463071e-16,1.790861 1.790861,4.05812251e-16 4,0 Z" id="Rectangle" stroke="#E8E8E8" fill="#FFFFFF"></path>
                            <path d="M40.5636982,26.88125 C41.2259116,26.88125 41.8756305,26.803125 42.5128548,26.646875 C43.150079,26.490625 43.718583,26.24375 44.2183668,25.90625 C44.7181505,25.56875 45.1211012,25.134375 45.4272187,24.603125 C45.7333363,24.071875 45.886395,23.43125 45.886395,22.68125 C45.886395,22.33125 45.833293,21.98125 45.727089,21.63125 C45.6208849,21.28125 45.4584552,20.953125 45.2397998,20.646875 C45.0211444,20.340625 44.749387,20.06875 44.4245276,19.83125 C44.0996681,19.59375 43.718583,19.40625 43.2812723,19.26875 C43.106348,19.21875 42.8158486,19.140625 42.4097744,19.034375 C42.0037001,18.928125 41.5882548,18.81875 41.1634386,18.70625 C40.7386225,18.59375 40.3544137,18.490625 40.0108124,18.396875 C39.6672111,18.303125 39.4704212,18.25 39.4204428,18.2375 C38.9456483,18.1 38.5614395,17.896875 38.2678166,17.628125 C37.9741936,17.359375 37.8273822,16.9875 37.8273822,16.5125 C37.8273822,16.175 37.9054734,15.89375 38.0616558,15.66875 C38.2178382,15.44375 38.4146281,15.265625 38.6520253,15.134375 C38.8894226,15.003125 39.1518091,14.909375 39.4391847,14.853125 C39.7265604,14.796875 40.0076887,14.76875 40.2825698,14.76875 C41.0947184,14.76875 41.7631791,14.946875 42.2879521,15.303125 C42.812725,15.659375 43.106348,16.26875 43.1688209,17.13125 L43.1688209,17.13125 L45.5115572,17.13125 C45.5115572,16.43125 45.3741167,15.815625 45.0992356,15.284375 C44.8243546,14.753125 44.4526404,14.30625 43.9840932,13.94375 C43.5155459,13.58125 42.9720311,13.309375 42.3535487,13.128125 C41.7350663,12.946875 41.0759765,12.85625 40.3762792,12.85625 C39.7765388,12.85625 39.1830456,12.934375 38.5957997,13.090625 C38.0085538,13.246875 37.4837808,13.4875 37.0214809,13.8125 C36.5591809,14.1375 36.1874667,14.546875 35.9063384,15.040625 C35.62521,15.534375 35.4846458,16.11875 35.4846458,16.79375 C35.4846458,17.14375 35.5315006,17.4875 35.62521,17.825 C35.7189195,18.1625 35.8782255,18.48125 36.1031282,18.78125 C36.3280309,19.08125 36.6310248,19.353125 37.0121099,19.596875 C37.393195,19.840625 37.8711132,20.0375 38.4458645,20.1875 C39.3704645,20.4375 40.1482529,20.640625 40.7792299,20.796875 C41.4102069,20.953125 41.9630926,21.11875 42.4378872,21.29375 C42.7127683,21.39375 42.9657838,21.565625 43.1969338,21.809375 C43.4280837,22.053125 43.5436587,22.43125 43.5436587,22.94375 C43.5436587,23.19375 43.4936804,23.440625 43.3937236,23.684375 C43.2937669,23.928125 43.1313371,24.14375 42.9064345,24.33125 C42.6815318,24.51875 42.3879088,24.671875 42.0255656,24.790625 C41.6632224,24.909375 41.2259116,24.96875 40.7136333,24.96875 C40.2388387,24.96875 39.7984043,24.915625 39.39233,24.809375 C38.9862557,24.703125 38.6270361,24.534375 38.3146713,24.303125 C38.0023065,24.071875 37.7586619,23.775 37.5837376,23.4125 C37.4088133,23.05 37.3213511,22.6125 37.3213511,22.1 L37.3213511,22.1 L34.9786148,22.1 C34.9911094,22.925 35.1472918,23.640625 35.4471621,24.246875 C35.7470323,24.853125 36.1468593,25.35 36.6466431,25.7375 C37.1464268,26.125 37.7336727,26.4125 38.4083808,26.6 C39.0830888,26.7875 39.8015279,26.88125 40.5636982,26.88125 Z M55.4260172,26.825 C55.5134794,26.825 55.6196834,26.81875 55.7446294,26.80625 C55.8695753,26.79375 55.9945213,26.775 56.1194672,26.75 C56.2444131,26.725 56.3662354,26.696875 56.4849341,26.665625 C56.6036327,26.634375 56.7004658,26.60625 56.7754334,26.58125 L56.7754334,26.58125 L56.7754334,25.1 C56.662982,25.125 56.5630253,25.1375 56.4755631,25.1375 L56.4755631,25.1375 L56.2506604,25.1375 C56.0507469,25.1375 55.91643,25.08125 55.8477098,24.96875 C55.7789895,24.85625 55.7446294,24.66875 55.7446294,24.40625 L55.7446294,24.40625 L55.7446294,19.41875 C55.7446294,18.90625 55.632178,18.471875 55.4072754,18.115625 C55.1823727,17.759375 54.8856261,17.46875 54.5170356,17.24375 C54.1484451,17.01875 53.7329998,16.85625 53.2706999,16.75625 C52.8083999,16.65625 52.3398526,16.60625 51.8650581,16.60625 C51.3277905,16.60625 50.8030176,16.65625 50.2907393,16.75625 C49.7784609,16.85625 49.3192846,17.03125 48.9132103,17.28125 C48.507136,17.53125 48.1729057,17.8625 47.9105192,18.275 C47.6481327,18.6875 47.4981976,19.20625 47.4607138,19.83125 L47.4607138,19.83125 L49.5972893,19.83125 C49.6472677,19.30625 49.8659231,18.91875 50.2532555,18.66875 C50.6405879,18.41875 51.1341243,18.29375 51.7338648,18.29375 C51.9462729,18.29375 52.1711756,18.309375 52.4085729,18.340625 C52.6459702,18.371875 52.8615019,18.434375 53.0551681,18.528125 C53.2488343,18.621875 53.411264,18.75625 53.5424573,18.93125 C53.6736505,19.10625 53.7392471,19.33125 53.7392471,19.60625 C53.7392471,19.91875 53.6611559,20.153125 53.5049735,20.309375 C53.3487911,20.465625 53.136383,20.58125 52.8677492,20.65625 C52.5991154,20.73125 52.2898743,20.784375 51.9400256,20.815625 C51.590177,20.846875 51.2215865,20.9 50.8342541,20.975 C50.3844487,21.025 49.937767,21.096875 49.4942089,21.190625 C49.0506509,21.284375 48.6508239,21.4375 48.2947279,21.65 C47.938632,21.8625 47.6512564,22.15625 47.432601,22.53125 C47.2139456,22.90625 47.1046179,23.39375 47.1046179,23.99375 C47.1046179,24.46875 47.1952037,24.884375 47.3763753,25.240625 C47.5575469,25.596875 47.8011915,25.890625 48.107309,26.121875 C48.4134266,26.353125 48.7663989,26.528125 49.1662259,26.646875 C49.5660528,26.765625 49.9846217,26.825 50.4219325,26.825 C50.9966838,26.825 51.5933007,26.73125 52.211783,26.54375 C52.8302654,26.35625 53.3519147,26.05625 53.7767309,25.64375 C53.864193,26.08125 54.051612,26.3875 54.3389876,26.5625 C54.6263633,26.7375 54.9887065,26.825 55.4260172,26.825 Z M51.2090919,25.1375 C51.021673,25.1375 50.8123886,25.11875 50.5812386,25.08125 C50.3500886,25.04375 50.1376805,24.978125 49.9440143,24.884375 C49.7503481,24.790625 49.5847947,24.6625 49.4473542,24.5 C49.3099137,24.3375 49.2411934,24.1375 49.2411934,23.9 C49.2411934,23.625 49.2880481,23.390625 49.3817576,23.196875 C49.475467,23.003125 49.6035366,22.846875 49.7659663,22.728125 C49.9283961,22.609375 50.115815,22.515625 50.3282231,22.446875 C50.5406311,22.378125 50.7592865,22.325 50.9841892,22.2875 C51.4589838,22.2 51.9337783,22.134375 52.4085729,22.090625 C52.8833674,22.046875 53.2831944,21.91875 53.6080539,21.70625 L53.6080539,21.70625 L53.6080539,23.3 C53.6080539,23.6375 53.526839,23.921875 53.3644093,24.153125 C53.2019796,24.384375 52.9989424,24.575 52.7552979,24.725 C52.5116533,24.875 52.2523905,24.98125 51.9775094,25.04375 C51.7026284,25.10625 51.4464892,25.1375 51.2090919,25.1375 Z M60.8236817,26.5625 L60.8236817,18.4625 L62.6416451,18.4625 L62.6416451,16.86875 L60.8236817,16.86875 L60.8236817,15.875 C60.8236817,15.475 60.9267621,15.20625 61.1329229,15.06875 C61.3390837,14.93125 61.5858519,14.8625 61.8732276,14.8625 C62.0856356,14.8625 62.2699309,14.871875 62.4261133,14.890625 C62.5822957,14.909375 62.7291072,14.9375 62.8665477,14.975 L62.8665477,14.975 L62.8665477,13.30625 C62.5541829,13.21875 62.0543992,13.175 61.3671965,13.175 C61.0173479,13.175 60.6831175,13.209375 60.3645054,13.278125 C60.0458932,13.346875 59.7616412,13.484375 59.5117494,13.690625 C59.2618575,13.896875 59.061944,14.190625 58.9120089,14.571875 C58.7620737,14.953125 58.6871062,15.45 58.6871062,16.0625 L58.6871062,16.0625 L58.6871062,16.86875 L57.0940455,16.86875 L57.0940455,18.4625 L58.6871062,18.4625 L58.6871062,26.5625 L60.8236817,26.5625 Z M68.2267284,26.825 C68.7515013,26.825 69.2544087,26.753125 69.7354506,26.609375 C70.2164924,26.465625 70.6506796,26.253125 71.038012,25.971875 C71.4253444,25.690625 71.7564511,25.34375 72.0313322,24.93125 C72.3062132,24.51875 72.4998794,24.05 72.6123308,23.525 L72.6123308,23.525 L70.5882066,23.525 C70.4007877,24.0625 70.1165357,24.465625 69.7354506,24.734375 C69.3543655,25.003125 68.8514581,25.1375 68.2267284,25.1375 C67.776923,25.1375 67.3895906,25.059375 67.0647312,24.903125 C66.7398718,24.746875 66.471238,24.5375 66.2588299,24.275 C66.0464218,24.0125 65.8871157,23.70625 65.7809117,23.35625 C65.6747077,23.00625 65.6216056,22.64375 65.6216056,22.26875 L65.6216056,22.26875 L72.743524,22.26875 C72.8309861,21.54375 72.7841314,20.840625 72.6029598,20.159375 C72.4217882,19.478125 72.1312889,18.875 71.7314619,18.35 C71.3316349,17.825 70.8287275,17.403125 70.2227397,17.084375 C69.6167519,16.765625 68.9326729,16.60625 68.1705027,16.60625 C67.4458163,16.60625 66.7960974,16.74375 66.2213461,17.01875 C65.6465948,17.29375 65.156182,17.665625 64.7501077,18.134375 C64.3440334,18.603125 64.0316686,19.146875 63.8130132,19.765625 C63.5943578,20.384375 63.4850301,21.0375 63.4850301,21.725 C63.4850301,22.475 63.5881105,23.1625 63.7942713,23.7875 C64.0004321,24.4125 64.3065497,24.95 64.7126239,25.4 C65.1186982,25.85 65.6153583,26.2 66.2026042,26.45 C66.7898501,26.7 67.4645582,26.825 68.2267284,26.825 Z M70.6069485,20.8625 L65.6216056,20.8625 C65.6341002,20.5 65.7059441,20.1625 65.8371374,19.85 C65.9683306,19.5375 66.1432549,19.265625 66.3619103,19.034375 C66.5805657,18.803125 66.8429522,18.621875 67.1490697,18.490625 C67.4551872,18.359375 67.7956649,18.29375 68.1705027,18.29375 C68.5328459,18.29375 68.860829,18.365625 69.154452,18.509375 C69.4480749,18.653125 69.6979668,18.840625 69.9041276,19.071875 C70.1102884,19.303125 70.2727181,19.575 70.3914167,19.8875 C70.5101154,20.2 70.5819593,20.525 70.6069485,20.8625 L70.6069485,20.8625 Z M84.6821082,26.8625 C85.2943433,26.8625 85.909702,26.790625 86.5281844,26.646875 C87.1466668,26.503125 87.7057998,26.271875 88.2055836,25.953125 C88.7053673,25.634375 89.1145653,25.221875 89.4331774,24.715625 C89.7517895,24.209375 89.9110956,23.6 89.9110956,22.8875 C89.9110956,22.225 89.7892733,21.675 89.5456287,21.2375 C89.3019842,20.8 88.9771247,20.4375 88.5710504,20.15 C88.1649762,19.8625 87.7057998,19.634375 87.1935215,19.465625 C86.6812432,19.296875 86.1595939,19.15 85.6285736,19.025 C85.0975534,18.9 84.5759041,18.784375 84.0636258,18.678125 C83.5513475,18.571875 83.0921711,18.4375 82.6860969,18.275 C82.2800226,18.1125 81.9551631,17.903125 81.7115186,17.646875 C81.467874,17.390625 81.3460517,17.05625 81.3460517,16.64375 C81.3460517,16.20625 81.4303902,15.840625 81.5990672,15.546875 C81.7677442,15.253125 81.9926469,15.01875 82.2737753,14.84375 C82.5549036,14.66875 82.8766394,14.54375 83.2389826,14.46875 C83.6013258,14.39375 83.9699163,14.35625 84.3447542,14.35625 C85.2693541,14.35625 86.0284006,14.571875 86.6218938,15.003125 C87.215387,15.434375 87.562112,16.13125 87.6620688,17.09375 L89.3488389,17.09375 C89.3238497,16.35625 89.1832855,15.721875 88.9271464,15.190625 C88.6710072,14.659375 88.3211586,14.21875 87.8776005,13.86875 C87.4340424,13.51875 86.9186404,13.2625 86.3313945,13.1 C85.7441486,12.9375 85.1069244,12.85625 84.4197217,12.85625 C83.8074866,12.85625 83.2108698,12.934375 82.6298712,13.090625 C82.0488726,13.246875 81.5303469,13.484375 81.0742943,13.803125 C80.6182416,14.121875 80.2527747,14.528125 79.9778937,15.021875 C79.7030126,15.515625 79.5655721,16.1 79.5655721,16.775 C79.5655721,17.3875 79.6873944,17.896875 79.931039,18.303125 C80.1746835,18.709375 80.499543,19.040625 80.9056173,19.296875 C81.3116916,19.553125 81.7708679,19.759375 82.2831462,19.915625 C82.7954245,20.071875 83.3170738,20.209375 83.8480941,20.328125 C84.3791143,20.446875 84.9007636,20.5625 85.4130419,20.675 C85.9253202,20.7875 86.3844966,20.934375 86.7905709,21.115625 C87.1966451,21.296875 87.5215046,21.53125 87.7651492,21.81875 C88.0087937,22.10625 88.130616,22.48125 88.130616,22.94375 C88.130616,23.43125 88.0306593,23.83125 87.8307458,24.14375 C87.6308323,24.45625 87.3684458,24.703125 87.0435864,24.884375 C86.7187269,25.065625 86.3532601,25.19375 85.9471858,25.26875 C85.5411115,25.34375 85.1381609,25.38125 84.7383339,25.38125 C84.2385501,25.38125 83.751261,25.31875 83.2764664,25.19375 C82.8016718,25.06875 82.3862266,24.875 82.0301307,24.6125 C81.6740348,24.35 81.3866591,24.015625 81.1680037,23.609375 C80.9493483,23.203125 80.8400206,22.71875 80.8400206,22.15625 L79.1532505,22.15625 C79.1532505,22.96875 79.300062,23.671875 79.5936849,24.265625 C79.8873079,24.859375 80.2871349,25.346875 80.7931659,25.728125 C81.299197,26.109375 81.8864429,26.39375 82.5549036,26.58125 C83.2233644,26.76875 83.9324326,26.8625 84.6821082,26.8625 Z M100.46278,30.25625 L100.46278,16.86875 L98.8697192,16.86875 L98.8697192,18.1625 L98.8322354,18.1625 C98.6573111,17.875 98.4417794,17.634375 98.1856402,17.440625 C97.9295011,17.246875 97.6577436,17.090625 97.370368,16.971875 C97.0829923,16.853125 96.7956167,16.76875 96.508241,16.71875 C96.2208654,16.66875 95.9522316,16.64375 95.7023397,16.64375 C94.9651587,16.64375 94.3185635,16.778125 93.7625541,17.046875 C93.2065447,17.315625 92.7442447,17.678125 92.3756542,18.134375 C92.0070637,18.590625 91.7321826,19.125 91.551011,19.7375 C91.3698394,20.35 91.2792536,21 91.2792536,21.6875 C91.2792536,22.375 91.3729631,23.025 91.560382,23.6375 C91.7478009,24.25 92.0258056,24.7875 92.3943961,25.25 C92.7629866,25.7125 93.2252866,26.08125 93.781296,26.35625 C94.3373054,26.63125 94.9901479,26.76875 95.7398235,26.76875 C96.4145316,26.76875 97.033014,26.65 97.5952707,26.4125 C98.1575274,26.175 98.569849,25.7875 98.8322354,25.25 L98.8697192,25.25 L98.8697192,30.25625 L100.46278,30.25625 Z M95.9647262,25.38125 C95.4524479,25.38125 95.0057662,25.28125 94.624681,25.08125 C94.2435959,24.88125 93.9312311,24.6125 93.6875865,24.275 C93.443942,23.9375 93.2627703,23.553125 93.1440717,23.121875 C93.0253731,22.690625 92.9660237,22.25 92.9660237,21.8 C92.9660237,21.325 93.0160021,20.8625 93.1159589,20.4125 C93.2159156,19.9625 93.3783453,19.5625 93.603248,19.2125 C93.8281507,18.8625 94.128021,18.58125 94.5028588,18.36875 C94.8776966,18.15625 95.3337492,18.05 95.8710168,18.05 C96.4207789,18.05 96.8893261,18.153125 97.2766585,18.359375 C97.6639909,18.565625 97.9794794,18.8375 98.223124,19.175 C98.4667686,19.5125 98.6448165,19.903125 98.7572679,20.346875 C98.8697192,20.790625 98.9259449,21.25 98.9259449,21.725 C98.9259449,22.175 98.8728429,22.61875 98.7666388,23.05625 C98.6604348,23.49375 98.4886341,23.884375 98.2512368,24.228125 C98.0138396,24.571875 97.707722,24.85 97.3328842,25.0625 C96.9580464,25.275 96.5019937,25.38125 95.9647262,25.38125 Z M106.254024,26.76875 C106.966216,26.76875 107.584698,26.628125 108.109471,26.346875 C108.634244,26.065625 109.065308,25.625 109.402662,25.025 L109.440145,25.025 L109.440145,26.5625 L110.939497,26.5625 L110.939497,16.86875 L109.346436,16.86875 L109.346436,22.34375 C109.346436,22.78125 109.287087,23.184375 109.168388,23.553125 C109.049689,23.921875 108.871641,24.24375 108.634244,24.51875 C108.396847,24.79375 108.1001,25.00625 107.744004,25.15625 C107.387908,25.30625 106.966216,25.38125 106.478927,25.38125 C105.866692,25.38125 105.38565,25.20625 105.035801,24.85625 C104.685953,24.50625 104.511028,24.03125 104.511028,23.43125 L104.511028,16.86875 L102.917968,16.86875 L102.917968,23.24375 C102.917968,23.76875 102.97107,24.246875 103.077274,24.678125 C103.183478,25.109375 103.367773,25.48125 103.630159,25.79375 C103.892546,26.10625 104.236147,26.346875 104.660963,26.515625 C105.08578,26.684375 105.6168,26.76875 106.254024,26.76875 Z M120.778989,26.76875 C121.266278,26.76875 121.647363,26.6875 121.922244,26.525 L121.922244,26.525 L121.922244,25.2875 C121.734826,25.35 121.572396,25.38125 121.434955,25.38125 C121.185063,25.38125 121.038252,25.29375 120.994521,25.11875 C120.95079,24.94375 120.928924,24.66875 120.928924,24.29375 L120.928924,24.29375 L120.928924,19.30625 C120.928924,18.74375 120.82272,18.2875 120.610312,17.9375 C120.397904,17.5875 120.116776,17.315625 119.766927,17.121875 C119.417078,16.928125 119.026622,16.8 118.595559,16.7375 C118.164495,16.675 117.730308,16.64375 117.292998,16.64375 C116.743235,16.64375 116.227833,16.7 115.746792,16.8125 C115.26575,16.925 114.83781,17.109375 114.462972,17.365625 C114.088134,17.621875 113.788264,17.95625 113.563361,18.36875 C113.338459,18.78125 113.213513,19.2875 113.188524,19.8875 L113.188524,19.8875 L114.781584,19.8875 C114.819068,19.175 115.062713,18.690625 115.512518,18.434375 C115.962323,18.178125 116.52458,18.05 117.199288,18.05 C117.44918,18.05 117.702195,18.06875 117.958335,18.10625 C118.214474,18.14375 118.445624,18.21875 118.651785,18.33125 C118.857945,18.44375 119.026622,18.60625 119.157816,18.81875 C119.289009,19.03125 119.354605,19.3125 119.354605,19.6625 C119.354605,19.9625 119.267143,20.190625 119.092219,20.346875 C118.917295,20.503125 118.679897,20.621875 118.380027,20.703125 C118.080157,20.784375 117.733432,20.846875 117.339852,20.890625 C116.946273,20.934375 116.530827,21 116.093517,21.0875 C115.681195,21.1625 115.278244,21.25625 114.884665,21.36875 C114.491085,21.48125 114.141236,21.646875 113.835119,21.865625 C113.529001,22.084375 113.282233,22.36875 113.094814,22.71875 C112.907395,23.06875 112.813686,23.51875 112.813686,24.06875 C112.813686,24.55625 112.898024,24.971875 113.066701,25.315625 C113.235378,25.659375 113.463405,25.9375 113.75078,26.15 C114.038156,26.3625 114.378634,26.51875 114.772213,26.61875 C115.165793,26.71875 115.581238,26.76875 116.018549,26.76875 C116.693257,26.76875 117.32111,26.653125 117.902109,26.421875 C118.483108,26.190625 118.992262,25.8125 119.429573,25.2875 C119.429573,25.8125 119.551395,26.190625 119.79504,26.421875 C120.038684,26.653125 120.366668,26.76875 120.778989,26.76875 Z M116.374645,25.38125 C116.124753,25.38125 115.887356,25.35625 115.662453,25.30625 C115.43755,25.25625 115.240761,25.175 115.072083,25.0625 C114.903406,24.95 114.765966,24.803125 114.659762,24.621875 C114.553558,24.440625 114.500456,24.21875 114.500456,23.95625 C114.500456,23.55625 114.591042,23.240625 114.772213,23.009375 C114.953385,22.778125 115.187658,22.6 115.475034,22.475 C115.76241,22.35 116.087269,22.259375 116.449612,22.203125 C116.811956,22.146875 117.171175,22.096875 117.527271,22.053125 C117.883367,22.009375 118.223845,21.953125 118.548704,21.884375 C118.873564,21.815625 119.13595,21.70625 119.335864,21.55625 L119.335864,21.55625 L119.335864,23.1875 C119.335864,23.4125 119.279638,23.653125 119.167187,23.909375 C119.054735,24.165625 118.879811,24.403125 118.642414,24.621875 C118.405016,24.840625 118.098899,25.021875 117.724061,25.165625 C117.349223,25.309375 116.899418,25.38125 116.374645,25.38125 Z M127.338651,26.76875 C128.013359,26.76875 128.631841,26.65 129.194098,26.4125 C129.756355,26.175 130.168676,25.7875 130.431063,25.25 L130.468546,25.25 L130.468546,26.5625 L132.061607,26.5625 L132.061607,13.175 L130.468546,13.175 L130.468546,18.1625 L130.431063,18.1625 C130.256138,17.875 130.040607,17.634375 129.784467,17.440625 C129.528328,17.246875 129.256571,17.090625 128.969195,16.971875 C128.68182,16.853125 128.394444,16.76875 128.107068,16.71875 C127.819693,16.66875 127.551059,16.64375 127.301167,16.64375 C126.563986,16.64375 125.917391,16.778125 125.361381,17.046875 C124.805372,17.315625 124.343072,17.678125 123.974481,18.134375 C123.605891,18.590625 123.33101,19.125 123.149838,19.7375 C122.968667,20.35 122.878081,21 122.878081,21.6875 C122.878081,22.375 122.97179,23.025 123.159209,23.6375 C123.346628,24.25 123.624633,24.7875 123.993223,25.25 C124.361814,25.7125 124.824114,26.08125 125.380123,26.35625 C125.936133,26.63125 126.588975,26.76875 127.338651,26.76875 Z M127.563553,25.38125 C127.051275,25.38125 126.604593,25.28125 126.223508,25.08125 C125.842423,24.88125 125.530058,24.6125 125.286414,24.275 C125.042769,23.9375 124.861598,23.553125 124.742899,23.121875 C124.6242,22.690625 124.564851,22.25 124.564851,21.8 C124.564851,21.325 124.614829,20.8625 124.714786,20.4125 C124.814743,19.9625 124.977173,19.5625 125.202075,19.2125 C125.426978,18.8625 125.726848,18.58125 126.101686,18.36875 C126.476524,18.15625 126.932576,18.05 127.469844,18.05 C128.019606,18.05 128.488153,18.153125 128.875486,18.359375 C129.262818,18.565625 129.578307,18.8375 129.821951,19.175 C130.065596,19.5125 130.243644,19.903125 130.356095,20.346875 C130.468546,20.790625 130.524772,21.25 130.524772,21.725 C130.524772,22.175 130.47167,22.61875 130.365466,23.05625 C130.259262,23.49375 130.087461,23.884375 129.850064,24.228125 C129.612667,24.571875 129.306549,24.85 128.931711,25.0625 C128.556874,25.275 128.100821,25.38125 127.563553,25.38125 Z" id="SafeSquad" fill="#2EABB4" fill-rule="nonzero"></path>
                        </g>
                        <g id="miscellaneous" fill-rule="nonzero">
                            <path d="M40.3611063,33.3896637 C39.0177698,37.0319366 36.9861782,40.1988983 34.322002,42.8016662 C31.2894854,45.7641602 27.3185778,48.1182099 22.5194765,49.7974396 C22.3619976,49.8523712 22.1976553,49.8973847 22.0325503,49.9305725 C21.8144439,49.9736786 21.5925246,49.9969482 21.3725118,50 L21.3294243,50 C21.094922,50 20.8592756,49.9763488 20.6255358,49.9305725 C20.4604309,49.8973847 20.2983763,49.8523712 20.1416601,49.798584 C15.3368392,48.1220245 11.3609747,45.7691192 8.32540757,42.8066254 C5.66008751,40.2038574 3.62887715,37.0388031 2.28744714,33.3965302 C-0.151759334,26.7742157 -0.0129643122,19.4789887 0.0987579512,13.6165619 L0.10066445,13.5265351 C0.123161454,13.04245 0.137650986,12.5339508 0.145658458,11.9724273 C0.186457992,9.2155457 2.37743506,6.93473818 5.13350569,6.78100586 C10.879768,6.46018984 15.3250187,4.58526611 19.1231951,0.881576562 L19.1563687,0.851058984 C19.7870467,0.272369336 20.5816857,-0.0114441406 21.3725118,2.66939061e-05 C22.1351213,0.010299707 22.8946803,0.293731641 23.5028614,0.851058984 L23.5352723,0.881576562 C27.3342114,4.58526611 31.779462,6.46018984 37.5257244,6.78100586 C40.2817949,6.93473818 42.472772,9.2155457 42.5135716,11.9724273 C42.521579,12.5377655 42.5360685,13.0455018 42.5585655,13.5265351 L42.5597095,13.564682 C42.6710505,19.4381714 42.8090828,26.7478943 40.3611063,33.3896637 Z" id="Path" fill="#2EABB4" opacity="0.500953311"></path>
                            <path d="M40.3611063,33.3896637 C39.0177698,37.0319366 36.9861782,40.1988983 34.322002,42.8016662 C31.2894854,45.7641602 27.3185778,48.1182099 22.5194765,49.7974396 C22.3619976,49.8523712 22.1976553,49.8973847 22.0325503,49.9305725 C21.8144439,49.9736786 21.5925246,49.9969482 21.3725118,50 L21.3725118,0.000381469727 C22.1351213,0.010299707 22.8946803,0.293731641 23.5028614,0.851058984 L23.5352723,0.881576562 C27.3342114,4.58526611 31.779462,6.46018984 37.5257244,6.78100586 C40.2817949,6.93473818 42.472772,9.2155457 42.5135716,11.9724273 C42.521579,12.5377655 42.5360685,13.0455018 42.5585655,13.5265351 L42.5597095,13.564682 C42.6710505,19.4381714 42.8090828,26.7478943 40.3611063,33.3896637 Z" id="Path" fill="#2EABB4"></path>
                            <path d="M33.7843622,25 C33.7843622,31.8561554 28.2199822,37.4370575 21.3725118,37.4614716 L21.3286617,37.4614716 C14.4609821,37.4614716 8.87257989,31.8710327 8.87257989,25 C8.87257989,18.1293487 14.4609821,12.53891 21.3286617,12.53891 L21.3725118,12.53891 C28.2199822,12.563324 33.7843622,18.1442261 33.7843622,25 Z" id="Path" fill="#FFFFFF"></path>
                            <path d="M33.7843622,25 C33.7843622,31.8561554 28.2199822,37.4370575 21.3725118,37.4614716 L21.3725118,12.53891 C28.2199822,12.563324 33.7843622,18.1442261 33.7843622,25 Z" id="Path" fill="#E1EBF0"></path>
                            <path d="M26.9822671,23.2055664 L21.3725118,28.8185119 L20.160344,30.0312042 C19.8739842,30.317688 19.498399,30.4607392 19.1231951,30.4607392 C18.74761,30.4607392 18.3724061,30.317688 18.085665,30.0312042 L15.4794471,27.4227143 C14.9067274,26.8497467 14.9067274,25.9216309 15.4794471,25.3482818 C16.0514042,24.7753144 16.9802625,24.7753144 17.5529822,25.3482818 L19.1231951,26.9191742 L24.9087319,21.131134 C25.4814517,20.5577851 26.41031,20.5577851 26.9822671,21.131134 C27.5549868,21.7041016 27.5549868,22.6333618 26.9822671,23.2055664 Z" id="Path" fill="#2EABB4"></path>
                            <path d="M26.9822671,23.2055664 L21.3725118,28.8185119 L21.3725118,24.6685028 L24.9087319,21.131134 C25.4814517,20.5577851 26.41031,20.5577851 26.9822671,21.131134 C27.5549868,21.7041016 27.5549868,22.6333618 26.9822671,23.2055664 Z" id="Path" fill="#6FA5AA"></path>
                        </g>
                    </g>
                </g>
            </g>
        </g>
    </g>
</svg>