<?xml version="1.0" encoding="UTF-8"?>
<svg width="40px" height="40px" viewBox="0 0 40 40" version="1.1" xmlns="http://www.w3.org/2000/svg" xmlns:xlink="http://www.w3.org/1999/xlink">
    <title>icon</title>
    <g id="video_assets" stroke="none" stroke-width="1" fill="none" fill-rule="evenodd">
        <g id="consumer-salon_listing-copy-2" transform="translate(-33.000000, -400.000000)">
            <g id="m-card-measures" transform="translate(17.000000, 390.000000)">
                <g id="icon">
                    <g transform="translate(16.000000, 10.000000)">
                        <circle id="Oval" fill-opacity="0.5" fill="#F9D5B7" cx="20" cy="20" r="20"></circle>
                        <g id="icon-mop" transform="translate(8.000000, 8.000000)">
                            <g>
                                <path d="M2.79454191,9.2288499 L2.79454191,11.6241715 L1.19766082,11.6241715 C0.757240267,11.6228562 0.400535624,11.2661516 0.399220273,10.825731 L0.399220273,10.0272904 C0.400535624,9.58686988 0.757240267,9.23016525 1.19766082,9.2288499 L2.79454191,9.2288499 Z" id="Shape" fill="#FF9801" fill-rule="nonzero"></path>
                                <path d="M13.9727096,10.0272904 L13.9727096,10.825731 C13.9713942,11.2661516 13.6146896,11.6228562 13.174269,11.6241715 L7.58518519,11.6241715 L7.58518519,9.2288499 L13.174269,9.2288499 C13.6146896,9.23016525 13.9713942,9.58686988 13.9727096,10.0272904 Z" id="Shape" fill="#EE750F" fill-rule="nonzero"></path>
                                <path d="M13.174269,9.2288499 L11.9766082,9.2288499 C12.4170288,9.23016525 12.7737334,9.58686988 12.7750487,10.0272904 L12.7750487,10.825731 C12.7737334,11.2661516 12.4170288,11.6228562 11.9766082,11.6241715 L13.174269,11.6241715 C13.6146896,11.6228562 13.9713942,11.2661516 13.9727096,10.825731 L13.9727096,10.0272904 C13.9713942,9.58686988 13.6146896,9.23016525 13.174269,9.2288499 Z" id="Shape" fill="#F57C00" fill-rule="nonzero"></path>
                                <path d="M12.3758881,8.82962963 C12.3770474,8.96446117 12.3595818,9.0988116 12.3239298,9.2288499 L7.58518519,9.2288499 L7.58518519,16.0155945 C7.58192467,16.4552035 7.22635355,16.8107746 6.78674464,16.8140351 C6.34632408,16.8127197 5.98961944,16.4560151 5.98830409,16.0155945 L5.98830409,13.2210526 C5.98504358,12.7814437 5.62947246,12.4258726 5.18986355,12.4226121 C4.74944298,12.4239274 4.39273835,12.7806321 4.391423,13.2210526 L4.391423,14.4187135 C4.38816249,14.8583224 4.03259136,15.2138935 3.59298246,15.217154 C3.1525619,15.2158386 2.79585726,14.859134 2.79454191,14.4187135 L2.79454191,9.2288499 L2.13982066,9.2288499 C1.69096607,8.83654249 1.49866119,8.22648477 1.64140174,7.64769234 C1.78414229,7.06889991 2.23804673,6.61820897 2.81783868,6.47958416 C3.39763063,6.34095935 4.0063067,6.53759366 4.3954152,6.98922417 C4.98713075,6.00482195 6.12129766,5.4831902 7.2537918,5.67458523 C8.38628594,5.86598029 9.28604499,6.73135183 9.52140351,7.85553216 C9.93709561,7.31382834 10.6519876,7.09761204 11.2982145,7.31814263 C11.9444414,7.53867323 12.3780146,8.14681326 12.3758881,8.82962963 Z" id="Shape" fill="#F9D5B7" fill-rule="nonzero"></path>
                                <path d="M10.7789474,7.23274854 C10.5744739,7.23327303 10.3720956,7.27396572 10.1833107,7.35251462 C10.7841877,7.59709121 11.1773803,8.18088455 11.1781676,8.82962963 C11.1793866,8.96446117 11.161921,9.0988116 11.126269,9.2288499 L12.3239298,9.2288499 C12.3595818,9.0988116 12.3770474,8.96446117 12.3758285,8.82962963 C12.3758285,7.94769656 11.6608804,7.23274854 10.7789474,7.23274854 Z" id="Shape" fill="#EE750F" fill-rule="nonzero"></path>
                                <path d="M10.7789474,20.0077973 C10.5793372,21.6046784 10.9785575,22.502924 11.7769981,23.0019493 C11.4747215,23.3808947 11.0161683,23.601353 10.5314308,23.6007808 L3.84049903,23.6007808 C3.02039626,23.6007808 2.33361261,22.9795787 2.25160234,22.1635867 L1.19766082,11.6241715 L2.79454191,11.6241715 L2.79454191,14.4187135 C2.79585726,14.859134 3.1525619,15.2158386 3.59298246,15.217154 C4.03259136,15.2138935 4.38816249,14.8583224 4.391423,14.4187135 L4.391423,13.2210526 C4.39273835,12.7806321 4.74944298,12.4239274 5.18986355,12.4226121 C5.62947246,12.4258726 5.98504358,12.7814437 5.98830409,13.2210526 L5.98830409,16.0155945 C5.98961944,16.4560151 6.34632408,16.8127197 6.78674464,16.8140351 C7.22635355,16.8107746 7.58192467,16.4552035 7.58518519,16.0155945 L7.58518519,11.6241715 L13.174269,11.6241715 L12.7471033,15.8958285 C11.6543653,17.0111113 10.9622076,18.4572013 10.7789474,20.0077973 Z" id="Shape" fill="#E8E8E8" fill-rule="nonzero"></path>
                                <path d="M12.7471033,15.8958285 L13.174269,11.6241715 L11.9766082,11.6241715 L11.5494425,15.8958285 C10.4567045,17.0111113 9.76454682,18.4572013 9.58128655,20.0077973 C9.38167641,21.6046784 9.78089669,22.502924 10.5793372,23.0019493 C10.2770607,23.3808947 9.81850747,23.601353 9.33376998,23.600782 L10.5314308,23.600782 C11.0161683,23.601353 11.4747215,23.3808947 11.7769981,23.0019493 C10.9785575,22.502924 10.5793372,21.6046784 10.7789474,20.0077973 C10.9622076,18.4572013 11.6543653,17.0111113 12.7471033,15.8958285 Z" id="Shape" fill="#FFA561" fill-rule="nonzero"></path>
                                <path d="M21.0668538,23.6007821 L15.1703704,23.6007821 C13.7730994,23.6007821 12.5754386,23.5009747 11.7769981,23.0019493 C10.9785575,22.502924 10.5793372,21.6046784 10.7789474,20.0077973 C10.9622076,18.4572013 11.6543653,17.0111113 12.7471033,15.8958285 C13.7738662,14.8675167 14.9452958,13.9946604 16.2243119,13.3048889 C16.2322963,13.3088811 16.2402807,13.3088811 16.2482651,13.3128733 L19.1625731,14.2430565 L19.1625731,18.0116959 C19.1625731,19.9878363 20.5598441,21.9599844 21.3782456,22.9500507 C21.4753924,23.0698008 21.4948884,23.2347913 21.4283278,23.3738857 C21.3617673,23.5129802 21.2210527,23.6013055 21.0668538,23.6007821 L21.0668538,23.6007821 Z" id="Shape" fill="#F9D5B7" fill-rule="nonzero"></path>
                                <path d="M21.3782456,22.9500507 C20.5598441,21.9599844 19.1625731,19.9878363 19.1625731,18.0116959 L19.1625731,14.2430565 L16.2482651,13.3128733 C16.2402807,13.3088811 16.2322963,13.3088811 16.2243119,13.3048889 C16.0824556,13.386596 15.9421962,13.4693676 15.8035337,13.5532039 L17.9649123,14.2430565 L17.9649123,18.0116959 C17.9649123,19.9878363 19.3621832,21.9599844 20.1805848,22.9500507 C20.2777316,23.0698008 20.2972276,23.2347913 20.230667,23.3738857 C20.1641065,23.5129802 20.0233919,23.6013055 19.869193,23.6007821 L21.0668538,23.6007821 C21.2210527,23.6013055 21.3617673,23.5129802 21.4283278,23.3738857 C21.4948884,23.2347913 21.4753924,23.0698008 21.3782456,22.9500507 Z" id="Shape" fill="#FFA561" fill-rule="nonzero"></path>
                                <path d="M20.0328733,13.2649669 L19.7893489,14.0234854 C19.7583488,14.1245947 19.6880444,14.2090199 19.5942169,14.2578102 C19.5003895,14.3066005 19.3908992,14.3156684 19.2903236,14.2829786 L19.1625731,14.2430565 L16.2482651,13.3128733 C16.2402807,13.3088811 16.2322963,13.3088811 16.2243119,13.3048889 C16.0281605,13.2271453 15.9253644,13.0110991 15.9887719,12.8098558 L16.2322963,12.0513372 C16.2632964,11.950228 16.3336008,11.8658027 16.4274283,11.8170124 C16.5212558,11.7682221 16.630746,11.7591542 16.7313216,11.7918441 L19.7733801,12.7619493 C19.874655,12.7940121 19.9589751,12.865116 20.0076773,12.9595233 C20.0563794,13.0539306 20.0654471,13.1638551 20.0328733,13.2649669 Z" id="Shape" fill="#EE750F" fill-rule="nonzero"></path>
                                <path d="M19.3945201,12.6405864 L22.7878924,2.00775361 C22.9889695,1.37761273 22.6411486,0.703776712 22.0110097,0.502693177 C21.3808689,0.301616082 20.7070329,0.649437008 20.5059493,1.27957583 L17.112577,11.9128078 L19.3945201,12.6405864 Z" id="Shape" fill="#9B9B9B" fill-rule="nonzero"></path>
                                <path d="M22.0098121,0.502693177 C21.6890425,0.400959787 21.3401931,0.439833662 21.0496873,0.609684211 C21.5344454,0.891712674 21.7585777,1.47236619 21.5890339,2.00695517 L18.3074433,12.2932647 L19.3945201,12.6397879 L22.7878924,2.00695517 C22.9883511,1.37670975 22.6400177,0.703277048 22.0098121,0.502693177 Z" id="Shape" fill="#827E7E" fill-rule="nonzero"></path>
                                <circle id="Oval" fill="#FF9801" fill-rule="nonzero" cx="9.98050682" cy="14.0194932" r="1"></circle>
                                <circle id="Oval" fill="#EE750F" fill-rule="nonzero" cx="6.78674464" cy="19.2093567" r="1"></circle>
                                <circle id="Oval" fill="#EE750F" fill-rule="nonzero" cx="2.39532164" cy="3.63976608" r="1"></circle>
                                <circle id="Oval" fill="#EE750F" fill-rule="nonzero" cx="13.174269" cy="4.43820663" r="1"></circle>
                                <g id="Group" fill="#4A4A4A" fill-rule="nonzero">
                                    <path d="M6.78674464,18.0116959 C6.12529485,18.0116959 5.58908382,18.5479069 5.58908382,19.2093567 C5.58908382,19.8708065 6.12529485,20.4070175 6.78674464,20.4070175 C7.44819443,20.4070175 7.98440546,19.8708065 7.98440546,19.2093567 C7.98440546,18.5479069 7.44819443,18.0116959 6.78674464,18.0116959 Z M6.78674464,19.608577 C6.56626139,19.608577 6.38752437,19.42984 6.38752437,19.2093567 C6.38752437,18.9888735 6.56626139,18.8101365 6.78674464,18.8101365 C7.00722789,18.8101365 7.18596491,18.9888735 7.18596491,19.2093567 C7.18596491,19.42984 7.00722789,19.608577 6.78674464,19.608577 Z" id="Shape"></path>
                                    <path d="M23.5539961,23.2015595 L21.8597053,23.2015595 C21.8628973,23.0173529 21.8006558,22.8379839 21.6840483,22.6953481 C20.8915961,21.7380179 19.5617934,19.856892 19.5617934,18.0116959 L19.5617934,14.6774082 C19.8470224,14.6253028 20.0808312,14.4212181 20.1710035,14.1456468 L20.4145279,13.3851322 C20.4788156,13.1832731 20.460246,12.9641399 20.3629075,12.7759772 C20.2655691,12.5878145 20.0974421,12.4460489 19.8955415,12.3818916 L23.1671517,2.12911657 C23.4352593,1.28885483 22.9714368,0.390343914 22.131175,0.122236257 C21.2909133,-0.145871399 20.3924024,0.31795113 20.1242947,1.15821287 L16.853483,11.4109879 C16.4332604,11.278767 15.9851173,11.5105959 15.8502425,11.9299743 L15.6079158,12.6884928 C15.5554332,12.8547551 15.559363,13.0337006 15.619094,13.1974986 C14.7842408,13.6827042 13.9922505,14.2381659 13.2517177,14.8578558 L13.5419509,11.9575205 C14.0343744,11.7996081 14.3693314,11.3428485 14.3719298,10.825731 L14.3719298,10.0272904 C14.3719298,9.36584066 13.8357188,8.82962963 13.174269,8.82962963 L12.7750487,8.82962963 C12.7820346,8.2281684 12.5143175,7.65636097 12.0479023,7.27654352 C11.5814872,6.89672611 10.9673068,6.75037503 10.3797271,6.87903938 L10.3797271,4.03898635 C10.3797271,2.71608674 9.30730507,1.64366472 7.98440546,1.64366472 C6.66150585,1.64366472 5.58908382,2.71608674 5.58908382,4.03898635 L5.58908382,5.47298558 C5.09840825,5.67025752 4.66496937,5.98730748 4.3283462,6.39518441 C3.9961166,6.16146265 3.59996649,6.0357317 3.19376218,6.03508772 C2.52002924,6.0338463 1.89130064,6.37315886 1.52253932,6.93701406 C1.15377801,7.5008693 1.09493612,8.21288776 1.36613177,8.82962963 L1.19766082,8.82962963 C0.536211013,8.82962963 2.65934123e-15,9.36584066 2.65934123e-15,10.0272904 L2.65934123e-15,10.825731 C0.00173580575,11.3435854 0.336858306,11.8013766 0.829978947,11.9595166 L1.85437817,22.2035088 C1.95277742,23.2255716 2.81371945,24.0043132 3.84049903,24.0000178 L10.5314308,24.0000178 C11.0197802,24.0000178 11.4908891,23.819443 11.8544468,23.4933895 C12.6868211,23.8958035 13.8058355,24.0000178 15.1703704,24.0000178 L23.5539961,24.0000178 C23.7744794,24.0000178 23.9532164,23.821263 23.9532164,23.6007797 C23.9532164,23.3802965 23.7744794,23.2015595 23.5539961,23.2015595 Z M20.8848094,1.40093879 C20.9825453,1.09246312 21.2568021,0.873480136 21.5792596,0.846448293 C21.9017171,0.819416453 22.2086049,0.989681676 22.3563353,1.27757973 C22.4541444,1.46550424 22.4725501,1.68479121 22.4074355,1.88639064 L19.1354261,12.1391657 L17.6143969,11.6537138 L20.8848094,1.40093879 Z M16.6107571,12.1715025 L19.6532148,13.1412086 L19.4104889,13.9017232 L16.3680312,12.9320172 L16.6107571,12.1715025 Z M13.174269,9.62807018 C13.3947523,9.62807018 13.5734893,9.8068072 13.5734893,10.0272904 L13.5734893,10.825731 C13.5734893,11.0462142 13.3947523,11.2249513 13.174269,11.2249513 L10.3797271,11.2249513 L10.3797271,9.62807018 L13.174269,9.62807018 Z M7.98440546,9.62807018 L9.58128655,9.62807018 L9.58128655,11.2249513 L7.98440546,11.2249513 L7.98440546,9.62807018 Z M10.7789474,7.63196881 C11.4403972,7.63196881 11.9766082,8.16817984 11.9766082,8.82962963 L10.3797271,8.82962963 L10.3797271,7.71181287 C10.5070394,7.66182538 10.6422023,7.63479278 10.7789474,7.63196881 Z M6.38752437,4.03898635 C6.38752437,3.15705328 7.10247238,2.44210526 7.98440546,2.44210526 C8.86633853,2.44210526 9.58128655,3.15705328 9.58128655,4.03898635 L9.58128655,6.90219415 C8.9607172,5.74529316 7.68923289,5.09286276 6.38752437,5.26339493 L6.38752437,4.03898635 Z M1.99608482,8.03118908 C1.99347595,7.53095235 2.30355437,7.08232577 2.77243293,6.90797965 C3.24131149,6.73363357 3.76916666,6.87068601 4.0940039,7.25111267 C4.17768087,7.34736248 4.30230857,7.39783949 4.42938031,7.38694765 C4.55645208,7.3760558 4.67067179,7.30510613 4.73674854,7.19602027 C5.24355129,6.35212906 6.21544151,5.90469843 7.18611254,6.06840273 C8.15678362,6.232107 8.92817085,6.9735424 9.13016764,7.9369731 C9.16198594,8.0893659 9.27948856,8.20936193 9.43117973,8.24437271 C9.48058236,8.25493472 9.53157205,8.25574837 9.58128655,8.24676803 L9.58128655,8.82962963 L7.98440546,8.82962963 L7.98440546,8.43040936 C7.98440546,8.20992611 7.80566843,8.03118908 7.58518519,8.03118908 C7.36470194,8.03118908 7.18596491,8.20992611 7.18596491,8.43040936 L7.18596491,16.0155945 C7.18612276,16.1231223 7.14192772,16.2259553 7.06380351,16.2998394 C6.99098721,16.3743333 6.89091015,16.4158638 6.78674464,16.4148342 C6.56626139,16.4148342 6.38752437,16.2360778 6.38752437,16.0155945 L6.38752437,13.2210526 C6.38424844,12.5609645 5.84995167,12.0266677 5.18986355,12.0233918 C4.52841376,12.0233918 3.99220273,12.5596028 3.99220273,13.2210526 L3.99220273,14.4187135 C3.99236058,14.5262412 3.94816553,14.6290742 3.87004133,14.7029583 C3.79722501,14.7774522 3.69714798,14.8189827 3.59298246,14.8179337 C3.37249919,14.8179337 3.19376218,14.6391967 3.19376218,14.4187135 L3.19376218,8.43040936 C3.19376218,8.20992611 3.01502518,8.03118908 2.79454191,8.03118908 C2.57405864,8.03118908 2.39532164,8.20992611 2.39532164,8.43040936 L2.39532164,8.82962963 L2.31228382,8.82962963 C2.11122265,8.61208979 1.99848722,8.32740434 1.99608482,8.03118908 Z M0.798440546,10.0272904 C0.798440546,9.8068072 0.97717755,9.62807018 1.19766082,9.62807018 L2.39532164,9.62807018 L2.39532164,11.2249513 L1.19766082,11.2249513 C0.97717755,11.2249513 0.798440546,11.0462142 0.798440546,10.825731 L0.798440546,10.0272904 Z M10.5314308,23.2015721 L3.84049903,23.2015721 C3.22434466,23.2043737 2.70764951,22.7370113 2.64882651,22.1236647 L1.63879922,12.0233918 L2.39532164,12.0233918 L2.39532164,14.4187135 C2.39532164,15.0801632 2.93153265,15.6163743 3.59298246,15.6163743 C4.25289025,15.6126662 4.78693524,15.0786212 4.79064327,14.4187135 L4.79064327,13.2210526 C4.79064327,13.0005694 4.9693803,12.8218324 5.18986355,12.8218324 C5.29752998,12.8215644 5.40052829,12.8657685 5.4745076,12.9439938 C5.54854356,13.0170871 5.58986917,13.1170173 5.58908382,13.2210526 L5.58908382,16.0155945 C5.58908382,16.6770443 6.12529485,17.2132554 6.78674464,17.2132554 C7.44665244,17.2095473 7.98069742,16.6755023 7.98440546,16.0155945 L7.98440546,12.0233918 L9.58128655,12.0233918 L9.58128655,12.8952889 C9.03134198,13.0897237 8.70145613,13.6520773 8.80009404,14.2269812 C8.89873194,14.801885 9.39720253,15.2221151 9.98050682,15.2221151 C10.5638111,15.2221151 11.0622817,14.801885 11.1609196,14.2269812 C11.2595575,13.6520773 10.9296717,13.0897237 10.3797271,12.8952889 L10.3797271,12.0233918 L12.7351267,12.0233918 L12.365848,15.7141832 C11.2688312,16.8807578 10.5745667,18.3682076 10.384917,19.958294 C10.2224343,21.2585544 10.424839,22.211094 11.0077006,22.8698074 C11.0548086,22.9233029 11.1106994,22.9656203 11.1617996,23.0143251 C10.9735324,23.1349214 10.7550041,23.1998294 10.5314308,23.2015721 Z M10.3797271,14.0194932 C10.3797271,14.2399764 10.2009901,14.4187135 9.98050682,14.4187135 C9.76002357,14.4187135 9.58128655,14.2399764 9.58128655,14.0194932 C9.58128655,13.7990099 9.76002357,13.6202729 9.98050682,13.6202729 C10.2009901,13.6202729 10.3797271,13.7990099 10.3797271,14.0194932 Z M20.3602339,23.2015595 L18.4950768,23.2015595 C18.3842663,23.1249994 18.2693886,23.0545002 18.1509489,22.9903719 C17.4411353,22.5975392 16.3680312,22.0038986 16.3680312,20.0077973 C16.3680312,17.4388148 17.4399376,16.3070253 17.4487205,16.2978433 C17.6000139,16.1411977 17.5978502,15.8922016 17.4438574,15.7382089 C17.2898647,15.5842161 17.0408686,15.5820524 16.884223,15.7333458 C16.8303283,15.7868413 15.5695906,17.0815127 15.5695906,20.0077973 C15.5695906,21.7531883 16.3117411,22.6725926 16.9980008,23.2015595 L15.2813536,23.2015595 C14.496378,22.8064945 13.9124331,22.1010995 13.670899,21.2561591 C13.3068101,19.766269 14.2956788,18.2476351 14.3056593,18.2324647 C14.4263889,18.0489547 14.3761859,17.8023867 14.1933144,17.680692 C14.0104429,17.5589973 13.7636138,17.6079007 13.6409575,17.7901287 C13.5922526,17.8635852 12.4496842,19.6061817 12.8940164,21.4398004 C13.055585,22.0957286 13.4019759,22.6915209 13.8920671,23.1564476 C12.9247563,23.0766035 12.0740179,22.8718035 11.6061318,22.3420382 C11.1849544,21.8629739 11.0444288,21.1176296 11.17697,20.0576998 C11.5694035,16.9254175 13.8417653,15.1624608 16.2742144,13.740039 L18.7633528,14.5344873 L18.7633528,18.0116959 C18.7633528,20.1072031 20.2077318,22.1635867 21.067253,23.2015595 L20.3602339,23.2015595 Z" id="Shape"></path>
                                    <path d="M3.59298246,3.63976608 C3.59298246,2.97831628 3.05677144,2.44210526 2.39532164,2.44210526 C1.73387183,2.44210526 1.19766082,2.97831628 1.19766082,3.63976608 C1.19766082,4.30121587 1.73387183,4.8374269 2.39532164,4.8374269 C2.71296104,4.8374269 3.01759075,4.71124515 3.24219572,4.48664015 C3.4668007,4.26203519 3.59298246,3.95740549 3.59298246,3.63976608 Z M1.99610136,3.63976608 C1.99610136,3.41928281 2.17483837,3.24054581 2.39532164,3.24054581 C2.61580491,3.24054581 2.79454191,3.41928281 2.79454191,3.63976608 C2.79454191,3.86024933 2.61580491,4.03898635 2.39532164,4.03898635 C2.17483837,4.03898635 1.99610136,3.86024933 1.99610136,3.63976608 Z" id="Shape"></path>
                                    <path d="M13.174269,5.63586745 C13.8357188,5.63586745 14.3719298,5.09965641 14.3719298,4.43820663 C14.3719298,3.77675684 13.8357188,3.24054581 13.174269,3.24054581 C12.5128192,3.24054581 11.9766082,3.77675684 11.9766082,4.43820663 C11.9766082,5.09965641 12.5128192,5.63586745 13.174269,5.63586745 Z M13.174269,4.03898635 C13.3947523,4.03898635 13.5734893,4.21772338 13.5734893,4.43820663 C13.5734893,4.65868988 13.3947523,4.8374269 13.174269,4.8374269 C12.9537858,4.8374269 12.7750487,4.65868988 12.7750487,4.43820663 C12.7750487,4.21772338 12.9537858,4.03898635 13.174269,4.03898635 Z" id="Shape"></path>
                                    <circle id="Oval" cx="11.5773879" cy="1.64366472" r="1"></circle>
                                    <circle id="Oval" cx="4.79064327" cy="1.64366472" r="1"></circle>
                                </g>
                            </g>
                        </g>
                    </g>
                </g>
            </g>
        </g>
    </g>
</svg>