<?xml version="1.0" encoding="UTF-8"?>
<svg width="114px" height="72px" viewBox="0 0 114 72" version="1.1" xmlns="http://www.w3.org/2000/svg" xmlns:xlink="http://www.w3.org/1999/xlink">
    <title>Group 10</title>
    <g id="video_assets" stroke="none" stroke-width="1" fill="none" fill-rule="evenodd">
        <g id="consumer-salon_listing-copy-2" transform="translate(-245.000000, -466.000000)">
            <g id="Group-7" transform="translate(17.000000, 466.000000)">
                <g id="feature_card-1">
                    <g id="Group-4">
                        <g id="Group-10" transform="translate(228.000000, 0.000000)">
                            <rect id="Rectangle" x="0" y="0" width="114" height="72" rx="12"></rect>
                            <g id="hand-sanitizer" transform="translate(18.000000, 27.000000)" fill-rule="nonzero">
                                <g id="Group" transform="translate(1.632653, 1.000000)">
                                    <g id="Path">
                                        <polygon fill="#0094E6" points="8.86933574 2.54257028 13.1006426 2.54257028 13.1006426 8.18016064 8.86933574 8.18016064"></polygon>
                                        <path d="M21.937574,22.5134137 C21.937574,16.4331727 17.0860578,11.4983133 11.0822022,11.4474699 C5.11186282,11.3968675 0.15566787,16.3942972 0.038599278,22.4276305 C-0.0557545126,27.2904418 0.934801444,32.4284337 1.61632491,37.3493976 C1.82369675,38.8465863 3.09183394,39.9595984 4.58759567,39.9595984 L17.3834152,39.9595984 C18.8860072,39.9595984 20.1547004,38.8361446 20.3572274,37.3313253 C21.0172274,32.4286747 21.937574,27.3776707 21.937574,22.5134137 L21.937574,22.5134137 Z" fill="#E5F1F2"></path>
                                        <path d="M11.0822022,11.4474699 C10.6540361,11.4438554 10.2313502,11.4670683 9.81501805,11.5138153 C15.2930181,12.1220884 19.5549025,16.8146988 19.5549025,22.5134137 C19.5549025,27.3776707 18.634556,32.4285944 17.974556,37.3313253 C17.7719495,38.8361446 16.5033357,39.9595984 15.0007437,39.9595984 L17.3834152,39.9595984 C18.8860072,39.9595984 20.1547004,38.8361446 20.3572274,37.3313253 C21.017148,32.4286747 21.937574,27.377751 21.937574,22.5134137 C21.937574,16.4331727 17.0861372,11.4983133 11.0822022,11.4474699 L11.0822022,11.4474699 Z" fill="#36B8FF"></path>
                                        <path d="M14.5374729,12.6351807 L7.43242599,12.6351807 C6.66560289,12.6351807 6.0439639,12.006506 6.0439639,11.231004 L6.0439639,8.92361446 C6.0439639,8.14811245 6.66560289,7.51943775 7.43242599,7.51943775 L14.5374729,7.51943775 C15.304296,7.51943775 15.925935,8.14811245 15.925935,8.92361446 L15.925935,11.231004 C15.925935,12.006506 15.304296,12.6351807 14.5374729,12.6351807 L14.5374729,12.6351807 Z" fill="#36B8FF"></path>
                                        <path d="M14.7393646,3.13453815 L4.51754513,3.13453815 C4.51754513,2.2 5.19168231,1.40497992 6.10543682,1.26184739 L13.7639783,0.0626506024 C14.9003538,-0.115261044 15.925935,0.773092369 15.925935,1.93534137 C15.925935,2.59767068 15.3946787,3.13453815 14.7393646,3.13453815 Z" fill="#36B8FF"></path>
                                        <path d="M1.79661372,16.6140562 C0.721949458,18.3066667 0.0798194946,20.3026506 0.038599278,22.4276305 C-0.0557545126,27.2904418 0.934801444,32.4284337 1.61632491,37.3493976 C1.82369675,38.8465863 3.09183394,39.9595984 4.58759567,39.9595984 L17.3834152,39.9595984 C18.8860072,39.9595984 20.1547004,38.8361446 20.3572274,37.3313253 C21.017148,32.4286747 21.937574,27.377751 21.937574,22.5134137 C21.937574,20.3445783 21.3199061,18.3217671 20.2531841,16.6140562 L1.79661372,16.6140562 Z" fill="#CFF5FF"></path>
                                        <path d="M20.2532635,16.6140562 L17.8705921,16.6140562 C18.9373141,18.3217671 19.5549819,20.3445783 19.5549819,22.5134137 C19.5549819,27.3776707 18.6346354,32.4286747 17.9746354,37.3313253 C17.7720289,38.8361446 16.5033357,39.9595984 15.0008231,39.9595984 L17.3834946,39.9595984 C18.8860072,39.9595984 20.1547798,38.8361446 20.3573069,37.3313253 C21.0172274,32.4286747 21.9376534,27.377751 21.9376534,22.5134137 C21.9376534,20.3445783 21.3199856,18.3217671 20.2532635,16.6140562 L20.2532635,16.6140562 Z" fill="#B8F0FF"></path>
                                    </g>
                                    <g transform="translate(3.812274, 20.401606)">
                                        <ellipse id="Oval" fill="#36B8FF" cx="7.1727148" cy="7.18851406" rx="7.10830325" ry="7.18875502"></ellipse>
                                        <path d="M7.1727148,-0.000240963855 C6.76670758,-0.000240963855 6.36880144,0.0346987952 5.98137906,0.100803213 C9.33991336,0.674056225 11.8983466,3.62883534 11.8983466,7.18851406 C11.8983466,10.7481928 9.33991336,13.7029719 5.98137906,14.2762249 C6.36880144,14.3423293 6.76670758,14.3772691 7.1727148,14.3772691 C11.0984838,14.3772691 14.2810181,11.1587149 14.2810181,7.18851406 C14.2810181,3.21831325 11.0984838,-0.000240963855 7.1727148,-0.000240963855 Z" id="Path" fill="#0AA5FA"></path>
                                        <polygon id="Path" fill="#FFF6DB" points="10.8511625 5.90080321 8.44958845 5.90080321 8.44958845 3.47903614 5.89576173 3.47903614 5.89576173 5.90080321 3.49418773 5.90080321 3.49418773 8.47614458 5.89576173 8.47614458 5.89576173 10.8979116 8.44958845 10.8979116 8.44958845 8.47614458 10.8511625 8.47614458"></polygon>
                                    </g>
                                </g>
                                <g id="Group" transform="translate(0.632653, 0.000000)">
                                    <path d="M22.3629315,24.5040664 C22.0346301,24.4868496 21.7598904,24.7430996 21.7437432,25.0743027 C21.5916438,28.2058379 20.3726438,36.6634492 20.2340925,37.6978184 C20.0738014,38.8954668 19.0574692,39.7985078 17.8701336,39.7985078 L5.17988356,39.7985078 C3.99719521,39.7985078 2.98196575,38.9021934 2.81828767,37.7135137 C2.67627055,36.6829883 1.18607534,26.7139023 1.25909247,22.9320527 C1.29508904,21.0705566 1.82527055,19.28025 2.74148973,17.7248926 L20.3780788,17.7248926 C21.0921815,18.956334 21.5615548,20.3383223 21.7272808,21.7910195 C21.8134521,22.545916 22.989839,22.4332461 22.900911,21.6525645 C22.4682432,17.8596641 20.1249212,14.4335215 16.7951199,12.6754863 C16.9355616,12.4003379 17.0154315,12.0882734 17.0154315,11.7575508 L17.0154315,9.45706641 C17.0154315,8.35407031 16.1326884,7.45663477 15.04775,7.45663477 L14.2134486,7.45663477 L14.2134486,4.28626172 L15.247976,4.28626172 C17.2532295,4.28626172 17.419113,1.69677539 16.1602568,0.599945312 C15.6163699,0.126042969 14.8986438,-0.082 14.1902123,0.02946875 L11.3234041,0.480789062 C10.5685788,0.599785156 10.7490342,1.78518164 11.5041747,1.66786719 L14.3709829,1.21654687 C14.7374075,1.15849023 15.1095822,1.26635547 15.3913322,1.511875 C15.7991096,1.86710156 16.1640377,3.08508984 15.247976,3.08508984 L5.84530822,3.08508984 C6.02631507,2.7334668 6.36351712,2.47697656 6.77554795,2.41219336 L8.56001712,2.1312793 C9.31484247,2.01244336 9.13407192,0.825044922 8.37924658,0.944201172 L6.5947774,1.22511523 C5.39231849,1.41441992 4.51965753,2.44918945 4.51965753,3.68575586 C4.51965753,4.01751953 4.78407877,4.2863418 5.11041096,4.2863418 L8.83554452,4.2863418 L8.83554452,7.45679492 L8.00124315,7.45679492 C6.91630479,7.45679492 6.03356164,8.35423047 6.03356164,9.45722656 L6.03356164,11.7577109 C6.03356164,12.103168 6.12020548,12.4284453 6.27246233,12.7123223 C2.59836986,14.6948164 0.159582192,18.6730977 0.0779006849,22.9085898 C0.00283561644,26.7930996 1.5072089,36.8566777 1.64820205,37.8802363 C1.89316781,39.6586914 3.41156164,40.9998398 5.17996233,40.9998398 L17.8702123,40.9998398 C19.6456233,40.9998398 21.1651986,39.650043 21.404887,37.8599766 C21.5425719,36.8316934 22.768976,28.3229922 22.923911,25.1337207 C22.9399007,24.8022773 22.6887911,24.5205625 22.3629315,24.5040664 L22.3629315,24.5040664 Z M10.0170514,4.34023438 L13.031863,4.34023438 L13.031863,7.45671484 L10.0170514,7.45671484 L10.0170514,4.34023438 Z M7.21506849,9.45714648 C7.21506849,9.01639648 7.56778767,8.65788672 8.00124315,8.65788672 L15.0476712,8.65788672 C15.4812055,8.65788672 15.8338459,9.01647656 15.8338459,9.45714648 L15.8338459,11.7576309 C15.8338459,12.1983809 15.4811267,12.5568906 15.0476712,12.5568906 L8.00124315,12.5568906 C7.5677089,12.5568906 7.21506849,12.1983008 7.21506849,11.7576309 L7.21506849,9.45714648 Z M7.19703082,13.5826113 C7.44278425,13.6949609 7.71484589,13.7580625 8.00124315,13.7580625 L15.0476712,13.7580625 C15.3509247,13.7580625 15.6383459,13.687834 15.8951267,13.562752 C17.3442055,14.2559883 18.5943973,15.2794668 19.5660685,16.5237207 L3.56303082,16.5237207 C4.52926712,15.2978848 5.76362671,14.2824141 7.19703082,13.5826113 Z" id="Shape" fill="#4A4A4A"></path>
                                    <path d="M3.56901712,20.9401895 C2.80875685,20.9401895 2.80749658,22.1413613 3.56901712,22.1413613 C4.3292774,22.1413613 4.3304589,20.9401895 3.56901712,20.9401895 Z" id="Path" fill="#36B8FF"></path>
                                    <path d="M7.34983904,18.7780801 C6.58957877,18.7780801 6.58831849,19.979252 7.34983904,19.979252 C8.11009932,19.979252 8.11128082,18.7780801 7.34983904,18.7780801 Z" id="Path" fill="#36B8FF"></path>
                                    <path d="M19.2436747,19.0983926 C18.4834144,19.0983926 18.4821541,20.2995645 19.2436747,20.2995645 C20.0039349,20.2995645 20.0051164,19.0983926 19.2436747,19.0983926 Z" id="Path" fill="#36B8FF"></path>
                                    <path d="M14.0450445,38.6374551 C14.8053048,38.6374551 14.8065651,37.4362832 14.0450445,37.4362832 C13.2847842,37.4362832 13.283524,38.6374551 14.0450445,38.6374551 Z" id="Path" fill="#36B8FF"></path>
                                    <path d="M18.1409349,35.994877 C18.9011952,35.994877 18.9024555,34.7937051 18.1409349,34.7937051 C17.3806747,34.7937051 17.3794144,35.994877 18.1409349,35.994877 Z" id="Path" fill="#36B8FF"></path>
                                    <path d="M5.76031849,37.2010137 C6.52057877,37.2010137 6.52183904,35.9998418 5.76031849,35.9998418 C5.00013699,35.9998418 4.99887671,37.2010137 5.76031849,37.2010137 Z" id="Path" fill="#36B8FF"></path>
                                    <path d="M11.5244966,20.2995645 C7.31155822,20.2995645 3.88408562,23.784084 3.88408562,28.0671426 C3.88408562,32.3502012 7.31155822,35.8347207 11.5244966,35.8347207 C15.7374349,35.8347207 19.1649075,32.3502012 19.1649075,28.0671426 C19.1649075,23.784084 15.7374349,20.2995645 11.5244966,20.2995645 Z M11.5244966,34.6335488 C7.9630411,34.6335488 5.06559247,31.687875 5.06559247,28.0671426 C5.06559247,24.4464102 7.9630411,21.5007363 11.5244966,21.5007363 C15.0859521,21.5007363 17.9834007,24.4464102 17.9834007,28.0671426 C17.9834007,31.687875 15.0859521,34.6335488 11.5244966,34.6335488 Z" id="Shape" fill="#4A4A4A"></path>
                                    <path d="M15.1725959,26.1827441 L13.3816678,26.1827441 L13.3816678,24.3688945 C13.3816678,24.0371309 13.1172466,23.7683086 12.7909144,23.7683086 L10.2580788,23.7683086 C9.93174658,23.7683086 9.66732534,24.0371309 9.66732534,24.3688945 L9.66732534,26.1827441 L7.87639726,26.1827441 C7.55006507,26.1827441 7.28564384,26.4515664 7.28564384,26.7833301 L7.28564384,29.350875 C7.28564384,29.6826387 7.55006507,29.9514609 7.87639726,29.9514609 L9.66732534,29.9514609 L9.66732534,31.7653105 C9.66732534,32.0970742 9.93174658,32.3658965 10.2580788,32.3658965 L12.7909144,32.3658965 C13.1172466,32.3658965 13.3816678,32.0970742 13.3816678,31.7653105 L13.3816678,29.9514609 L15.1725959,29.9514609 C15.4989281,29.9514609 15.7633493,29.6826387 15.7633493,29.350875 L15.7633493,26.7833301 C15.7633493,26.4516465 15.4989281,26.1827441 15.1725959,26.1827441 Z M14.5818425,28.7502891 L12.7909144,28.7502891 C12.4645822,28.7502891 12.200161,29.0191113 12.200161,29.350875 L12.200161,31.1647246 L10.8488322,31.1647246 L10.8488322,29.350875 C10.8488322,29.0191113 10.584411,28.7502891 10.2580788,28.7502891 L8.46715068,28.7502891 L8.46715068,27.383916 L10.2580788,27.383916 C10.584411,27.383916 10.8488322,27.1150937 10.8488322,26.7833301 L10.8488322,24.9694805 L12.200161,24.9694805 L12.200161,26.7833301 C12.200161,27.1150937 12.4645822,27.383916 12.7909144,27.383916 L14.5818425,27.383916 L14.5818425,28.7502891 Z" id="Shape" fill="#4A4A4A"></path>
                                </g>
                            </g>
                            <g id="mop" transform="translate(42.000000, 7.000000)" fill-rule="nonzero">
                                <path d="M6,21 L6,26 L2.66666667,26 C1.74733178,25.9972543 1.00274567,25.2526682 1,24.3333333 L1,22.6666667 C1.00274567,21.7473318 1.74733178,21.0027457 2.66666667,21 L6,21 Z" id="Shape" fill="#36B8FF"></path>
                                <path d="M32,22.6666667 L32,24.3333333 C31.9969111,25.2526682 31.1592518,25.9972543 30.125,26 L17,26 L17,21 L30.125,21 C31.1592518,21.0027457 31.9969111,21.7473318 32,22.6666667 Z" id="Shape" fill="#36B8FF"></path>
                                <path d="M30,21 L27,21 C28.1032019,21.0027457 28.9967052,21.7473318 29,22.6666667 L29,24.3333333 C28.9967052,25.2526682 28.1032019,25.9972543 27,26 L30,26 C31.1032019,25.9972543 31.9967052,25.2526682 32,24.3333333 L32,22.6666667 C31.9967052,21.7473318 31.1032019,21.0027457 30,21 Z" id="Shape" fill="#0094E6"></path>
                                <path d="M29,20.4293045 C29.0026883,20.7429052 28.962187,21.055387 28.8795129,21.3578393 L17.8907467,21.3578393 L17.8907467,37.1429304 C17.8831858,38.165404 17.0586451,38.9924165 16.0392275,39 C15.0179278,38.9969407 14.1907586,38.1672918 14.1877084,37.1429304 L14.1877084,30.643187 C14.1801475,29.6207135 13.3556068,28.793701 12.3361892,28.7861175 C11.3148895,28.7891768 10.4877203,29.6188257 10.4846701,30.643187 L10.4846701,33.4287913 C10.4771092,34.4512649 9.65256847,35.2782774 8.6331509,35.2858609 C7.6118512,35.2828016 6.78468193,34.4531527 6.78163174,33.4287913 L6.78163174,21.3578393 L5.26338603,21.3578393 C4.22252847,20.4453829 3.77658898,19.0264675 4.10759279,17.6802711 C4.43859659,16.3340747 5.49116435,15.2858258 6.83565508,14.9634024 C8.1801458,14.640979 9.59161645,15.098325 10.4939277,16.1487592 C11.8660682,13.8591668 14.4961097,12.6459188 17.1222722,13.0910788 C19.7484347,13.536239 21.8349033,15.5489814 22.3806807,18.1636796 C23.3446371,16.9037465 25.0024138,16.4008554 26.5009619,16.913781 C27.9995099,17.4267067 29.0049311,18.8411618 29,20.4293045 Z" id="Shape" fill="#CFF5FF"></path>
                                <path d="M24.3583024,16 C23.8920169,16.0013138 23.430509,16.1032442 23,16.3 C24.3702525,16.9126357 25.2668974,18.3749696 25.2686928,20 C25.2714725,20.3377372 25.2316437,20.6742693 25.1503421,21 L27.8815132,21 C27.9628148,20.6742693 28.0026436,20.3377372 27.999864,20 C27.999864,17.790861 26.3694813,16 24.3583024,16 Z" id="Shape" fill="#0377BC"></path>
                                <path d="M24.6,45.8999982 C24.15,49.5 25.05,51.5249977 26.85,52.6499976 C26.1685493,53.50429 25.1347895,54.0012899 24.042,54 L8.958,54 C7.10916482,54 5.56088352,52.5995654 5.376,50.7599978 L3,27 L6.6,27 L6.6,33.2999994 C6.60296532,34.292881 7.40711832,35.0970339 8.4,35.0999992 C9.39105192,35.0926488 10.1926495,34.2910512 10.2,33.2999994 L10.2,30.5999997 C10.2029653,29.607118 11.0071183,28.8029652 12,28.7999998 C12.9910519,28.8073503 13.7926495,29.6089478 13.8,30.5999997 L13.8,36.8999991 C13.8029653,37.8928807 14.6071183,38.6970336 15.6,38.6999989 C16.5910519,38.6926484 17.3926495,37.8910509 17.4,36.8999991 L17.4,27 L30,27 L29.037,36.6299991 C26.5735374,39.1442864 25.013141,42.4043435 24.6,45.8999982 Z" id="Shape" fill="#CFF5FF"></path>
                                <path d="M28.9989605,36.6299982 L30,27 L27.1933472,27 L26.1923077,36.6299982 C23.6315357,39.1442853 22.009502,42.4043421 21.5800416,45.8999965 C21.1122661,49.5 22.047817,51.5249954 23.9189189,52.6499952 C23.2105502,53.5042876 22.1359559,54.0012874 21,54 L23.8066528,54 C24.9426087,54.0012874 26.0172031,53.5042876 26.7255717,52.6499952 C24.8544699,51.5249954 23.9189189,49.5 24.3866944,45.8999965 C24.8161548,42.4043421 26.4381885,39.1442853 28.9989605,36.6299982 Z" id="Shape" fill="#0AA5FA"></path>
                                <path d="M48.0674827,54 L34.3411439,54 C31.088457,54 28.3004396,53.7673463 26.4417614,52.604105 C24.5830832,51.4408637 23.653744,49.3470293 24.1184136,45.6246572 C24.5450225,42.0101769 26.1562864,38.6393027 28.7000555,36.0395488 C31.0902419,33.6425269 33.817196,31.6078758 36.7945992,30 C36.813186,30.0093059 36.8317728,30.0093059 36.8503595,30.0186119 L43.6345351,32.1868936 L43.6345351,40.971692 C43.6345351,45.5781275 46.887222,50.1752572 48.7923672,52.4831279 C49.0185138,52.7622685 49.0638983,53.1468658 48.9089529,53.4710986 C48.7540076,53.7953316 48.4264401,54.0012201 48.0674827,54 L48.0674827,54 Z" id="Shape" fill="#B8F0FF"></path>
                                <path d="M48.7952794,52.4831279 C46.9168546,50.1752572 43.7097881,45.5781275 43.7097881,40.971692 L43.7097881,32.1868936 L37.0207635,30.0186119 C37.0024374,30.0093059 36.9841113,30.0093059 36.9657852,30 C36.6401916,30.1904614 36.3182631,30.3834043 36,30.5788289 L40.9608738,32.1868936 L40.9608738,40.971692 C40.9608738,45.5781275 44.1679404,50.1752572 46.0463651,52.4831279 C46.2693399,52.7622685 46.3140879,53.1468658 46.1613157,53.4710986 C46.0085436,53.7953316 45.6855703,54.0012201 45.3316474,54 L48.0805617,54 C48.4344845,54.0012201 48.7574578,53.7953316 48.9102299,53.4710986 C49.0630021,53.1468658 49.0182541,52.7622685 48.7952794,52.4831279 Z" id="Shape" fill="#36B8FF"></path>
                                <path d="M45.9575967,30.5397068 L45.420676,32.3387293 C45.3523272,32.578536 45.1973206,32.7787724 44.9904504,32.8944911 C44.7835803,33.0102099 44.5421771,33.0317168 44.3204287,32.9541844 L44.0387653,32.859499 L37.6133208,30.6533292 C37.5957168,30.6438607 37.5781129,30.6438607 37.5605089,30.6343922 C37.1280358,30.4500031 36.9013916,29.9375939 37.0411921,29.4602932 L37.5781129,27.6612707 C37.6464616,27.421464 37.8014683,27.2212276 38.0083384,27.1055089 C38.2152085,26.9897901 38.4566118,26.9682832 38.6783602,27.0458156 L45.3854681,29.3466708 C45.6087583,29.4227159 45.7946665,29.5913572 45.9020447,29.8152684 C46.0094229,30.0391797 46.0294152,30.2998942 45.9575967,30.5397068 Z" id="Shape" fill="#827E7E"></path>
                                <path d="M44.1750889,29 L51.8707249,4.58656508 C52.3267363,3.13973491 51.5379329,1.59257884 50.108877,1.13088251 C48.6798164,0.669200974 47.151662,1.46781257 46.695636,2.91463803 L39,27.3289896 L44.1750889,29 Z" id="Shape" fill="#E8E8E8"></path>
                                <path d="M50.1601904,1.12784286 C49.4531996,0.894217833 48.6843194,0.983489505 48.0440315,1.37354176 C49.1124605,2.0212043 49.6064582,3.35464253 49.232776,4.58229612 L42,28.2042289 L44.395967,29 L51.875115,4.58229612 C52.3169351,3.13497289 51.5491923,1.58847246 50.1601904,1.12784286 Z" id="Shape" fill="#9B9B9B"></path>
                                <circle id="Oval" fill="#FF9801" cx="23" cy="32" r="2"></circle>
                                <circle id="Oval" fill="#02A9F4" cx="16" cy="44" r="2"></circle>
                                <circle id="Oval" fill="#02A9F4" cx="5" cy="8" r="2"></circle>
                                <circle id="Oval" fill="#02A9F4" cx="30" cy="10" r="2"></circle>
                                <g id="Group" fill="#4A4A4A">
                                    <path d="M15.5833333,41.2768031 C14.0645503,41.2768031 12.8333333,42.5056201 12.8333333,44.0214425 C12.8333333,45.5372649 14.0645503,46.7660819 15.5833333,46.7660819 C17.1021163,46.7660819 18.3333333,45.5372649 18.3333333,44.0214425 C18.3333333,42.5056201 17.1021163,41.2768031 15.5833333,41.2768031 Z M15.5833333,44.9363223 C15.0770724,44.9363223 14.6666667,44.5267166 14.6666667,44.0214425 C14.6666667,43.5161684 15.0770724,43.1065627 15.5833333,43.1065627 C16.0895943,43.1065627 16.5,43.5161684 16.5,44.0214425 C16.5,44.5267166 16.0895943,44.9363223 15.5833333,44.9363223 Z" id="Shape"></path>
                                    <path d="M54.0833333,53.1702404 L50.193,53.1702404 C50.2003295,52.7481003 50.0574139,52.3370465 49.7896667,52.0101728 C47.9700833,49.8162911 44.9166667,45.5053775 44.9166667,41.2768031 L44.9166667,33.6357271 C45.5715932,33.516319 46.1084516,33.0486248 46.3155,32.4171072 L46.8746667,30.6742612 C47.0222803,30.2116675 46.9796421,29.7094873 46.756139,29.2782811 C46.5326361,28.8470748 46.1465925,28.5221953 45.683,28.3751683 L53.1950833,4.87922547 C53.8106968,2.95362566 52.7456941,0.894538135 50.8163333,0.280124756 C48.8869726,-0.334288623 46.8238634,0.728638006 46.20825,2.65423782 L38.698,26.1501806 C37.733109,25.8471744 36.7041085,26.378449 36.3944167,27.3395244 L35.838,29.077796 C35.7174925,29.4588139 35.7265158,29.8688972 35.8636667,30.2442677 C33.9467247,31.3561971 32.1282021,32.6291301 30.4278333,34.0492528 L31.09425,27.4026511 C32.2249246,27.0407685 32.9940337,25.9940278 33,24.8089669 L33,22.9792073 C33,21.4633849 31.768783,20.2345679 30.25,20.2345679 L29.3333333,20.2345679 C29.349374,18.8562192 28.7346573,17.5458272 27.6637015,16.6754122 C26.5927459,15.8049973 25.1825,15.4696095 23.8333333,15.7644652 L23.8333333,9.2560104 C23.8333333,6.22436545 21.3708995,3.76673164 18.3333333,3.76673164 C15.2957672,3.76673164 12.8333333,6.22436545 12.8333333,9.2560104 L12.8333333,12.5422586 C11.7066723,12.9943401 10.7114348,13.720913 9.9385,14.6556309 C9.17565348,14.1200186 8.26603633,13.8318851 7.33333333,13.8304094 C5.78634644,13.8275644 4.34269592,14.6051557 3.49596737,15.8973239 C2.64923881,17.1894922 2.51412946,18.8212011 3.13683333,20.2345679 L2.75,20.2345679 C1.23121694,20.2345679 6.10622664e-15,21.4633849 6.10622664e-15,22.9792073 L6.10622664e-15,24.8089669 C0.0039856575,25.9957165 0.773474698,27.0448214 1.90575,27.4072255 L4.25791667,50.8830409 C4.48385538,53.2252683 6.46070103,55.0098844 8.81833333,55.0000409 L24.1816667,55.0000409 C25.3029864,55.0000409 26.3847197,54.5862236 27.2195,53.8390175 C29.13075,54.7612164 31.7001667,55.0000409 34.8333333,55.0000409 L54.0833333,55.0000409 C54.5895943,55.0000409 55,54.5903943 55,54.0851202 C55,53.5798461 54.5895943,53.1702404 54.0833333,53.1702404 Z M47.9545,3.21048473 C48.1789157,2.50356131 48.8086484,2.00172531 49.5490568,1.93977734 C50.2894652,1.87782937 50.9941233,2.26802051 51.3333333,2.92778687 C51.557917,3.35844722 51.6001792,3.86097986 51.4506667,4.32297856 L43.9376667,27.8189214 L40.4451667,26.7064276 L47.9545,3.21048473 Z M38.1406667,27.8930266 L45.1265833,30.1152697 L44.56925,31.8581157 L37.5833333,29.6358726 L38.1406667,27.8930266 Z M30.25,22.0643275 C30.756261,22.0643275 31.1666667,22.4739332 31.1666667,22.9792073 L31.1666667,24.8089669 C31.1666667,25.314241 30.756261,25.7238467 30.25,25.7238467 L23.8333333,25.7238467 L23.8333333,22.0643275 L30.25,22.0643275 Z M18.3333333,22.0643275 L22,22.0643275 L22,25.7238467 L18.3333333,25.7238467 L18.3333333,22.0643275 Z M24.75,17.4899285 C26.268783,17.4899285 27.5,18.7187455 27.5,20.2345679 L23.8333333,20.2345679 L23.8333333,17.6729045 C24.1256606,17.5583498 24.4360139,17.4964001 24.75,17.4899285 Z M14.6666667,9.2560104 C14.6666667,7.23491377 16.3082893,5.59649123 18.3333333,5.59649123 C20.3583774,5.59649123 22,7.23491377 22,9.2560104 L22,15.8175283 C20.5750843,13.1662968 17.655575,11.6711438 14.6666667,12.0619467 L14.6666667,9.2560104 Z M4.58329535,18.4048083 C4.57730501,17.2584325 5.28928926,16.2303299 6.36590129,15.8307867 C7.44251332,15.4312436 8.65454406,15.7453221 9.40041667,16.6171332 C9.59255092,16.8377057 9.8787139,16.9533822 10.1704887,16.9284217 C10.4622636,16.9034612 10.7245284,16.7408682 10.87625,16.4908798 C12.0399414,14.5569624 14.2715399,13.5316006 16.500339,13.9067563 C18.7291382,14.2819119 20.5003532,15.9810347 20.9641667,18.1888967 C21.037226,18.5381302 21.3070288,18.8131211 21.6553333,18.8933541 C21.7687688,18.9175587 21.8858484,18.9194234 22,18.8988434 L22,20.2345679 L18.3333333,20.2345679 L18.3333333,19.3196881 C18.3333333,18.814414 17.9229276,18.4048083 17.4166667,18.4048083 C16.9104057,18.4048083 16.5,18.814414 16.5,19.3196881 L16.5,36.7024042 C16.5003624,36.948822 16.3988843,37.1844809 16.2195,37.3537986 C16.0523034,37.5245138 15.8225122,37.6196879 15.5833333,37.6173284 C15.0770724,37.6173284 14.6666667,37.2076783 14.6666667,36.7024042 L14.6666667,30.2982456 C14.6591447,28.7855437 13.4323231,27.5611136 11.9166667,27.5536062 C10.3978836,27.5536062 9.16666667,28.7824232 9.16666667,30.2982456 L9.16666667,33.042885 C9.16702912,33.2893028 9.06555097,33.5249617 8.88616667,33.6942794 C8.71897002,33.8649946 8.48917889,33.9601687 8.25,33.9577648 C7.74373898,33.9577648 7.33333333,33.5481591 7.33333333,33.042885 L7.33333333,19.3196881 C7.33333333,18.814414 6.92292769,18.4048083 6.41666667,18.4048083 C5.91040565,18.4048083 5.5,18.814414 5.5,19.3196881 L5.5,20.2345679 L5.30933333,20.2345679 C4.84766823,19.7360391 4.58881161,19.0836349 4.58329535,18.4048083 Z M1.83333333,22.9792073 C1.83333333,22.4739332 2.24373898,22.0643275 2.75,22.0643275 L5.5,22.0643275 L5.5,25.7238467 L2.75,25.7238467 C2.24373898,25.7238467 1.83333333,25.314241 1.83333333,24.8089669 L1.83333333,22.9792073 Z M24.1816667,53.1702694 L8.81833333,53.1702694 C7.40355507,53.1766898 6.21714932,52.1056508 6.08208333,50.700065 L3.76291667,27.5536062 L5.5,27.5536062 L5.5,33.042885 C5.5,34.5587074 6.73121694,35.7875244 8.25,35.7875244 C9.76524239,35.7790268 10.9914858,34.5551737 11,33.042885 L11,30.2982456 C11,29.7929715 11.4104057,29.3833658 11.9166667,29.3833658 C12.1638841,29.3827518 12.400383,29.4840527 12.57025,29.663319 C12.7402471,29.8308247 12.8351366,30.0598313 12.8333333,30.2982456 L12.8333333,36.7024042 C12.8333333,38.2182266 14.0645503,39.4470435 15.5833333,39.4470435 C17.0985757,39.4385459 18.3248191,38.2146929 18.3333333,36.7024042 L18.3333333,27.5536062 L22,27.5536062 L22,29.5517037 C20.7372489,29.9972834 19.9797839,31.2860104 20.2062706,32.6034985 C20.4327573,33.9209865 21.5773168,34.8840139 22.9166667,34.8840139 C24.2560165,34.8840139 25.400576,33.9209865 25.6270627,32.6034985 C25.8535494,31.2860104 25.0960845,29.9972834 23.8333333,29.5517037 L23.8333333,27.5536062 L29.2416667,27.5536062 L28.39375,36.0116699 C25.8748432,38.6850699 24.280713,42.093809 23.84525,45.737757 C23.4721667,48.7175205 23.9369167,50.9004237 25.27525,52.4099753 C25.3834167,52.5325692 25.51175,52.6295465 25.6290833,52.7411618 C25.1967949,53.0175283 24.6950229,53.1662758 24.1816667,53.1702694 Z M23.8333333,32.1280052 C23.8333333,32.6332793 23.4229276,33.042885 22.9166667,33.042885 C22.4104057,33.042885 22,32.6332793 22,32.1280052 C22,31.6227311 22.4104057,31.2131254 22.9166667,31.2131254 C23.4229276,31.2131254 23.8333333,31.6227311 23.8333333,32.1280052 Z M46.75,53.1702404 L42.4673333,53.1702404 C42.2128966,52.9947904 41.949121,52.8332297 41.6771667,52.686269 C40.0473333,51.7860273 37.5833333,50.425601 37.5833333,45.8512021 C37.5833333,39.9639506 40.0445833,37.3702664 40.06475,37.3492242 C40.4121412,36.9902446 40.407173,36.4196287 40.0535837,36.0667287 C39.6999944,35.7138286 39.128264,35.7088701 38.7685833,36.0555841 C38.6448333,36.178178 35.75,39.1451332 35.75,45.8512021 C35.75,49.8510565 37.4540833,51.9580247 39.0298333,53.1702404 L35.0881667,53.1702404 C33.2857508,52.2648832 31.94493,50.648353 31.3903333,48.7120312 C30.5543333,45.2976998 32.8249167,41.8174971 32.8478333,41.7827316 C33.1250458,41.3621878 33.0097726,40.7971361 32.5898735,40.5182525 C32.1699745,40.2393689 31.6032197,40.3514392 31.3215833,40.7690448 C31.20975,40.9373827 28.58625,44.930833 29.6065,49.1328759 C29.9774846,50.6360446 30.7728474,52.001402 31.8981667,53.066859 C29.6770833,52.883883 27.7236667,52.4145497 26.6493333,51.2005042 C25.68225,50.1026485 25.3595833,48.3945679 25.6639167,45.9655621 C26.565,38.7874152 31.7826667,34.747306 37.3679167,31.4875893 L43.0833333,33.3082001 L43.0833333,41.2768031 C43.0833333,46.0790071 46.3998333,50.791553 48.3734167,53.1702404 L46.75,53.1702404 Z" id="Shape"></path>
                                    <path d="M8.25,8.3411306 C8.25,6.82530813 7.01878306,5.59649123 5.5,5.59649123 C3.98121694,5.59649123 2.75,6.82530813 2.75,8.3411306 C2.75,9.85695303 3.98121694,11.08577 5.5,11.08577 C6.22934535,11.08577 6.92881861,10.7966035 7.44454365,10.2818837 C7.96026869,9.76716398 8.25,9.06905425 8.25,8.3411306 Z M4.58333333,8.3411306 C4.58333333,7.83585645 4.99373898,7.42625081 5.5,7.42625081 C6.00626102,7.42625081 6.41666667,7.83585645 6.41666667,8.3411306 C6.41666667,8.84640472 6.00626102,9.2560104 5.5,9.2560104 C4.99373898,9.2560104 4.58333333,8.84640472 4.58333333,8.3411306 Z" id="Shape"></path>
                                    <path d="M30.25,12.9155296 C31.768783,12.9155296 33,11.6867126 33,10.1708902 C33,8.65506776 31.768783,7.42625081 30.25,7.42625081 C28.731217,7.42625081 27.5,8.65506776 27.5,10.1708902 C27.5,11.6867126 28.731217,12.9155296 30.25,12.9155296 Z M30.25,9.2560104 C30.756261,9.2560104 31.1666667,9.66561608 31.1666667,10.1708902 C31.1666667,10.6761643 30.756261,11.08577 30.25,11.08577 C29.743739,11.08577 29.3333333,10.6761643 29.3333333,10.1708902 C29.3333333,9.66561608 29.743739,9.2560104 30.25,9.2560104 Z" id="Shape"></path>
                                    <ellipse id="Oval" cx="26.5833333" cy="3.76673164" rx="1" ry="1"></ellipse>
                                    <ellipse id="Oval" cx="11" cy="3.76673164" rx="1" ry="1"></ellipse>
                                </g>
                            </g>
                        </g>
                    </g>
                </g>
            </g>
        </g>
    </g>
</svg>