<?xml version="1.0" encoding="UTF-8"?>
<svg width="230px" height="174px" viewBox="0 0 230 174" version="1.1" xmlns="http://www.w3.org/2000/svg" xmlns:xlink="http://www.w3.org/1999/xlink">
    <title>a-illustration</title>
    <g id="Home" stroke="none" stroke-width="1" fill="none" fill-rule="evenodd">
        <g id="white-label-home--copy" transform="translate(-16.000000, -1955.000000)">
            <g id="a-illustration" transform="translate(16.000000, 1955.000000)">
                <g>
                    <g id="Group-2" fill-rule="nonzero">
                        <path d="M22.05,35.7 L22.05,29.8 L9.3,29.8 L9.3,0 L2.1,0 L2.1,35.7 L22.05,35.7 Z M36.6461538,35.7 L36.6461538,0 L29.4461538,0 L29.4461538,35.7 L36.6461538,35.7 Z M60.9423077,35.7 L69.1423077,0 L61.6923077,0 L56.3923077,26.4 L56.2423077,26.4 L51.1923077,0 L43.4923077,0 L51.6923077,35.7 L60.9423077,35.7 Z M96.0884615,35.7 L96.0884615,29.8 L82.8384615,29.8 L82.8384615,20.2 L94.8384615,20.2 L94.8384615,14.3 L82.8384615,14.3 L82.8384615,5.9 L95.5884615,5.9 L95.5884615,0 L75.6384615,0 L75.6384615,35.7 L96.0884615,35.7 Z M14.55,76.7 L18.55,50.8 L18.65,50.8 L22.65,76.7 L30.7,76.7 L37.2,41 L30.3,41 L26.35,67.4 L26.25,67.4 L22.05,41 L15.15,41 L10.95,67.4 L10.85,67.4 L6.9,41 L0,41 L6.5,76.7 L14.55,76.7 Z M51.4961538,76.7 L51.4961538,41 L44.2961538,41 L44.2961538,76.7 L51.4961538,76.7 Z M73.7923077,76.7 L73.7923077,46.9 L81.5923077,46.9 L81.5923077,41 L58.7923077,41 L58.7923077,46.9 L66.5923077,46.9 L66.5923077,76.7 L73.7923077,76.7 Z M95.7384615,76.7 L95.7384615,60.85 L104.138462,60.85 L104.138462,76.7 L111.338462,76.7 L111.338462,41 L104.138462,41 L104.138462,54.65 L95.7384615,54.65 L95.7384615,41 L88.5384615,41 L88.5384615,76.7 L95.7384615,76.7 Z M12.05,118.25 C15.95,118.25 18.9916667,117.391667 21.175,115.675 C23.3583333,113.958333 24.45,111.216667 24.45,107.45 C24.45,106.35 24.35,105.35 24.15,104.45 C23.95,103.55 23.5916667,102.725 23.075,101.975 C22.5583333,101.225 21.8666667,100.525 21,99.875 C20.1333333,99.225 19.0166667,98.6 17.65,98 L12.1,95.6 C10.5666667,94.9666667 9.56666667,94.275 9.1,93.525 C8.63333333,92.775 8.4,91.85 8.4,90.75 C8.4,90.2166667 8.45833333,89.7 8.575,89.2 C8.69166667,88.7 8.90833333,88.2583333 9.225,87.875 C9.54166667,87.4916667 9.96666667,87.1833333 10.5,86.95 C11.0333333,86.7166667 11.7,86.6 12.5,86.6 C13.9,86.6 14.9,87.0583333 15.5,87.975 C16.1,88.8916667 16.4,90.2 16.4,91.9 L23.3,91.9 L23.3,90.9 C23.3,89.2 23.025,87.7416667 22.475,86.525 C21.925,85.3083333 21.1583333,84.3083333 20.175,83.525 C19.1916667,82.7416667 18.025,82.175 16.675,81.825 C15.325,81.475 13.85,81.3 12.25,81.3 C8.81666667,81.3 6.11666667,82.1666667 4.15,83.9 C2.18333333,85.6333333 1.2,88.2666667 1.2,91.8 C1.2,93.2666667 1.38333333,94.5583333 1.75,95.675 C2.11666667,96.7916667 2.69166667,97.775 3.475,98.625 C4.25833333,99.475 5.23333333,100.216667 6.4,100.85 C7.56666667,101.483333 8.95,102.066667 10.55,102.6 C11.75,103 12.7583333,103.391667 13.575,103.775 C14.3916667,104.158333 15.05,104.583333 15.55,105.05 C16.05,105.516667 16.4083333,106.041667 16.625,106.625 C16.8416667,107.208333 16.95,107.9 16.95,108.7 C16.95,110.2 16.5083333,111.308333 15.625,112.025 C14.7416667,112.741667 13.75,113.1 12.65,113.1 C11.7166667,113.1 10.9416667,112.966667 10.325,112.7 C9.70833333,112.433333 9.21666667,112.066667 8.85,111.6 C8.48333333,111.133333 8.23333333,110.558333 8.1,109.875 C7.96666667,109.191667 7.9,108.433333 7.9,107.6 L7.9,106.55 L0.7,106.55 L0.7,108 C0.7,111.3 1.575,113.833333 3.325,115.6 C5.075,117.366667 7.98333333,118.25 12.05,118.25 Z M44.9961538,117.7 L44.9961538,87.9 L52.7961538,87.9 L52.7961538,82 L29.9961538,82 L29.9961538,87.9 L37.7961538,87.9 L37.7961538,117.7 L44.9961538,117.7 Z M73.8423077,117.7 L73.8423077,103.65 L83.0923077,82 L75.2923077,82 L70.2923077,95.8 L70.1923077,95.8 L65.4923077,82 L57.3923077,82 L66.6423077,103.65 L66.6423077,117.7 L73.8423077,117.7 Z M109.538462,117.7 L109.538462,111.8 L96.7884615,111.8 L96.7884615,82 L89.5884615,82 L89.5884615,117.7 L109.538462,117.7 Z M137.034615,117.7 L137.034615,111.8 L123.784615,111.8 L123.784615,102.2 L135.784615,102.2 L135.784615,96.3 L123.784615,96.3 L123.784615,87.9 L136.534615,87.9 L136.534615,82 L116.584615,82 L116.584615,117.7 L137.034615,117.7 Z" id="LIVEWITHSTYLE" fill="#827E7E"></path>
                        <g id="dryer" transform="translate(176.500000, 64.500000) scale(-1, 1) rotate(-13.000000) translate(-176.500000, -64.500000) translate(126.000000, 21.000000)">
                            <polygon id="Path" fill="#5A6470" points="45.3188933 48.2011099 57.3188933 48.2011099 57.3188933 55.2011099 45.3188933 55.2011099"></polygon>
                            <path d="M37.911736,86.8079002 L34.5548635,86.8079002 C28.9950729,86.8022652 24.4889751,82.3279754 24.4832998,76.8074305 C24.4795163,73.1276936 21.4754511,70.1448337 17.7686086,70.141077 L2.66220907,70.141077 C1.73431595,70.141077 0.983299766,69.3944228 0.983299766,68.4740189 C0.983299766,67.5536151 1.73526199,66.8079002 2.66220907,66.8079002 L17.7686086,66.8079002 C23.3283994,66.8135352 27.8344973,71.287825 27.8401723,76.8083699 C27.843956,80.4881068 30.8480212,83.4709667 34.5548635,83.4747234 L37.911736,83.4747234 C41.6185785,83.4709667 44.6226437,80.4881068 44.6264272,76.8083699 L44.6264272,75.1413118 C44.6264272,74.220908 45.3774436,73.4751931 46.3043907,73.4751931 C47.2313378,73.4751931 47.9832998,74.220908 47.9832998,75.1413118 L47.9832998,76.8083699 C47.9776247,82.3289146 43.4715269,86.8022652 37.911736,86.8079002 L37.911736,86.8079002 Z" id="Path" fill="#5A6470"></path>
                            <polygon id="Path" fill="#FCA7B1" points="54.2867019 75.2605368 37.1432927 75.2605368 30.2867019 35.2605368 47.429145 35.2605368"></polygon>
                            <polygon id="Path" fill="#5A6470" points="100.05969 38.2610056 81.0596904 34.9611916 81.0596904 8.56081959 100.05969 5.2610056"></polygon>
                            <path d="M25.0789038,41.7835764 L78.8410956,34.7981132 L78.8410956,8.11728879 L25.0789038,1.13088567 C13.8099439,-0.333110976 3.4832868,7.58074049 2.01370966,18.8059687 C1.89863353,19.6854944 1.84109558,20.5706579 1.84109558,21.4577009 C1.84109558,32.7787747 11.0537792,41.9564747 22.4170635,41.9564747 C23.3074877,41.9564747 24.1960256,41.8991552 25.0789038,41.7835764 Z" id="Path" fill="#F47181"></path>
                            <g id="Group" transform="translate(12.402630, 12.804836)" fill="#FCA7B1">
                                <path d="M17.2351359,3.49391747 L1.84004661,3.49391747 C0.895444338,3.49391747 0.130123844,2.74068074 0.130123844,1.81099324 C0.130123844,0.881305743 0.895444338,0.127120657 1.84004661,0.127120657 L17.2351359,0.127120657 C18.1797382,0.127120657 18.9460227,0.881305743 18.9460227,1.81099324 C18.9460227,2.74068074 18.1797382,3.49391747 17.2351359,3.49391747 Z" id="Path"></path>
                                <path d="M17.2351359,10.2284599 L1.84004661,10.2284599 C0.895444338,10.2284599 0.130123844,9.47427461 0.130123844,8.54458711 C0.130123844,7.61489961 0.895444338,6.86166289 1.84004661,6.86166289 L17.2351359,6.86166289 C18.1797382,6.86166289 18.9460227,7.61489961 18.9460227,8.54458711 C18.9460227,9.47522321 18.1797382,10.2284599 17.2351359,10.2284599 Z" id="Path"></path>
                                <path d="M17.2351359,16.9630022 L1.84004661,16.9630022 C0.895444338,16.9630022 0.130123844,16.2088171 0.130123844,15.2791293 C0.130123844,14.3494421 0.895444338,13.5962054 1.84004661,13.5962054 L17.2351359,13.5962054 C18.1797382,13.5962054 18.9460227,14.3494421 18.9460227,15.2791293 C18.9460227,16.2088171 18.1797382,16.9630022 17.2351359,16.9630022 Z" id="Path"></path>
                            </g>
                        </g>
                    </g>
                    <text id="Made-by-Style-Enthus" font-family="HelveticaNeue-Light, Helvetica Neue" font-size="12" font-weight="300" letter-spacing="0.75" fill="#827E7E">
                        <tspan x="1.6" y="156.7">MADE BY STYLE ENTHUSIASTS </tspan>
                        <tspan x="1.6" y="171.7">Sample App HQ, GURGAON</tspan>
                    </text>
                </g>
            </g>
        </g>
    </g>
</svg>