<?xml version="1.0" encoding="UTF-8"?>
<svg width="109px" height="32px" viewBox="0 0 109 32" version="1.1" xmlns="http://www.w3.org/2000/svg" xmlns:xlink="http://www.w3.org/1999/xlink">
    <title>a-icon-gb-safe</title>
    <g id="video_assets" stroke="none" stroke-width="1" fill="none" fill-rule="evenodd">
        <g id="profile-V1-Copy" transform="translate(-257.000000, -67.000000)">
            <g id="a-icon-gb-safe" transform="translate(257.000000, 67.000000)">
                <g>
                    <g id="Group" transform="translate(14.000000, 6.000000)">
                        <path d="M4,0 L90,0 C92.209139,-4.05812251e-16 94,1.790861 94,4 L94,20 C94,22.209139 92.209139,24 90,24 L4,24 C1.790861,24 2.705415e-16,22.209139 0,20 L0,4 C-2.705415e-16,1.790861 1.790861,4.05812251e-16 4,0 Z" id="Rectangle" stroke="#E8E8E8" fill="#FFFFFF"></path>
                        <text id="GB-Safe" font-family="HelveticaNeue-Medium, Helvetica Neue" font-size="12" font-weight="400" line-spacing="16" fill="#2EABB4">
                            <tspan x="22" y="16">Safe </tspan>
                            <tspan x="50.236" y="16" font-family="HelveticaNeue, Helvetica Neue" font-weight="normal">Squad</tspan>
                        </text>
                    </g>
                    <g id="miscellaneous" fill-rule="nonzero">
                        <path d="M25.8422851,21.3693848 C24.9821777,23.7004394 23.6813965,25.7272949 21.9755859,27.3930664 C20.0339356,29.2890625 17.4914551,30.7956543 14.4187012,31.8703613 C14.3178711,31.9055176 14.2126465,31.9343262 14.1069336,31.9555664 C13.9672851,31.9831543 13.8251953,31.9980469 13.6843262,32 L13.6567383,32 C13.5065918,32 13.3557129,31.9848633 13.2060547,31.9555664 C13.1003418,31.9343262 12.996582,31.9055176 12.8962402,31.8710938 C9.81982425,30.7980957 7.27416994,29.2922363 5.33056637,27.3962403 C3.62402344,25.7304688 2.32348631,23.704834 1.46459962,21.3737793 C-0.097168,17.1354981 -0.00830075,12.4665527 0.0632324375,8.71459962 L0.064453125,8.65698244 C0.0788574375,8.347168 0.08813475,8.0217285 0.09326175,7.6623535 C0.11938475,5.89794925 1.52221681,4.43823244 3.28686525,4.33984375 C6.96606444,4.1345215 9.81225587,2.93457031 12.2441406,0.564209 L12.2653809,0.54467775 C12.6691894,0.174316375 13.1779785,-0.00732425 13.6843262,1.70840999e-05 C14.1726074,0.0065918125 14.6589356,0.18798825 15.0483399,0.54467775 L15.0690918,0.564209 C17.5014649,2.93457031 20.3476562,4.1345215 24.0268555,4.33984375 C25.7915039,4.43823244 27.1943359,5.89794925 27.220459,7.6623535 C27.2255859,8.02416994 27.2348632,8.34912113 27.2492676,8.65698244 L27.25,8.6813965 C27.3212891,12.4404297 27.409668,17.1186524 25.8422851,21.3693848 Z" id="Path" fill="#2EABB4" opacity="0.500953311"></path>
                        <path d="M25.8422851,21.3693847 C24.9821777,23.7004394 23.6813965,25.7272949 21.9755859,27.3930664 C20.0339356,29.2890625 17.4914551,30.7956543 14.4187012,31.8703613 C14.3178711,31.9055176 14.2126465,31.9343262 14.1069336,31.9555664 C13.9672851,31.9831543 13.8251953,31.9980469 13.6843262,32 L13.6843262,0.000244140625 C14.1726074,0.0065918125 14.6589356,0.18798825 15.0483399,0.54467775 L15.0690918,0.564209 C17.5014649,2.93457031 20.3476562,4.1345215 24.0268555,4.33984375 C25.7915039,4.43823244 27.1943359,5.89794925 27.220459,7.6623535 C27.2255859,8.02416994 27.2348632,8.34912112 27.2492676,8.65698244 L27.25,8.6813965 C27.3212891,12.4404297 27.409668,17.1186524 25.8422851,21.3693847 Z" id="Path" fill="#2EABB4"></path>
                        <path d="M21.6313476,16 C21.6313476,20.3879394 18.0686035,23.9597168 13.6843262,23.9753418 L13.65625,23.9753418 C9.25903319,23.9753418 5.68090819,20.3974609 5.68090819,16 C5.68090819,11.6027832 9.25903319,8.02490237 13.65625,8.02490237 L13.6843262,8.02490237 C18.0686035,8.04052737 21.6313476,11.6123047 21.6313476,16 Z" id="Path" fill="#FFFFFF"></path>
                        <path d="M21.6313476,16 C21.6313476,20.3879394 18.0686035,23.9597168 13.6843262,23.9753418 L13.6843262,8.02490237 C18.0686035,8.04052737 21.6313476,11.6123047 21.6313476,16 Z" id="Path" fill="#E1EBF0"></path>
                        <path d="M17.2761231,14.8515625 L13.6843262,18.4438476 L12.9082031,19.2199707 C12.7248535,19.4033203 12.484375,19.4948731 12.2441406,19.4948731 C12.0036621,19.4948731 11.7634277,19.4033203 11.579834,19.2199707 L9.91113281,17.5505371 C9.54443362,17.1838379 9.54443362,16.5898438 9.91113281,16.2229004 C10.2773438,15.8562012 10.8720703,15.8562012 11.2387695,16.2229004 L12.2441406,17.2282715 L15.9484863,13.5239258 C16.3151856,13.1569824 16.9099121,13.1569824 17.2761231,13.5239258 C17.6428223,13.890625 17.6428223,14.4853516 17.2761231,14.8515625 Z" id="Path" fill="#2EABB4"></path>
                        <path d="M17.2761231,14.8515625 L13.6843262,18.4438476 L13.6843262,15.7878418 L15.9484863,13.5239258 C16.3151856,13.1569824 16.9099121,13.1569824 17.2761231,13.5239258 C17.6428222,13.890625 17.6428222,14.4853516 17.2761231,14.8515625 Z" id="Path" fill="#6FA5AA"></path>
                    </g>
                </g>
            </g>
        </g>
    </g>
</svg>